{
.appVersion = "947";
classes = (
{
automatic = 1;

glyphs = (
{
glyphname = A;
lastChange = "2016-12-08 16:06:02 +0000";
layers = (
{
anchors = (
{
name = bottom;
position = "{283, 0}";
},
{
name = ogonek;
position = "{552, 0}";
},
{
name = top;
position = "{283, 760}";
}
);
background = {
paths = (
{
closed = 1;
nodes = (
"93 0 LINE",
"93 364 LINE",
"471 364 LINE",
"471 0 LINE",
"505 0 LINE",
"505 740 LINE",
"471 740 LINE",
"471 397 LINE",
"93 397 LINE",
"93 740 LINE",
"59 740 LINE",
"59 0 LINE"
);
}
);
};
color = -1;
layerId = "ECFF4977-BDCC-4836-B4AC-1801CF0EB460";
paths = (
{
closed = 1;
nodes = (
"49 0 LINE",
"288 720 LINE",
"276 720 LINE",
"515 0 LINE",
"552 0 LINE",
"304 740 LINE",
"261 740 LINE",
"13 0 LINE"
);
},
{
closed = 1;
nodes = (
"442 264 LINE",
"432 297 LINE",
"133 297 LINE",
"123 264 LINE"
);
}
);
width = 565;
},
{
anchors = (
{
name = bottom;
position = "{325, 0}";
},
{
name = ogonek;
position = "{654, 0}";
},
{
name = top;
position = "{325, 760}";
}
);
background = {
paths = (
{
closed = 1;
nodes = (
"185 0 LINE",
"332 647 LINE",
"314 647 LINE",
"461 0 LINE",
"653 0 LINE",
"471 740 LINE",
"177 740 LINE",
"-5 0 LINE"
);
},
{
closed = 1;
nodes = (
"525 172 LINE",
"489 337 LINE",
"158 337 LINE",
"122 172 LINE"
);
}
);
};
color = -1;
layerId = "C8FFBC04-9D7C-494A-A42D-BACB8E26599D";
paths = (
{
closed = 1;
nodes = (
"186 0 LINE",
"332 653 LINE",
"314 653 LINE",
"462 0 LINE",
"654 0 LINE",
"472 740 LINE",
"178 740 LINE",
"-4 0 LINE"
);
},
{
closed = 1;
nodes = (
"526 172 LINE",
"490 337 LINE",
"159 337 LINE",
"123 172 LINE"
);
}
);
width = 650;
},
{
anchors = (
{
name = bottom;
position = "{358, 0}";
},
{
name = ogonek;
position = "{694, 0}";
},
{
name = top;
position = "{358, 760}";
}
);
background = {
anchors = (
{
name = bottom;
position = "{358, 0}";
},
{
name = ogonek;
position = "{694, 0}";
},
{
name = top;
position = "{358, 760}";
}
);
paths = (
{
closed = 1;
nodes = (
"105 0 LINE",
"105 364 LINE",
"609 364 LINE",
"609 0 LINE",
"643 0 LINE",
"643 740 LINE",
"609 740 LINE",
"609 397 LINE",
"105 397 LINE",
"105 740 LINE",
"71 740 LINE",
"71 0 LINE"
);
}
);
};
color = -1;
layerId = "E28BEEB5-BD92-4E7A-B4EA-FC5E5BBBF580";
paths = (
{
closed = 1;
nodes = (
"58 0 LINE",
"363 720 LINE",
"351 720 LINE",
"656 0 LINE",
"694 0 LINE",
"379 740 LINE",
"336 740 LINE",
"21 0 LINE"
);
},
{
closed = 1;
nodes = (
"557 264 LINE",
"547 297 LINE",
"168 297 LINE",
"158 264 LINE"
);
}
);
width = 715;
},
{
anchors = (
{
name = bottom;
position = "{439, 0}";
},
{
name = ogonek;
position = "{871, 0}";
},
{
name = top;
position = "{438, 760}";
}
);
background = {
paths = (
{
closed = 1;
nodes = (
"237 0 LINE",
"448 642 LINE",
"428 642 LINE",
"639 0 LINE",
"871 0 LINE",
"611 740 LINE",
"267 740 LINE",
"7 0 LINE"
);
},
{
closed = 1;
nodes = (
"627 169 LINE",
"573 341 LINE",
"304 341 LINE",
"249 169 LINE"
);
}
);
};
color = -1;
layerId = "1E90A949-97C4-49F5-AA9A-AF35B6FD63CF";
paths = (
{
closed = 1;
nodes = (
"237 0 LINE",
"448 642 LINE",
"428 642 LINE",
"639 0 LINE",
"871 0 LINE",
"611 740 LINE",
"267 740 LINE",
"7 0 LINE"
);
},
{
closed = 1;
nodes = (
"627 167 LINE",
"573 342 LINE",
"304 342 LINE",
"249 167 LINE"
);
}
);
width = 878;
}
);
leftKerningGroup = KERN_A;
note = "\012    520\012  ";
rightKerningGroup = KERN_A;
unicode = 0041;
userData = {
com.typemytype.robofont.layerData = {
};
};
},
{
glyphname = AE;
lastChange = "2016-12-08 16:06:02 +0000";
layers = (
{
anchors = (
{
name = bottom;
position = "{426, 0}";
},
{
name = top;
position = "{395, 760}";
}
);
background = {
anchors = (
{
name = topUC;
position = "{481, 760}";
}
);
paths = (
{
closed = 1;
nodes = (
"755 0 LINE",
"755 33 LINE",
"415 33 LINE",
"415 707 LINE",
"750 707 LINE",
"750 740 LINE",
"381 740 LINE",
"381 0 LINE"
);
},
{
closed = 1;
nodes = (
"705 364 LINE",
"705 397 LINE",
"411 397 LINE",
"411 364 LINE"
);
},
{
closed = 1;
nodes = (
"437 297 LINE",
"138 297 LINE",
"128 264 LINE",
"447 264 LINE"
);
},
{
closed = 1;
nodes = (
"266 740 LINE",
"18 0 LINE",
"54 0 LINE",
"293 720 LINE",
"281 720 LINE",
"520 0 LINE",
"557 0 LINE",
"309 740 LINE"
);
}
);
};
color = -1;
layerId = "ECFF4977-BDCC-4836-B4AC-1801CF0EB460";
paths = (
{
closed = 1;
nodes = (
"49 0 LINE",
"290 707 LINE",
"399 707 LINE",
"399 740 LINE",
"267 740 LINE",
"13 0 LINE"
);
},
{
closed = 1;
nodes = (
"412 264 LINE",
"412 297 LINE",
"134 297 LINE",
"124 264 LINE"
);
},
{
closed = 1;
nodes = (
"756 0 LINE",
"756 33 LINE",
"442 33 LINE",
"412 707 LINE",
"751 707 LINE",
"751 740 LINE",
"377 740 LINE",
"409 0 LINE"
);
},
{
closed = 1;
nodes = (
"706 364 LINE",
"706 397 LINE",
"418 397 LINE",
"418 364 LINE"
);
}
);
width = 773;
},
{
anchors = (
{
name = bottom;
position = "{477, 0}";
},
{
name = top;
position = "{477, 760}";
}
);
background = {
paths = (
{
closed = 1;
nodes = (
"185 0 LINE",
"320 593 LINE",
"483 593 LINE",
"483 740 LINE",
"177 740 LINE",
"-5 0 LINE"
);
},
{
closed = 1;
nodes = (
"478 178 LINE",
"478 332 LINE",
"158 332 LINE",
"122 178 LINE"
);
},
{
closed = 1;
nodes = (
"891 0 LINE",
"891 169 LINE",
"619 169 LINE",
"585 571 LINE",
"886 571 LINE",
"886 740 LINE",
"388 740 LINE",
"442 0 LINE"
);
},
{
closed = 1;
nodes = (
"834 295 LINE",
"834 460 LINE",
"538 460 LINE",
"538 295 LINE"
);
}
);
};
color = -1;
layerId = "C8FFBC04-9D7C-494A-A42D-BACB8E26599D";
paths = (
{
closed = 1;
nodes = (
"189 0 LINE",
"319 571 LINE",
"484 571 LINE",
"484 740 LINE",
"178 740 LINE",
"-4 0 LINE"
);
},
{
closed = 1;
nodes = (
"479 172 LINE",
"479 337 LINE",
"159 337 LINE",
"123 172 LINE"
);
},
{
closed = 1;
nodes = (
"892 0 LINE",
"892 169 LINE",
"622 169 LINE",
"587 571 LINE",
"887 571 LINE",
"887 740 LINE",
"391 740 LINE",
"445 0 LINE"
);
},
{
closed = 1;
nodes = (
"835 294 LINE",
"835 461 LINE",
"539 461 LINE",
"539 294 LINE"
);
}
);
width = 921;
},
{
anchors = (
{
name = bottom;
position = "{522, 0}";
},
{
name = top;
position = "{462, 760}";
}
);
background = {
anchors = (
{
name = bottom;
position = "{522, 0}";
},
{
name = top;
position = "{462, 760}";
}
);
paths = (
{
closed = 1;
nodes = (
"58 0 LINE",
"362 707 LINE",
"455 707 LINE",
"457 740 LINE",
"341 740 LINE",
"21 0 LINE"
);
},
{
closed = 1;
nodes = (
"504 264 LINE",
"504 297 LINE",
"173 297 LINE",
"163 264 LINE"
);
},
{
closed = 1;
nodes = (
"925 0 LINE",
"925 33 LINE",
"538 33 LINE",
"480 707 LINE",
"920 707 LINE",
"920 740 LINE",
"444 740 LINE",
"506 0 LINE"
);
},
{
closed = 1;
nodes = (
"870 364 LINE",
"870 397 LINE",
"500 397 LINE",
"500 364 LINE"
);
}
);
};
color = -1;
layerId = "E28BEEB5-BD92-4E7A-B4EA-FC5E5BBBF580";
paths = (
{
closed = 1;
nodes = (
"58 0 LINE",
"362 707 LINE",
"455 707 LINE",
"457 740 LINE",
"341 740 LINE",
"21 0 LINE"
);
},
{
closed = 1;
nodes = (
"504 264 LINE",
"504 297 LINE",
"173 297 LINE",
"163 264 LINE"
);
},
{
closed = 1;
nodes = (
"925 0 LINE",
"925 33 LINE",
"538 33 LINE",
"480 707 LINE",
"920 707 LINE",
"920 740 LINE",
"444 740 LINE",
"506 0 LINE"
);
},
{
closed = 1;
nodes = (
"870 364 LINE",
"870 397 LINE",
"500 397 LINE",
"500 364 LINE"
);
}
);
width = 976;
},
{
anchors = (
{
name = bottom;
position = "{617, 0}";
},
{
name = top;
position = "{617, 760}";
}
);
background = {
paths = (
{
closed = 1;
nodes = (
"237 0 LINE",
"421 560 LINE",
"600 560 LINE",
"600 740 LINE",
"267 740 LINE",
"7 0 LINE"
);
},
{
closed = 1;
nodes = (
"596 167 LINE",
"596 342 LINE",
"304 342 LINE",
"249 167 LINE"
);
},
{
closed = 1;
nodes = (
"1147 0 LINE",
"1147 180 LINE",
"780 180 LINE",
"741 560 LINE",
"1142 560 LINE",
"1142 740 LINE",
"493 740 LINE",
"557 0 LINE"
);
},
{
closed = 1;
nodes = (
"1089 290 LINE",
"1089 465 LINE",
"620 465 LINE",
"620 290 LINE"
);
}
);
};
color = -1;
layerId = "1E90A949-97C4-49F5-AA9A-AF35B6FD63CF";
paths = (
{
closed = 1;
nodes = (
"237 0 LINE",
"421 560 LINE",
"600 560 LINE",
"600 740 LINE",
"267 740 LINE",
"7 0 LINE"
);
},
{
closed = 1;
nodes = (
"596 167 LINE",
"596 342 LINE",
"304 342 LINE",
"249 167 LINE"
);
},
{
closed = 1;
nodes = (
"1147 0 LINE",
"1147 177 LINE",
"780 177 LINE",
"741 563 LINE",
"1142 563 LINE",
"1142 740 LINE",
"493 740 LINE",
"557 0 LINE"
);
},
{
closed = 1;
nodes = (
"1089 290 LINE",
"1089 465 LINE",
"620 465 LINE",
"620 290 LINE"
);
}
);
width = 1189;
}
);
leftKerningGroup = KERN_AE_2ND;
leftMetricsKey = A;
rightKerningGroup = KERN_E_1ST;
rightMetricsKey = E;
unicode = 00C6;
},
{
glyphname = B;
lastChange = "2016-12-08 16:06:02 +0000";
layers = (
{
anchors = (
{
name = bottom;
position = "{282, 0}";
},
{
name = top;
position = "{282, 740}";
}
);
background = {
paths = (
{
closed = 1;
nodes = (
"425 -5 OFFCURVE",
"507 63 OFFCURVE",
"507 195 CURVE SMOOTH",
"507 298 OFFCURVE",
"453 372 OFFCURVE",
"330 385 CURVE",
"330 378 LINE",
"450 396 OFFCURVE",
"486 475 OFFCURVE",
"486 557 CURVE SMOOTH",
"486 687 OFFCURVE",
"412 747 OFFCURVE",
"238 747 CURVE SMOOTH",
"174 747 OFFCURVE",
"125 741 OFFCURVE",
"82 733 CURVE",
"82 2 LINE",
"129 -3 OFFCURVE",
"175 -5 OFFCURVE",
"224 -5 CURVE SMOOTH"
);
},
{
closed = 1;
nodes = (
"189 28 OFFCURVE",
"151 29 OFFCURVE",
"116 33 CURVE",
"116 705 LINE",
"151 711 OFFCURVE",
"187 714 OFFCURVE",
"236 714 CURVE SMOOTH",
"393 714 OFFCURVE",
"451 669 OFFCURVE",
"451 557 CURVE SMOOTH",
"451 456 OFFCURVE",
"403 397 OFFCURVE",
"243 397 CURVE SMOOTH",
"108 397 LINE",
"108 364 LINE",
"263 364 LINE SMOOTH",
"408 364 OFFCURVE",
"472 306 OFFCURVE",
"472 193 CURVE SMOOTH",
"472 80 OFFCURVE",
"405 28 OFFCURVE",
"225 28 CURVE SMOOTH"
);
}
);
};
color = -1;
layerId = "ECFF4977-BDCC-4836-B4AC-1801CF0EB460";
paths = (
{
closed = 1;
nodes = (
"425 -5 OFFCURVE",
"507 63 OFFCURVE",
"507 195 CURVE SMOOTH",
"507 298 OFFCURVE",
"453 372 OFFCURVE",
"332 386 CURVE",
"332 379 LINE",
"450 396 OFFCURVE",
"486 475 OFFCURVE",
"486 557 CURVE SMOOTH",
"486 687 OFFCURVE",
"412 747 OFFCURVE",
"238 747 CURVE SMOOTH",
"174 747 OFFCURVE",
"125 741 OFFCURVE",
"82 733 CURVE",
"82 2 LINE",
"129 -3 OFFCURVE",
"175 -5 OFFCURVE",
"224 -5 CURVE SMOOTH"
);
},
{
closed = 1;
nodes = (
"189 28 OFFCURVE",
"151 29 OFFCURVE",
"116 33 CURVE",
"116 705 LINE",
"151 711 OFFCURVE",
"187 714 OFFCURVE",
"236 714 CURVE SMOOTH",
"393 714 OFFCURVE",
"451 669 OFFCURVE",
"451 557 CURVE SMOOTH",
"451 456 OFFCURVE",
"403 397 OFFCURVE",
"243 397 CURVE SMOOTH",
"108 397 LINE",
"108 364 LINE",
"263 364 LINE SMOOTH",
"408 364 OFFCURVE",
"472 306 OFFCURVE",
"472 193 CURVE SMOOTH",
"472 80 OFFCURVE",
"405 28 OFFCURVE",
"225 28 CURVE SMOOTH"
);
}
);
width = 542;
},
{
anchors = (
{
name = bottom;
position = "{308, 0}";
},
{
name = top;
position = "{308, 740}";
}
);
background = {
paths = (
{
closed = 1;
nodes = (
"500 -10 OFFCURVE",
"607 65 OFFCURVE",
"607 209 CURVE SMOOTH",
"607 316 OFFCURVE",
"546 369 OFFCURVE",
"466 384 CURVE",
"466 378 LINE",
"538 396 OFFCURVE",
"586 460 OFFCURVE",
"586 541 CURVE SMOOTH",
"586 687 OFFCURVE",
"486 750 OFFCURVE",
"274 750 CURVE SMOOTH",
"184 750 OFFCURVE",
"111 740 OFFCURVE",
"43 725 CURVE",
"43 7 LINE",
"108 -4 OFFCURVE",
"190 -10 OFFCURVE",
"245 -10 CURVE SMOOTH"
);
},
{
closed = 1;
nodes = (
"283 143 OFFCURVE",
"264 144 OFFCURVE",
"236 147 CURVE",
"236 590 LINE",
"260 595 OFFCURVE",
"281 597 OFFCURVE",
"307 597 CURVE SMOOTH",
"375 597 OFFCURVE",
"401 576 OFFCURVE",
"401 526 CURVE SMOOTH",
"401 477 OFFCURVE",
"376 456 OFFCURVE",
"301 456 CURVE SMOOTH",
"220 456 LINE",
"220 299 LINE",
"314 299 LINE SMOOTH",
"389 299 OFFCURVE",
"422 276 OFFCURVE",
"422 222 CURVE SMOOTH",
"422 166 OFFCURVE",
"391 143 OFFCURVE",
"305 143 CURVE SMOOTH"
);
}
);
};
color = -1;
layerId = "C8FFBC04-9D7C-494A-A42D-BACB8E26599D";
paths = (
{
closed = 1;
nodes = (
"501 -10 OFFCURVE",
"608 65 OFFCURVE",
"608 209 CURVE SMOOTH",
"608 316 OFFCURVE",
"547 369 OFFCURVE",
"467 384 CURVE",
"467 378 LINE",
"539 396 OFFCURVE",
"587 460 OFFCURVE",
"587 541 CURVE SMOOTH",
"587 687 OFFCURVE",
"487 750 OFFCURVE",
"275 750 CURVE SMOOTH",
"200 750 OFFCURVE",
"112 740 OFFCURVE",
"44 725 CURVE",
"44 7 LINE",
"105 -3 OFFCURVE",
"191 -10 OFFCURVE",
"250 -10 CURVE SMOOTH"
);
},
{
closed = 1;
nodes = (
"284 141 OFFCURVE",
"265 142 OFFCURVE",
"237 144 CURVE",
"237 593 LINE",
"261 597 OFFCURVE",
"282 599 OFFCURVE",
"308 599 CURVE SMOOTH",
"376 599 OFFCURVE",
"402 578 OFFCURVE",
"402 527 CURVE SMOOTH",
"402 477 OFFCURVE",
"377 456 OFFCURVE",
"302 456 CURVE SMOOTH",
"221 456 LINE",
"221 299 LINE",
"315 299 LINE SMOOTH",
"390 299 OFFCURVE",
"423 276 OFFCURVE",
"423 221 CURVE SMOOTH",
"423 164 OFFCURVE",
"392 141 OFFCURVE",
"306 141 CURVE SMOOTH"
);
}
);
width = 621;
},
{
anchors = (
{
name = bottom;
position = "{339, 0}";
},
{
name = top;
position = "{339, 740}";
}
);
background = {
paths = (
{
closed = 1;
nodes = (
"139 0 LINE",
"139 266 LINE",
"189 261 OFFCURVE",
"227 259 OFFCURVE",
"275 259 CURVE SMOOTH",
"506 259 OFFCURVE",
"601 348 OFFCURVE",
"601 505 CURVE SMOOTH",
"601 673 OFFCURVE",
"494 747 OFFCURVE",
"302 747 CURVE SMOOTH",
"231 747 OFFCURVE",
"175 741 OFFCURVE",
"105 727 CURVE",
"105 0 LINE"
);
},
{
closed = 1;
nodes = (
"223 292 OFFCURVE",
"182 295 OFFCURVE",
"139 301 CURVE",
"139 700 LINE",
"187 709 OFFCURVE",
"238 714 OFFCURVE",
"302 714 CURVE SMOOTH",
"476 714 OFFCURVE",
"565 650 OFFCURVE",
"565 504 CURVE SMOOTH",
"565 365 OFFCURVE",
"485 292 OFFCURVE",
"275 292 CURVE SMOOTH"
);
}
);
};
color = -1;
layerId = "E28BEEB5-BD92-4E7A-B4EA-FC5E5BBBF580";
paths = (
{
closed = 1;
nodes = (
"533 -5 OFFCURVE",
"622 66 OFFCURVE",
"622 200 CURVE SMOOTH",
"622 299 OFFCURVE",
"568 372 OFFCURVE",
"433 385 CURVE",
"430 377 LINE",
"552 393 OFFCURVE",
"600 460 OFFCURVE",
"600 553 CURVE SMOOTH",
"600 682 OFFCURVE",
"516 747 OFFCURVE",
"316 747 CURVE SMOOTH",
"231 747 OFFCURVE",
"175 741 OFFCURVE",
"105 727 CURVE",
"105 8 LINE",
"182 -2 OFFCURVE",
"231 -5 OFFCURVE",
"298 -5 CURVE SMOOTH"
);
},
{
closed = 1;
nodes = (
"234 28 OFFCURVE",
"188 31 OFFCURVE",
"139 39 CURVE",
"139 700 LINE",
"187 709 OFFCURVE",
"238 714 OFFCURVE",
"317 714 CURVE SMOOTH",
"494 714 OFFCURVE",
"566 668 OFFCURVE",
"566 553 CURVE SMOOTH",
"566 443 OFFCURVE",
"493 397 OFFCURVE",
"347 397 CURVE SMOOTH",
"131 397 LINE",
"131 364 LINE",
"354 364 LINE SMOOTH",
"511 364 OFFCURVE",
"587 315 OFFCURVE",
"587 202 CURVE SMOOTH",
"587 87 OFFCURVE",
"521 28 OFFCURVE",
"299 28 CURVE SMOOTH"
);
}
);
width = 665;
},
{
anchors = (
{
name = bottom;
position = "{396, 0}";
},
{
name = top;
position = "{396, 740}";
}
);
background = {
paths = (
{
closed = 1;
nodes = (
"634 -10 OFFCURVE",
"733 72 OFFCURVE",
"733 205 CURVE SMOOTH",
"733 320 OFFCURVE",
"657 370 OFFCURVE",
"594 384 CURVE",
"594 378 LINE",
"656 396 OFFCURVE",
"714 462 OFFCURVE",
"714 545 CURVE SMOOTH",
"714 682 OFFCURVE",
"611 750 OFFCURVE",
"356 750 CURVE SMOOTH",
"262 750 OFFCURVE",
"143 735 OFFCURVE",
"64 716 CURVE",
"64 6 LINE",
"133 -3 OFFCURVE",
"243 -10 OFFCURVE",
"320 -10 CURVE SMOOTH"
);
},
{
closed = 1;
nodes = (
"351 154 OFFCURVE",
"327 154 OFFCURVE",
"297 156 CURVE",
"297 581 LINE",
"325 586 OFFCURVE",
"350 588 OFFCURVE",
"380 588 CURVE SMOOTH",
"462 588 OFFCURVE",
"491 566 OFFCURVE",
"491 523 CURVE SMOOTH",
"491 484 OFFCURVE",
"463 460 OFFCURVE",
"389 460 CURVE SMOOTH",
"271 460 LINE",
"271 295 LINE",
"409 295 LINE SMOOTH",
"490 295 OFFCURVE",
"517 272 OFFCURVE",
"517 225 CURVE SMOOTH",
"517 178 OFFCURVE",
"486 154 OFFCURVE",
"376 154 CURVE SMOOTH"
);
}
);
};
color = -1;
layerId = "1E90A949-97C4-49F5-AA9A-AF35B6FD63CF";
paths = (
{
closed = 1;
nodes = (
"634 -10 OFFCURVE",
"733 78 OFFCURVE",
"733 215 CURVE SMOOTH",
"733 318 OFFCURVE",
"669 371 OFFCURVE",
"589 384 CURVE",
"589 378 LINE",
"660 394 OFFCURVE",
"714 455 OFFCURVE",
"714 535 CURVE SMOOTH",
"714 672 OFFCURVE",
"611 750 OFFCURVE",
"353 750 CURVE SMOOTH",
"262 750 OFFCURVE",
"143 735 OFFCURVE",
"64 716 CURVE",
"64 6 LINE",
"133 -3 OFFCURVE",
"243 -10 OFFCURVE",
"310 -10 CURVE SMOOTH"
);
},
{
closed = 1;
nodes = (
"351 152 OFFCURVE",
"327 152 OFFCURVE",
"297 155 CURVE",
"297 579 LINE",
"321 584 OFFCURVE",
"352 588 OFFCURVE",
"380 588 CURVE SMOOTH",
"464 588 OFFCURVE",
"491 566 OFFCURVE",
"491 524 CURVE SMOOTH",
"491 484 OFFCURVE",
"465 460 OFFCURVE",
"389 460 CURVE SMOOTH",
"271 460 LINE",
"271 295 LINE",
"409 295 LINE SMOOTH",
"492 295 OFFCURVE",
"517 272 OFFCURVE",
"517 223 CURVE SMOOTH",
"517 178 OFFCURVE",
"488 152 OFFCURVE",
"376 152 CURVE SMOOTH"
);
}
);
width = 759;
}
);
leftKerningGroup = KERN_I_2ND;
leftMetricsKey = H;
unicode = 0042;
userData = {
com.typemytype.robofont.layerData = {
};
};
},
{
glyphname = C;
lastChange = "2016-12-08 16:06:02 +0000";
layers = (
{
anchors = (
{
name = bottom;
position = "{299, 0}";
},
{
name = top;
position = "{294, 760}";
}
);
background = {
paths = (
{
closed = 1;
nodes = (
"970 -9 OFFCURVE",
"1017 2 OFFCURVE",
"1056 16 CURVE",
"1056 50 LINE",
"1005 32 OFFCURVE",
"964 24 OFFCURVE",
"916 24 CURVE SMOOTH",
"773 24 OFFCURVE",
"685 100 OFFCURVE",
"685 371 CURVE SMOOTH",
"685 635 OFFCURVE",
"769 716 OFFCURVE",
"920 716 CURVE SMOOTH",
"965 716 OFFCURVE",
"1006 712 OFFCURVE",
"1056 695 CURVE",
"1056 729 LINE",
"1013 742 OFFCURVE",
"967 749 OFFCURVE",
"924 749 CURVE SMOOTH",
"750 749 OFFCURVE",
"649 652 OFFCURVE",
"649 369 CURVE SMOOTH",
"649 82 OFFCURVE",
"753 -9 OFFCURVE",
"917 -9 CURVE SMOOTH"
);
},
{
closed = 1;
nodes = (
"437 -9 OFFCURVE",
"533 91 OFFCURVE",
"533 370 CURVE SMOOTH",
"533 649 OFFCURVE",
"439 749 OFFCURVE",
"291 749 CURVE SMOOTH",
"143 749 OFFCURVE",
"49 649 OFFCURVE",
"49 370 CURVE SMOOTH",
"49 91 OFFCURVE",
"145 -9 OFFCURVE",
"291 -9 CURVE SMOOTH"
);
},
{
closed = 1;
nodes = (
"167 24 OFFCURVE",
"85 103 OFFCURVE",
"85 372 CURVE SMOOTH",
"85 637 OFFCURVE",
"167 716 OFFCURVE",
"291 716 CURVE SMOOTH",
"415 716 OFFCURVE",
"497 637 OFFCURVE",
"497 368 CURVE SMOOTH",
"497 103 OFFCURVE",
"415 24 OFFCURVE",
"291 24 CURVE SMOOTH"
);
}
);
};
color = -1;
layerId = "ECFF4977-BDCC-4836-B4AC-1801CF0EB460";
paths = (
{
closed = 1;
nodes = (
"370 -9 OFFCURVE",
"417 2 OFFCURVE",
"456 16 CURVE",
"456 50 LINE",
"405 32 OFFCURVE",
"364 24 OFFCURVE",
"316 24 CURVE SMOOTH",
"173 24 OFFCURVE",
"85 100 OFFCURVE",
"85 371 CURVE SMOOTH",
"85 635 OFFCURVE",
"169 716 OFFCURVE",
"320 716 CURVE SMOOTH",
"365 716 OFFCURVE",
"406 712 OFFCURVE",
"456 695 CURVE",
"456 729 LINE",
"413 742 OFFCURVE",
"367 749 OFFCURVE",
"324 749 CURVE SMOOTH",
"150 749 OFFCURVE",
"49 652 OFFCURVE",
"49 369 CURVE SMOOTH",
"49 82 OFFCURVE",
"153 -9 OFFCURVE",
"317 -9 CURVE SMOOTH"
);
}
);
width = 462;
},
{
anchors = (
{
name = bottom;
position = "{344, 0}";
},
{
name = top;
position = "{344, 760}";
}
);
background = {
paths = (
{
closed = 1;
nodes = (
"439 -10 OFFCURVE",
"495 -1 OFFCURVE",
"533 15 CURVE",
"533 179 LINE",
"485 162 OFFCURVE",
"446 155 OFFCURVE",
"413 155 CURVE SMOOTH",
"293 155 OFFCURVE",
"230 210 OFFCURVE",
"230 370 CURVE SMOOTH",
"230 525 OFFCURVE",
"300 585 OFFCURVE",
"423 585 CURVE SMOOTH",
"455 585 OFFCURVE",
"495 578 OFFCURVE",
"533 568 CURVE",
"533 732 LINE",
"494 744 OFFCURVE",
"446 750 OFFCURVE",
"397 750 CURVE SMOOTH",
"164 750 OFFCURVE",
"25 615 OFFCURVE",
"25 368 CURVE SMOOTH",
"25 106 OFFCURVE",
"165 -10 OFFCURVE",
"394 -10 CURVE SMOOTH"
);
}
);
};
color = -1;
layerId = "C8FFBC04-9D7C-494A-A42D-BACB8E26599D";
paths = (
{
closed = 1;
nodes = (
"437 -10 OFFCURVE",
"496 -1 OFFCURVE",
"534 14 CURVE",
"534 178 LINE",
"489 164 OFFCURVE",
"447 155 OFFCURVE",
"414 155 CURVE SMOOTH",
"289 155 OFFCURVE",
"232 205 OFFCURVE",
"232 370 CURVE SMOOTH",
"232 530 OFFCURVE",
"293 585 OFFCURVE",
"414 585 CURVE SMOOTH",
"456 585 OFFCURVE",
"496 579 OFFCURVE",
"534 571 CURVE",
"534 735 LINE",
"492 745 OFFCURVE",
"444 750 OFFCURVE",
"396 750 CURVE SMOOTH",
"165 750 OFFCURVE",
"27 627 OFFCURVE",
"27 368 CURVE SMOOTH",
"27 99 OFFCURVE",
"159 -10 OFFCURVE",
"385 -10 CURVE SMOOTH"
);
}
);
width = 551;
},
{
anchors = (
{
name = bottom;
position = "{387, 0}";
},
{
name = top;
position = "{377, 760}";
}
);
background = {
paths = (
{
closed = 1;
nodes = (
"482 -9 OFFCURVE",
"544 1 OFFCURVE",
"606 24 CURVE",
"606 58 LINE",
"532 32 OFFCURVE",
"476 24 OFFCURVE",
"410 24 CURVE SMOOTH",
"227 24 OFFCURVE",
"102 109 OFFCURVE",
"102 371 CURVE SMOOTH",
"102 619 OFFCURVE",
"221 716 OFFCURVE",
"417 716 CURVE SMOOTH",
"482 716 OFFCURVE",
"546 706 OFFCURVE",
"606 688 CURVE",
"606 722 LINE",
"545 740 OFFCURVE",
"489 749 OFFCURVE",
"418 749 CURVE SMOOTH",
"202 749 OFFCURVE",
"66 632 OFFCURVE",
"66 369 CURVE SMOOTH",
"66 91 OFFCURVE",
"209 -9 OFFCURVE",
"409 -9 CURVE SMOOTH"
);
}
);
};
color = -1;
layerId = "E28BEEB5-BD92-4E7A-B4EA-FC5E5BBBF580";
paths = (
{
closed = 1;
nodes = (
"482 -9 OFFCURVE",
"544 1 OFFCURVE",
"606 24 CURVE",
"606 58 LINE",
"532 32 OFFCURVE",
"476 24 OFFCURVE",
"410 24 CURVE SMOOTH",
"227 24 OFFCURVE",
"102 109 OFFCURVE",
"102 371 CURVE SMOOTH",
"102 619 OFFCURVE",
"221 716 OFFCURVE",
"417 716 CURVE SMOOTH",
"482 716 OFFCURVE",
"546 706 OFFCURVE",
"606 688 CURVE",
"606 722 LINE",
"545 740 OFFCURVE",
"489 749 OFFCURVE",
"418 749 CURVE SMOOTH",
"205 749 OFFCURVE",
"66 636 OFFCURVE",
"66 369 CURVE SMOOTH",
"66 88 OFFCURVE",
"212 -9 OFFCURVE",
"409 -9 CURVE SMOOTH"
);
}
);
width = 630;
},
{
anchors = (
{
name = bottom;
position = "{439, 0}";
},
{
name = top;
position = "{439, 760}";
}
);
background = {
paths = (
{
closed = 1;
nodes = (
"587 -10 OFFCURVE",
"653 -2 OFFCURVE",
"707 10 CURVE",
"707 198 LINE",
"658 188 OFFCURVE",
"600 180 OFFCURVE",
"538 180 CURVE SMOOTH",
"361 180 OFFCURVE",
"289 248 OFFCURVE",
"289 370 CURVE SMOOTH",
"289 492 OFFCURVE",
"361 560 OFFCURVE",
"548 560 CURVE SMOOTH",
"606 560 OFFCURVE",
"658 555 OFFCURVE",
"707 546 CURVE",
"707 734 LINE",
"650 745 OFFCURVE",
"591 750 OFFCURVE",
"528 750 CURVE SMOOTH",
"207 750 OFFCURVE",
"41 601 OFFCURVE",
"41 368 CURVE SMOOTH",
"41 121 OFFCURVE",
"204 -10 OFFCURVE",
"523 -10 CURVE SMOOTH"
);
}
);
};
color = -1;
layerId = "1E90A949-97C4-49F5-AA9A-AF35B6FD63CF";
paths = (
{
closed = 1;
nodes = (
"587 -10 OFFCURVE",
"653 -2 OFFCURVE",
"707 10 CURVE",
"707 198 LINE",
"658 188 OFFCURVE",
"600 180 OFFCURVE",
"538 180 CURVE SMOOTH",
"361 180 OFFCURVE",
"289 248 OFFCURVE",
"289 370 CURVE SMOOTH",
"289 492 OFFCURVE",
"361 560 OFFCURVE",
"548 560 CURVE SMOOTH",
"606 560 OFFCURVE",
"658 555 OFFCURVE",
"707 546 CURVE",
"707 734 LINE",
"650 745 OFFCURVE",
"591 750 OFFCURVE",
"528 750 CURVE SMOOTH",
"206 750 OFFCURVE",
"41 601 OFFCURVE",
"41 368 CURVE SMOOTH",
"41 121 OFFCURVE",
"203 -10 OFFCURVE",
"523 -10 CURVE SMOOTH"
);
}
);
width = 742;
}
);
leftKerningGroup = KERN_O_2ND;
leftMetricsKey = O;
rightKerningGroup = KERN_C_1ST;
unicode = 0043;
userData = {
com.typemytype.robofont.layerData = {
};
};
},
{
glyphname = D;
lastChange = "2016-12-08 16:06:02 +0000";
layers = (
{
anchors = (
{
name = bottom;
position = "{258, 0}";
},
{
name = center;
position = "{289, 370}";
},
{
name = stroke;
position = "{82, 381}";
},
{
name = top;
position = "{258, 760}";
}
);
background = {
paths = (
{
closed = 1;
nodes = (
"116 0 LINE",
"116 263 LINE",
"145 260 OFFCURVE",
"173 259 OFFCURVE",
"204 259 CURVE SMOOTH",
"395 259 OFFCURVE",
"481 343 OFFCURVE",
"481 502 CURVE SMOOTH",
"481 670 OFFCURVE",
"395 747 OFFCURVE",
"225 747 CURVE SMOOTH",
"174 747 OFFCURVE",
"125 741 OFFCURVE",
"82 734 CURVE",
"82 0 LINE"
);
},
{
closed = 1;
nodes = (
"176 292 OFFCURVE",
"146 293 OFFCURVE",
"116 297 CURVE",
"116 706 LINE",
"151 711 OFFCURVE",
"187 714 OFFCURVE",
"225 714 CURVE SMOOTH",
"375 714 OFFCURVE",
"445 650 OFFCURVE",
"445 500 CURVE SMOOTH",
"445 359 OFFCURVE",
"370 292 OFFCURVE",
"207 292 CURVE SMOOTH"
);
}
);
};
color = -1;
layerId = "ECFF4977-BDCC-4836-B4AC-1801CF0EB460";
paths = (
{
closed = 1;
nodes = (
"417 -5 OFFCURVE",
"529 103 OFFCURVE",
"529 370 CURVE SMOOTH",
"529 629 OFFCURVE",
"426 747 OFFCURVE",
"221 747 CURVE SMOOTH",
"174 747 OFFCURVE",
"125 741 OFFCURVE",
"82 734 CURVE",
"82 2 LINE",
"134 -3 OFFCURVE",
"169 -5 OFFCURVE",
"207 -5 CURVE SMOOTH"
);
},
{
closed = 1;
nodes = (
"177 28 OFFCURVE",
"149 29 OFFCURVE",
"116 33 CURVE",
"116 706 LINE",
"151 711 OFFCURVE",
"187 714 OFFCURVE",
"219 714 CURVE SMOOTH",
"408 714 OFFCURVE",
"493 612 OFFCURVE",
"493 370 CURVE SMOOTH",
"493 123 OFFCURVE",
"399 28 OFFCURVE",
"208 28 CURVE SMOOTH"
);
}
);
width = 578;
},
{
anchors = (
{
name = bottom;
position = "{319, 0}";
},
{
name = center;
position = "{326, 370}";
},
{
name = stroke;
position = "{44, 381}";
},
{
name = top;
position = "{309, 760}";
}
);
background = {
paths = (
{
closed = 1;
nodes = (
"239 0 LINE",
"239 198 LINE",
"256 198 OFFCURVE",
"268 197 OFFCURVE",
"288 197 CURVE SMOOTH",
"478 197 OFFCURVE",
"585 290 OFFCURVE",
"585 473 CURVE SMOOTH",
"585 665 OFFCURVE",
"477 750 OFFCURVE",
"264 750 CURVE SMOOTH",
"184 750 OFFCURVE",
"111 740 OFFCURVE",
"43 725 CURVE",
"43 0 LINE"
);
},
{
closed = 1;
nodes = (
"268 354 OFFCURVE",
"254 355 OFFCURVE",
"239 357 CURVE",
"239 589 LINE",
"252 592 OFFCURVE",
"263 593 OFFCURVE",
"283 593 CURVE SMOOTH",
"359 593 OFFCURVE",
"395 557 OFFCURVE",
"395 471 CURVE SMOOTH",
"395 385 OFFCURVE",
"359 354 OFFCURVE",
"288 354 CURVE SMOOTH"
);
}
);
};
color = -1;
layerId = "C8FFBC04-9D7C-494A-A42D-BACB8E26599D";
paths = (
{
closed = 1;
nodes = (
"507 -10 OFFCURVE",
"639 106 OFFCURVE",
"639 370 CURVE SMOOTH",
"639 632 OFFCURVE",
"514 750 OFFCURVE",
"263 750 CURVE SMOOTH",
"185 750 OFFCURVE",
"112 740 OFFCURVE",
"44 725 CURVE",
"44 1 LINE",
"104 -6 OFFCURVE",
"174 -10 OFFCURVE",
"236 -10 CURVE SMOOTH"
);
},
{
closed = 1;
nodes = (
"279 153 OFFCURVE",
"262 153 OFFCURVE",
"240 154 CURVE",
"240 583 LINE",
"252 586 OFFCURVE",
"273 588 OFFCURVE",
"287 588 CURVE SMOOTH",
"380 588 OFFCURVE",
"439 539 OFFCURVE",
"439 370 CURVE SMOOTH",
"439 202 OFFCURVE",
"384 153 OFFCURVE",
"290 153 CURVE SMOOTH"
);
}
);
width = 666;
},
{
anchors = (
{
name = bottom;
position = "{350, 0}";
},
{
name = center;
position = "{379, 370}";
},
{
name = stroke;
position = "{105, 381}";
},
{
name = top;
position = "{350, 760}";
}
);
background = {
paths = (
{
closed = 1;
nodes = (
"559 -5 OFFCURVE",
"693 119 OFFCURVE",
"693 370 CURVE SMOOTH",
"693 621 OFFCURVE",
"559 747 OFFCURVE",
"305 747 CURVE SMOOTH",
"244 747 OFFCURVE",
"175 741 OFFCURVE",
"105 727 CURVE",
"105 8 LINE",
"182 -2 OFFCURVE",
"231 -5 OFFCURVE",
"298 -5 CURVE SMOOTH"
);
},
{
closed = 1;
nodes = (
"229 28 OFFCURVE",
"182 32 OFFCURVE",
"139 39 CURVE",
"139 699 LINE",
"198 709 OFFCURVE",
"250 714 OFFCURVE",
"302 714 CURVE SMOOTH",
"537 714 OFFCURVE",
"657 604 OFFCURVE",
"657 370 CURVE SMOOTH",
"657 136 OFFCURVE",
"537 28 OFFCURVE",
"299 28 CURVE SMOOTH"
);
}
);
};
color = -1;
layerId = "E28BEEB5-BD92-4E7A-B4EA-FC5E5BBBF580";
paths = (
{
closed = 1;
nodes = (
"559 -5 OFFCURVE",
"693 119 OFFCURVE",
"693 370 CURVE SMOOTH",
"693 621 OFFCURVE",
"559 747 OFFCURVE",
"305 747 CURVE SMOOTH",
"244 747 OFFCURVE",
"172 741 OFFCURVE",
"105 727 CURVE",
"105 8 LINE",
"182 -2 OFFCURVE",
"231 -5 OFFCURVE",
"298 -5 CURVE SMOOTH"
);
},
{
closed = 1;
nodes = (
"229 28 OFFCURVE",
"182 32 OFFCURVE",
"139 39 CURVE",
"139 700 LINE",
"198 709 OFFCURVE",
"250 714 OFFCURVE",
"302 714 CURVE SMOOTH",
"537 714 OFFCURVE",
"657 604 OFFCURVE",
"657 370 CURVE SMOOTH",
"657 136 OFFCURVE",
"537 28 OFFCURVE",
"299 28 CURVE SMOOTH"
);
}
);
width = 759;
},
{
anchors = (
{
name = bottom;
position = "{396, 0}";
},
{
name = center;
position = "{442, 370}";
},
{
name = stroke;
position = "{64, 381}";
},
{
name = top;
position = "{386, 760}";
}
);
background = {
paths = (
{
closed = 1;
nodes = (
"680 -7 OFFCURVE",
"856 99 OFFCURVE",
"856 370 CURVE SMOOTH",
"856 629 OFFCURVE",
"689 747 OFFCURVE",
"369 747 CURVE SMOOTH",
"269 747 OFFCURVE",
"145 735 OFFCURVE",
"64 716 CURVE",
"64 7 LINE",
"144 -3 OFFCURVE",
"246 -7 OFFCURVE",
"315 -7 CURVE SMOOTH"
);
},
{
closed = 1;
nodes = (
"351 179 OFFCURVE",
"326 179 OFFCURVE",
"302 181 CURVE",
"302 554 LINE",
"324 558 OFFCURVE",
"357 562 OFFCURVE",
"380 562 CURVE SMOOTH",
"540 562 OFFCURVE",
"617 504 OFFCURVE",
"617 372 CURVE SMOOTH",
"617 236 OFFCURVE",
"545 179 OFFCURVE",
"380 179 CURVE SMOOTH"
);
}
);
};
color = -1;
layerId = "1E90A949-97C4-49F5-AA9A-AF35B6FD63CF";
paths = (
{
closed = 1;
nodes = (
"680 -7 OFFCURVE",
"857 99 OFFCURVE",
"857 370 CURVE SMOOTH",
"857 629 OFFCURVE",
"689 747 OFFCURVE",
"369 747 CURVE SMOOTH",
"269 747 OFFCURVE",
"145 735 OFFCURVE",
"64 716 CURVE",
"64 7 LINE",
"144 -3 OFFCURVE",
"246 -7 OFFCURVE",
"315 -7 CURVE SMOOTH"
);
},
{
closed = 1;
nodes = (
"351 178 OFFCURVE",
"326 178 OFFCURVE",
"302 180 CURVE",
"302 556 LINE",
"324 560 OFFCURVE",
"357 563 OFFCURVE",
"380 563 CURVE SMOOTH",
"540 563 OFFCURVE",
"617 505 OFFCURVE",
"617 372 CURVE SMOOTH",
"617 235 OFFCURVE",
"545 178 OFFCURVE",
"380 178 CURVE SMOOTH"
);
}
);
width = 898;
}
);
leftKerningGroup = KERN_I_2ND;
leftMetricsKey = H;
rightKerningGroup = KERN_D_1ST;
rightMetricsKey = O;
unicode = 0044;
userData = {
com.typemytype.robofont.layerData = {
};
};
},
{
glyphname = Eth;
lastChange = "2016-12-08 16:06:02 +0000";
layers = (
{
background = {
components = (
{
name = D;
transform = "{1, 0, 0, 1, 20, 0}";
}
);
paths = (
{
closed = 1;
nodes = (
"11 351 LINE",
"298 351 LINE",
"298 385 LINE",
"11 385 LINE"
);
}
);
};
color = -1;
components = (
{
alignment = 1;
name = D;
},
{
name = strokeshortcomb.D;
transform = "{1, 0, 0, 1, -148, -159}";
}
);
layerId = "ECFF4977-BDCC-4836-B4AC-1801CF0EB460";
width = 578;
},
{
background = {
components = (
{
name = D;
transform = "{1, 0, 0, 1, 10, 0}";
}
);
paths = (
{
closed = 1;
nodes = (
"322 301 LINE",
"322 446 LINE",
"-19 446 LINE",
"-19 301 LINE"
);
}
);
};
color = -1;
components = (
{
alignment = 1;
name = D;
},
{
name = strokeshortcomb.D;
transform = "{1, 0, 0, 1, -124, -169}";
}
);
layerId = "C8FFBC04-9D7C-494A-A42D-BACB8E26599D";
width = 666;
},
{
background = {
components = (
{
name = D;
},
{
name = strokeshortcomb.h;
transform = "{1, 0, 0, 1, -192, -158}";
}
);
};
color = -1;
components = (
{
alignment = 1;
name = D;
},
{
name = strokeshortcomb.D;
transform = "{1, 0, 0, 1, -115, -159}";
}
);
layerId = "E28BEEB5-BD92-4E7A-B4EA-FC5E5BBBF580";
width = 759;
},
{
background = {
components = (
{
name = D;
transform = "{1, 0, 0, 1, 10, 0}";
}
);
paths = (
{
closed = 1;
nodes = (
"-13 288 LINE",
"408 288 LINE",
"408 462 LINE",
"-13 462 LINE"
);
}
);
};
color = -1;
components = (
{
alignment = 1;
name = D;
},
{
name = strokeshortcomb.D;
transform = "{1, 0, 0, 1, -100, -169}";
}
);
layerId = "1E90A949-97C4-49F5-AA9A-AF35B6FD63CF";
width = 898;
}
);
leftKerningGroup = KERN_I_2ND;
widthMetricsKey = "=D+10";
rightKerningGroup = KERN_D_1ST;
rightMetricsKey = O;
unicode = 00D0;
},
{
glyphname = E;
lastChange = "2016-12-08 16:06:02 +0000";
layers = (
{
anchors = (
{
name = bottom;
position = "{278, 0}";
},
{
name = ogonek;
position = "{416, 0}";
},
{
name = top;
position = "{278, 760}";
},
{
name = topleft;
position = "{18, 740}";
}
);
background = {
anchors = (
{
name = bottom;
position = "{278, 0}";
},
{
name = ogonek;
position = "{449, 0}";
},
{
name = topUC;
position = "{258, 760}";
}
);
paths = (
{
closed = 1;
nodes = (
"116 0 LINE",
"116 364 LINE",
"494 364 LINE",
"494 0 LINE",
"528 0 LINE",
"528 740 LINE",
"494 740 LINE",
"494 397 LINE",
"116 397 LINE",
"116 740 LINE",
"82 740 LINE",
"82 0 LINE"
);
}
);
};
color = -1;
layerId = "ECFF4977-BDCC-4836-B4AC-1801CF0EB460";
paths = (
{
closed = 1;
nodes = (
"456 0 LINE",
"456 33 LINE",
"116 33 LINE",
"116 707 LINE",
"451 707 LINE",
"451 740 LINE",
"82 740 LINE",
"82 0 LINE"
);
},
{
closed = 1;
nodes = (
"406 364 LINE",
"406 397 LINE",
"112 397 LINE",
"112 364 LINE"
);
}
);
width = 473;
},
{
anchors = (
{
name = bottom;
position = "{298, 0}";
},
{
name = ogonek;
position = "{495, 0}";
},
{
name = top;
position = "{298, 760}";
},
{
name = topleft;
position = "{18, 740}";
}
);
background = {
paths = (
{
closed = 1;
nodes = (
"239 0 LINE",
"239 288 LINE",
"442 288 LINE",
"442 0 LINE",
"638 0 LINE",
"638 740 LINE",
"442 740 LINE",
"442 467 LINE",
"239 467 LINE",
"239 740 LINE",
"43 740 LINE",
"43 0 LINE"
);
}
);
};
color = -1;
layerId = "C8FFBC04-9D7C-494A-A42D-BACB8E26599D";
paths = (
{
closed = 1;
nodes = (
"535 0 LINE",
"535 169 LINE",
"237 169 LINE",
"237 571 LINE",
"530 571 LINE",
"530 740 LINE",
"44 740 LINE",
"44 0 LINE"
);
},
{
closed = 1;
nodes = (
"478 294 LINE",
"478 461 LINE",
"183 461 LINE",
"183 294 LINE"
);
}
);
width = 564;
},
{
anchors = (
{
name = bottom;
position = "{355, 0}";
},
{
name = ogonek;
position = "{545, 0}";
},
{
name = top;
position = "{353, 760}";
},
{
name = topleft;
position = "{20, 740}";
}
);
background = {
anchors = (
{
name = bottom;
position = "{345, 0}";
},
{
name = ogonek;
position = "{545, 0}";
},
{
name = top;
position = "{343, 760}";
},
{
name = topleft;
position = "{20, 740}";
}
);
paths = (
{
closed = 1;
nodes = (
"139 0 LINE",
"139 364 LINE",
"643 364 LINE",
"643 0 LINE",
"677 0 LINE",
"677 740 LINE",
"643 740 LINE",
"643 397 LINE",
"139 397 LINE",
"139 740 LINE",
"105 740 LINE",
"105 0 LINE"
);
}
);
};
color = -1;
layerId = "E28BEEB5-BD92-4E7A-B4EA-FC5E5BBBF580";
paths = (
{
closed = 1;
nodes = (
"585 0 LINE",
"585 33 LINE",
"139 33 LINE",
"139 707 LINE",
"580 707 LINE",
"580 740 LINE",
"105 740 LINE",
"105 0 LINE"
);
},
{
closed = 1;
nodes = (
"530 364 LINE",
"530 397 LINE",
"125 397 LINE",
"125 364 LINE"
);
}
);
width = 636;
},
{
anchors = (
{
name = bottom;
position = "{393, 0}";
},
{
name = ogonek;
position = "{655, 0}";
},
{
name = top;
position = "{393, 760}";
},
{
name = topleft;
position = "{19, 740}";
}
);
background = {
paths = (
{
closed = 1;
nodes = (
"705 0 LINE",
"705 180 LINE",
"299 180 LINE",
"299 560 LINE",
"700 560 LINE",
"700 740 LINE",
"64 740 LINE",
"64 0 LINE"
);
},
{
closed = 1;
nodes = (
"647 290 LINE",
"647 465 LINE",
"178 465 LINE",
"178 290 LINE"
);
}
);
};
color = -1;
layerId = "1E90A949-97C4-49F5-AA9A-AF35B6FD63CF";
paths = (
{
closed = 1;
nodes = (
"705 0 LINE",
"705 177 LINE",
"299 177 LINE",
"299 563 LINE",
"700 563 LINE",
"700 740 LINE",
"64 740 LINE",
"64 0 LINE"
);
},
{
closed = 1;
nodes = (
"647 290 LINE",
"647 465 LINE",
"178 465 LINE",
"178 290 LINE"
);
}
);
width = 747;
}
);
leftKerningGroup = KERN_I_2ND;
leftMetricsKey = H;
rightKerningGroup = KERN_E_1ST;
unicode = 0045;
userData = {
com.typemytype.robofont.layerData = {
};
};
},
{
glyphname = F;
lastChange = "2016-12-08 16:06:02 +0000";
layers = (
{
background = {
paths = (
{
closed = 1;
nodes = (
"456 0 LINE",
"456 33 LINE",
"116 33 LINE",
"116 707 LINE",
"451 707 LINE",
"451 740 LINE",
"82 740 LINE",
"82 0 LINE"
);
},
{
closed = 1;
nodes = (
"406 364 LINE",
"406 397 LINE",
"112 397 LINE",
"112 364 LINE"
);
}
);
};
color = -1;
layerId = "ECFF4977-BDCC-4836-B4AC-1801CF0EB460";
paths = (
{
closed = 1;
nodes = (
"116 0 LINE",
"116 707 LINE",
"446 707 LINE",
"446 740 LINE",
"82 740 LINE",
"82 0 LINE"
);
},
{
closed = 1;
nodes = (
"401 364 LINE",
"401 397 LINE",
"112 397 LINE",
"112 364 LINE"
);
}
);
width = 455;
},
{
background = {
paths = (
{
closed = 1;
nodes = (
"534 0 LINE",
"534 169 LINE",
"236 169 LINE",
"236 571 LINE",
"529 571 LINE",
"529 740 LINE",
"43 740 LINE",
"43 0 LINE"
);
},
{
closed = 1;
nodes = (
"477 295 LINE",
"477 460 LINE",
"182 460 LINE",
"182 295 LINE"
);
}
);
};
color = -1;
layerId = "C8FFBC04-9D7C-494A-A42D-BACB8E26599D";
paths = (
{
closed = 1;
nodes = (
"240 0 LINE",
"240 567 LINE",
"530 567 LINE",
"530 740 LINE",
"44 740 LINE",
"44 0 LINE"
);
},
{
closed = 1;
nodes = (
"481 267 LINE",
"481 440 LINE",
"183 440 LINE",
"183 267 LINE"
);
}
);
width = 535;
},
{
background = {
anchors = (
{
name = bottom;
position = "{303, 0}";
},
{
name = top;
position = "{303, 740}";
}
);
paths = (
{
closed = 1;
nodes = (
"139 0 LINE",
"139 707 LINE",
"575 707 LINE",
"575 740 LINE",
"105 740 LINE",
"105 0 LINE"
);
},
{
closed = 1;
nodes = (
"525 364 LINE",
"525 397 LINE",
"135 397 LINE",
"135 364 LINE"
);
}
);
};
color = -1;
layerId = "E28BEEB5-BD92-4E7A-B4EA-FC5E5BBBF580";
paths = (
{
closed = 1;
nodes = (
"139 0 LINE",
"139 707 LINE",
"575 707 LINE",
"575 740 LINE",
"105 740 LINE",
"105 0 LINE"
);
},
{
closed = 1;
nodes = (
"525 364 LINE",
"525 397 LINE",
"135 397 LINE",
"135 364 LINE"
);
}
);
width = 613;
},
{
background = {
paths = (
{
closed = 1;
nodes = (
"302 0 LINE",
"302 556 LINE",
"700 556 LINE",
"700 740 LINE",
"64 740 LINE",
"64 0 LINE"
);
},
{
closed = 1;
nodes = (
"644 265 LINE",
"644 445 LINE",
"194 445 LINE",
"194 265 LINE"
);
}
);
};
color = -1;
layerId = "1E90A949-97C4-49F5-AA9A-AF35B6FD63CF";
paths = (
{
closed = 1;
nodes = (
"302 0 LINE",
"302 556 LINE",
"700 556 LINE",
"700 740 LINE",
"64 740 LINE",
"64 0 LINE"
);
},
{
closed = 1;
nodes = (
"644 261 LINE",
"644 445 LINE",
"194 445 LINE",
"194 261 LINE"
);
}
);
width = 735;
}
);
leftKerningGroup = KERN_I_2ND;
leftMetricsKey = H;
unicode = 0046;
userData = {
com.typemytype.robofont.layerData = {
};
};
},
{
glyphname = G;
lastChange = "2016-12-08 16:06:02 +0000";
layers = (
{
anchors = (
{
name = bottom;
position = "{309, 0}";
},
{
name = top;
position = "{309, 760}";
}
);
background = {
paths = (
{
closed = 1;
nodes = (
"405 -5 OFFCURVE",
"440 -2 OFFCURVE",
"489 7 CURVE",
"489 360 LINE",
"455 360 LINE",
"455 20 LINE",
"466 38 LINE",
"434 31 OFFCURVE",
"401 28 OFFCURVE",
"366 28 CURVE SMOOTH",
"175 28 OFFCURVE",
"85 106 OFFCURVE",
"85 369 CURVE SMOOTH",
"85 636 OFFCURVE",
"180 716 OFFCURVE",
"339 716 CURVE SMOOTH",
"385 716 OFFCURVE",
"430 711 OFFCURVE",
"480 695 CURVE",
"480 729 LINE",
"437 742 OFFCURVE",
"387 749 OFFCURVE",
"342 749 CURVE SMOOTH",
"161 749 OFFCURVE",
"49 654 OFFCURVE",
"49 369 CURVE SMOOTH",
"49 87 OFFCURVE",
"155 -5 OFFCURVE",
"365 -5 CURVE SMOOTH"
);
}
);
};
color = -1;
layerId = "ECFF4977-BDCC-4836-B4AC-1801CF0EB460";
paths = (
{
closed = 1;
nodes = (
"405 -5 OFFCURVE",
"440 -2 OFFCURVE",
"489 7 CURVE",
"489 360 LINE",
"455 360 LINE",
"455 20 LINE",
"466 38 LINE",
"434 31 OFFCURVE",
"401 28 OFFCURVE",
"366 28 CURVE SMOOTH",
"178 28 OFFCURVE",
"85 109 OFFCURVE",
"85 369 CURVE SMOOTH",
"85 636 OFFCURVE",
"180 716 OFFCURVE",
"339 716 CURVE SMOOTH",
"385 716 OFFCURVE",
"430 711 OFFCURVE",
"480 695 CURVE",
"480 729 LINE",
"437 742 OFFCURVE",
"387 749 OFFCURVE",
"342 749 CURVE SMOOTH",
"161 749 OFFCURVE",
"49 654 OFFCURVE",
"49 369 CURVE SMOOTH",
"49 90 OFFCURVE",
"159 -5 OFFCURVE",
"366 -5 CURVE SMOOTH"
);
}
);
width = 553;
},
{
anchors = (
{
name = bottom;
position = "{375, 0}";
},
{
name = top;
position = "{375, 760}";
}
);
background = {
paths = (
{
closed = 1;
nodes = (
"477 -10 OFFCURVE",
"540 -4 OFFCURVE",
"597 5 CURVE",
"597 360 LINE",
"416 360 LINE",
"416 112 LINE",
"475 159 LINE",
"455 156 OFFCURVE",
"427 154 OFFCURVE",
"402 154 CURVE SMOOTH",
"291 154 OFFCURVE",
"229 210 OFFCURVE",
"229 367 CURVE SMOOTH",
"229 530 OFFCURVE",
"292 585 OFFCURVE",
"447 585 CURVE SMOOTH",
"493 585 OFFCURVE",
"533 578 OFFCURVE",
"578 568 CURVE",
"578 732 LINE",
"531 744 OFFCURVE",
"486 750 OFFCURVE",
"424 750 CURVE SMOOTH",
"167 750 OFFCURVE",
"26 627 OFFCURVE",
"26 370 CURVE SMOOTH",
"26 109 OFFCURVE",
"161 -10 OFFCURVE",
"424 -10 CURVE SMOOTH"
);
}
);
};
color = -1;
layerId = "C8FFBC04-9D7C-494A-A42D-BACB8E26599D";
paths = (
{
closed = 1;
nodes = (
"478 -10 OFFCURVE",
"541 -4 OFFCURVE",
"598 5 CURVE",
"598 360 LINE",
"417 360 LINE",
"417 112 LINE",
"476 159 LINE",
"456 156 OFFCURVE",
"428 154 OFFCURVE",
"403 154 CURVE SMOOTH",
"292 154 OFFCURVE",
"230 210 OFFCURVE",
"230 367 CURVE SMOOTH",
"230 530 OFFCURVE",
"293 585 OFFCURVE",
"448 585 CURVE SMOOTH",
"494 585 OFFCURVE",
"534 578 OFFCURVE",
"579 568 CURVE",
"579 732 LINE",
"532 744 OFFCURVE",
"487 750 OFFCURVE",
"425 750 CURVE SMOOTH",
"168 750 OFFCURVE",
"27 627 OFFCURVE",
"27 370 CURVE SMOOTH",
"27 109 OFFCURVE",
"162 -10 OFFCURVE",
"425 -10 CURVE SMOOTH"
);
}
);
width = 626;
},
{
anchors = (
{
name = bottom;
position = "{397, 0}";
},
{
name = top;
position = "{397, 760}";
}
);
background = {
paths = (
{
closed = 1;
nodes = (
"520 -5 OFFCURVE",
"569 -2 OFFCURVE",
"644 10 CURVE",
"644 359 LINE",
"610 359 LINE",
"610 40 LINE",
"569 32 OFFCURVE",
"522 28 OFFCURVE",
"458 28 CURVE SMOOTH",
"225 28 OFFCURVE",
"103 139 OFFCURVE",
"102 371 CURVE SMOOTH",
"101 619 OFFCURVE",
"245 716 OFFCURVE",
"434 716 CURVE SMOOTH",
"488 716 OFFCURVE",
"545 710 OFFCURVE",
"624 688 CURVE",
"624 722 LINE",
"555 740 OFFCURVE",
"498 749 OFFCURVE",
"432 749 CURVE SMOOTH",
"226 749 OFFCURVE",
"65 637 OFFCURVE",
"66 369 CURVE SMOOTH",
"67 119 OFFCURVE",
"203 -5 OFFCURVE",
"458 -5 CURVE SMOOTH"
);
}
);
};
color = -1;
layerId = "E28BEEB5-BD92-4E7A-B4EA-FC5E5BBBF580";
paths = (
{
closed = 1;
nodes = (
"520 -5 OFFCURVE",
"569 -2 OFFCURVE",
"644 10 CURVE",
"644 360 LINE",
"610 360 LINE",
"610 25 LINE",
"621 42 LINE",
"576 33 OFFCURVE",
"526 28 OFFCURVE",
"458 28 CURVE SMOOTH",
"225 28 OFFCURVE",
"103 139 OFFCURVE",
"102 371 CURVE SMOOTH",
"101 619 OFFCURVE",
"245 716 OFFCURVE",
"434 716 CURVE SMOOTH",
"488 716 OFFCURVE",
"545 710 OFFCURVE",
"624 688 CURVE",
"624 722 LINE",
"555 740 OFFCURVE",
"498 749 OFFCURVE",
"432 749 CURVE SMOOTH",
"226 749 OFFCURVE",
"65 637 OFFCURVE",
"66 369 CURVE SMOOTH",
"67 119 OFFCURVE",
"203 -5 OFFCURVE",
"458 -5 CURVE SMOOTH"
);
}
);
width = 742;
},
{
anchors = (
{
name = bottom;
position = "{469, 0}";
},
{
name = top;
position = "{469, 760}";
}
);
background = {
paths = (
{
closed = 1;
nodes = (
"623 -10 OFFCURVE",
"696 -2 OFFCURVE",
"769 10 CURVE",
"769 360 LINE",
"548 360 LINE",
"548 77 LINE",
"677 188 LINE",
"634 182 OFFCURVE",
"579 178 OFFCURVE",
"533 178 CURVE SMOOTH",
"358 178 OFFCURVE",
"283 248 OFFCURVE",
"283 362 CURVE SMOOTH",
"283 491 OFFCURVE",
"361 559 OFFCURVE",
"577 560 CURVE SMOOTH",
"634 560 OFFCURVE",
"691 555 OFFCURVE",
"740 546 CURVE",
"740 734 LINE",
"682 745 OFFCURVE",
"614 750 OFFCURVE",
"559 750 CURVE SMOOTH",
"208 750 OFFCURVE",
"41 601 OFFCURVE",
"41 366 CURVE SMOOTH",
"41 121 OFFCURVE",
"203 -10 OFFCURVE",
"547 -10 CURVE SMOOTH"
);
}
);
};
color = -1;
layerId = "1E90A949-97C4-49F5-AA9A-AF35B6FD63CF";
paths = (
{
closed = 1;
nodes = (
"623 -10 OFFCURVE",
"696 -2 OFFCURVE",
"769 10 CURVE",
"769 360 LINE",
"548 360 LINE",
"548 77 LINE",
"677 188 LINE",
"634 182 OFFCURVE",
"579 178 OFFCURVE",
"533 178 CURVE SMOOTH",
"360 178 OFFCURVE",
"287 248 OFFCURVE",
"287 362 CURVE SMOOTH",
"287 491 OFFCURVE",
"363 559 OFFCURVE",
"577 560 CURVE SMOOTH",
"634 560 OFFCURVE",
"691 555 OFFCURVE",
"740 546 CURVE",
"740 734 LINE",
"682 745 OFFCURVE",
"614 750 OFFCURVE",
"559 750 CURVE SMOOTH",
"208 750 OFFCURVE",
"41 601 OFFCURVE",
"41 366 CURVE SMOOTH",
"41 121 OFFCURVE",
"203 -10 OFFCURVE",
"547 -10 CURVE SMOOTH"
);
}
);
width = 835;
}
);
leftKerningGroup = KERN_O_2ND;
leftMetricsKey = O;
rightKerningGroup = KERN_G_1ST;
unicode = 0047;
userData = {
com.typemytype.robofont.layerData = {
};
};
},
{
glyphname = H;
lastChange = "2016-12-08 16:06:02 +0000";
layers = (
{
anchors = (
{
name = bottom;
position = "{305, 0}";
},
{
name = center;
position = "{305, 570}";
},
{
name = top;
position = "{305, 760}";
},
{
name = topleft;
position = "{18, 740}";
}
);
background = {
paths = (
{
closed = 1;
nodes = (
"417 -5 OFFCURVE",
"529 103 OFFCURVE",
"529 370 CURVE SMOOTH",
"529 629 OFFCURVE",
"426 747 OFFCURVE",
"221 747 CURVE SMOOTH",
"174 747 OFFCURVE",
"127 741 OFFCURVE",
"82 734 CURVE",
"82 2 LINE",
"134 -3 OFFCURVE",
"169 -5 OFFCURVE",
"207 -5 CURVE SMOOTH"
);
},
{
closed = 1;
nodes = (
"177 28 OFFCURVE",
"149 29 OFFCURVE",
"116 33 CURVE",
"116 705 LINE",
"154 711 OFFCURVE",
"187 714 OFFCURVE",
"219 714 CURVE SMOOTH",
"408 714 OFFCURVE",
"493 612 OFFCURVE",
"493 370 CURVE SMOOTH",
"493 123 OFFCURVE",
"399 28 OFFCURVE",
"208 28 CURVE SMOOTH"
);
}
);
};
color = -1;
layerId = "ECFF4977-BDCC-4836-B4AC-1801CF0EB460";
paths = (
{
closed = 1;
nodes = (
"116 0 LINE",
"116 364 LINE",
"494 364 LINE",
"494 0 LINE",
"528 0 LINE",
"528 740 LINE",
"494 740 LINE",
"494 397 LINE",
"116 397 LINE",
"116 740 LINE",
"82 740 LINE",
"82 0 LINE"
);
}
);
width = 610;
},
{
anchors = (
{
name = bottom;
position = "{342, 0}";
},
{
name = center;
position = "{342, 600}";
},
{
name = top;
position = "{342, 760}";
},
{
name = topleft;
position = "{14, 740}";
}
);
background = {
paths = (
{
closed = 1;
nodes = (
"506 -7 OFFCURVE",
"638 109 OFFCURVE",
"638 370 CURVE SMOOTH",
"638 629 OFFCURVE",
"513 747 OFFCURVE",
"262 747 CURVE SMOOTH",
"197 747 OFFCURVE",
"114 738 OFFCURVE",
"43 722 CURVE",
"43 4 LINE",
"103 -3 OFFCURVE",
"173 -7 OFFCURVE",
"235 -7 CURVE SMOOTH"
);
},
{
closed = 1;
nodes = (
"278 156 OFFCURVE",
"261 156 OFFCURVE",
"239 157 CURVE",
"239 580 LINE",
"251 583 OFFCURVE",
"272 585 OFFCURVE",
"286 585 CURVE SMOOTH",
"379 585 OFFCURVE",
"438 536 OFFCURVE",
"438 370 CURVE SMOOTH",
"438 205 OFFCURVE",
"383 156 OFFCURVE",
"289 156 CURVE SMOOTH"
);
},
{
closed = 1;
nodes = (
"97 0 LINE",
"97 364 LINE",
"601 364 LINE",
"601 0 LINE",
"635 0 LINE",
"635 740 LINE",
"601 740 LINE",
"601 397 LINE",
"97 397 LINE",
"97 740 LINE",
"63 740 LINE",
"63 0 LINE"
);
}
);
};
color = -1;
layerId = "C8FFBC04-9D7C-494A-A42D-BACB8E26599D";
paths = (
{
closed = 1;
nodes = (
"240 0 LINE",
"240 288 LINE",
"443 288 LINE",
"443 0 LINE",
"639 0 LINE",
"639 740 LINE",
"443 740 LINE",
"443 467 LINE",
"240 467 LINE",
"240 740 LINE",
"44 740 LINE",
"44 0 LINE"
);
}
);
width = 683;
},
{
anchors = (
{
name = bottom;
position = "{391, 0}";
},
{
name = center;
position = "{391, 570}";
},
{
name = top;
position = "{391, 760}";
},
{
name = topleft;
position = "{20, 740}";
}
);
background = {
paths = (
{
closed = 1;
nodes = (
"559 -5 OFFCURVE",
"693 119 OFFCURVE",
"693 370 CURVE SMOOTH",
"693 621 OFFCURVE",
"559 747 OFFCURVE",
"305 747 CURVE SMOOTH",
"244 747 OFFCURVE",
"175 741 OFFCURVE",
"105 727 CURVE",
"105 8 LINE",
"182 -2 OFFCURVE",
"231 -5 OFFCURVE",
"298 -5 CURVE SMOOTH"
);
},
{
closed = 1;
nodes = (
"229 28 OFFCURVE",
"182 32 OFFCURVE",
"139 39 CURVE",
"139 699 LINE",
"198 709 OFFCURVE",
"250 714 OFFCURVE",
"302 714 CURVE SMOOTH",
"537 714 OFFCURVE",
"657 604 OFFCURVE",
"657 370 CURVE SMOOTH",
"657 136 OFFCURVE",
"537 28 OFFCURVE",
"299 28 CURVE SMOOTH"
);
}
);
};
color = -1;
layerId = "E28BEEB5-BD92-4E7A-B4EA-FC5E5BBBF580";
paths = (
{
closed = 1;
nodes = (
"139 0 LINE",
"139 364 LINE",
"643 364 LINE",
"643 0 LINE",
"677 0 LINE",
"677 740 LINE",
"643 740 LINE",
"643 397 LINE",
"139 397 LINE",
"139 740 LINE",
"105 740 LINE",
"105 0 LINE"
);
}
);
width = 782;
},
{
anchors = (
{
name = bottom;
position = "{448, 0}";
},
{
name = center;
position = "{448, 611}";
},
{
name = top;
position = "{448, 760}";
},
{
name = topleft;
position = "{21, 740}";
}
);
background = {
anchors = (
{
name = bottom;
position = "{446, -110}";
},
{
name = topUC;
position = "{446, 885}";
}
);
paths = (
{
closed = 1;
nodes = (
"680 -7 OFFCURVE",
"856 99 OFFCURVE",
"856 370 CURVE SMOOTH",
"856 629 OFFCURVE",
"689 747 OFFCURVE",
"367 747 CURVE SMOOTH",
"282 747 OFFCURVE",
"155 735 OFFCURVE",
"64 716 CURVE",
"64 7 LINE",
"144 -3 OFFCURVE",
"246 -7 OFFCURVE",
"315 -7 CURVE SMOOTH"
);
},
{
closed = 1;
nodes = (
"351 179 OFFCURVE",
"326 179 OFFCURVE",
"302 181 CURVE",
"302 556 LINE",
"324 559 OFFCURVE",
"357 562 OFFCURVE",
"380 562 CURVE SMOOTH",
"540 562 OFFCURVE",
"617 504 OFFCURVE",
"617 372 CURVE SMOOTH",
"617 236 OFFCURVE",
"545 179 OFFCURVE",
"380 179 CURVE SMOOTH"
);
}
);
};
color = -1;
layerId = "1E90A949-97C4-49F5-AA9A-AF35B6FD63CF";
paths = (
{
closed = 1;
nodes = (
"302 0 LINE",
"302 277 LINE",
"593 277 LINE",
"593 0 LINE",
"831 0 LINE",
"831 740 LINE",
"593 740 LINE",
"593 478 LINE",
"302 478 LINE",
"302 740 LINE",
"64 740 LINE",
"64 0 LINE"
);
}
);
width = 895;
}
);
leftKerningGroup = KERN_I_2ND;
rightKerningGroup = KERN_I_1ST;
unicode = 0048;
userData = {
com.typemytype.robofont.layerData = {
};
};
},
{
glyphname = Hbar;
lastChange = "2016-12-08 16:06:02 +0000";
layers = (
{
background = {
components = (
{
name = H;
transform = "{1, 0, 0, 1, 19, 0}";
}
);
paths = (
{
closed = 1;
nodes = (
"1 550 LINE",
"637 550 LINE",
"637 575 LINE",
"1 575 LINE"
);
}
);
};
color = -1;
components = (
{
name = H;
},
{
name = strokelongcomb.case;
transform = "{1, 0, 0, 1, -4, 30}";
}
);
layerId = "ECFF4977-BDCC-4836-B4AC-1801CF0EB460";
width = 610;
},
{
background = {
components = (
{
name = H;
},
{
name = strokelongcomb.case;
}
);
};
color = -1;
components = (
{
name = H;
},
{
name = strokelongcomb.case;
transform = "{1, 0, 0, 1, -2, 20}";
}
);
layerId = "C8FFBC04-9D7C-494A-A42D-BACB8E26599D";
width = 683;
},
{
background = {
components = (
{
name = H;
},
{
name = strokelongcomb.case;
transform = "{1, 0, 0, 1, -20, 30}";
}
);
};
color = -1;
components = (
{
name = H;
},
{
name = strokelongcomb.case;
transform = "{1, 0, 0, 1, -3, 30}";
}
);
layerId = "E28BEEB5-BD92-4E7A-B4EA-FC5E5BBBF580";
width = 782;
},
{
background = {
components = (
{
name = H;
transform = "{1, 0, 0, 1, 7, 0}";
}
);
paths = (
{
closed = 1;
nodes = (
"8 534 LINE",
"907 534 LINE",
"907 637 LINE",
"8 637 LINE"
);
}
);
};
color = -1;
components = (
{
name = H;
},
{
name = strokelongcomb.case;
transform = "{1, 0, 0, 1, -1, 25}";
}
);
layerId = "1E90A949-97C4-49F5-AA9A-AF35B6FD63CF";
width = 895;
}
);
leftKerningGroup = KERN_I_2ND;
rightKerningGroup = KERN_I_1ST;
unicode = 0126;
},
{
glyphname = I;
lastChange = "2016-12-08 16:06:02 +0000";
layers = (
{
anchors = (
{
name = bottom;
position = "{99, 0}";
},
{
name = ogonek;
position = "{116, 0}";
},
{
name = top;
position = "{99, 760}";
}
);
background = {
anchors = (
{
name = bottom;
position = "{102, 0}";
},
{
name = ogonek;
position = "{116, 0}";
},
{
name = topUC;
position = "{102, 760}";
}
);
paths = (
{
closed = 1;
nodes = (
"82 0 LINE",
"116 0 LINE",
"116 740 LINE",
"82 740 LINE"
);
}
);
};
color = -1;
layerId = "ECFF4977-BDCC-4836-B4AC-1801CF0EB460";
paths = (
{
closed = 1;
nodes = (
"116 0 LINE",
"116 740 LINE",
"82 740 LINE",
"82 0 LINE"
);
}
);
width = 198;
},
{
anchors = (
{
name = bottom;
position = "{142, 0}";
},
{
name = ogonek;
position = "{239, 0}";
},
{
name = top;
position = "{142, 760}";
}
);
background = {
anchors = (
{
name = bottom;
position = "{141, 0}";
},
{
name = ogonek;
position = "{238, 0}";
},
{
name = top;
position = "{141, 805}";
}
);
paths = (
{
closed = 1;
nodes = (
"238 0 LINE",
"238 740 LINE",
"43 740 LINE",
"43 0 LINE"
);
}
);
};
color = -1;
layerId = "C8FFBC04-9D7C-494A-A42D-BACB8E26599D";
paths = (
{
closed = 1;
nodes = (
"240 0 LINE",
"240 740 LINE",
"44 740 LINE",
"44 0 LINE"
);
}
);
width = 284;
},
{
anchors = (
{
name = bottom;
position = "{122, 0}";
},
{
name = ogonek;
position = "{139, 0}";
},
{
name = top;
position = "{122, 760}";
}
);
background = {
anchors = (
{
name = bottom;
position = "{122, 0}";
},
{
name = ogonek;
position = "{139, 0}";
},
{
name = top;
position = "{122, 760}";
}
);
paths = (
{
closed = 1;
nodes = (
"139 0 LINE",
"139 740 LINE",
"105 740 LINE",
"105 0 LINE"
);
}
);
};
color = -1;
layerId = "E28BEEB5-BD92-4E7A-B4EA-FC5E5BBBF580";
paths = (
{
closed = 1;
nodes = (
"139 0 LINE",
"139 740 LINE",
"105 740 LINE",
"105 0 LINE"
);
}
);
width = 244;
},
{
anchors = (
{
name = bottom;
position = "{182, 0}";
},
{
name = ogonek;
position = "{302, 0}";
},
{
name = top;
position = "{183, 760}";
}
);
background = {
anchors = (
{
name = bottom;
position = "{182, -110}";
},
{
name = ogonek;
position = "{182, 54}";
},
{
name = topUC;
position = "{187, 885}";
}
);
paths = (
{
closed = 1;
nodes = (
"64 0 LINE",
"299 0 LINE",
"299 740 LINE",
"64 740 LINE"
);
}
);
};
color = -1;
layerId = "1E90A949-97C4-49F5-AA9A-AF35B6FD63CF";
paths = (
{
closed = 1;
nodes = (
"302 0 LINE",
"302 740 LINE",
"64 740 LINE",
"64 0 LINE"
);
}
);
width = 366;
}
);
leftKerningGroup = KERN_I_2ND;
leftMetricsKey = H;
rightKerningGroup = KERN_I_1ST;
rightMetricsKey = H;
unicode = 0049;
userData = {
com.typemytype.robofont.layerData = {
};
};
},
{
glyphname = J;
lastChange = "2016-12-08 16:06:02 +0000";
layers = (
{
anchors = (
{
name = bottom;
position = "{136, 0}";
},
{
name = top;
position = "{99, 760}";
}
);
background = {
anchors = (
{
name = topUC;
position = "{94, 760}";
}
);
paths = (
{
closed = 1;
nodes = (
"21 -175 LINE",
"86 -54 OFFCURVE",
"116 57 OFFCURVE",
"116 180 CURVE SMOOTH",
"116 740 LINE",
"82 740 LINE",
"82 180 LINE SMOOTH",
"82 50 OFFCURVE",
"66 -12 OFFCURVE",
"-3 -159 CURVE"
);
}
);
};
color = -1;
layerId = "ECFF4977-BDCC-4836-B4AC-1801CF0EB460";
paths = (
{
closed = 1;
nodes = (
"87 -68 OFFCURVE",
"112 11 OFFCURVE",
"116 128 CURVE",
"116 740 LINE",
"82 740 LINE",
"82 143 LINE SMOOTH",
"82 18 OFFCURVE",
"57 -58 OFFCURVE",
"-3 -153 CURVE",
"22 -170 LINE"
);
}
);
width = 198;
},
{
anchors = (
{
name = bottom;
position = "{240, 0}";
},
{
name = top;
position = "{142, 760}";
}
);
background = {
paths = (
{
closed = 1;
nodes = (
"208 -62 OFFCURVE",
"246 40 OFFCURVE",
"246 180 CURVE SMOOTH",
"246 740 LINE",
"50 740 LINE",
"50 198 LINE SMOOTH",
"50 56 OFFCURVE",
"33 -28 OFFCURVE",
"-24 -160 CURVE",
"98 -214 LINE"
);
}
);
};
color = -1;
layerId = "C8FFBC04-9D7C-494A-A42D-BACB8E26599D";
paths = (
{
closed = 1;
nodes = (
"205 -66 OFFCURVE",
"240 36 OFFCURVE",
"240 161 CURVE SMOOTH",
"240 740 LINE",
"44 740 LINE",
"44 153 LINE SMOOTH",
"44 50 OFFCURVE",
"29 -13 OFFCURVE",
"-25 -91 CURVE",
"103 -175 LINE"
);
}
);
width = 284;
},
{
anchors = (
{
name = bottom;
position = "{171, 0}";
},
{
name = top;
position = "{122, 760}";
}
);
background = {
anchors = (
{
name = bottom;
position = "{171, 0}";
},
{
name = top;
position = "{122, 760}";
}
);
paths = (
{
closed = 1;
nodes = (
"103 -74 OFFCURVE",
"132 11 OFFCURVE",
"139 125 CURVE",
"139 740 LINE",
"105 740 LINE",
"105 143 LINE SMOOTH",
"105 28 OFFCURVE",
"72 -64 OFFCURVE",
"-1 -152 CURVE",
"23 -170 LINE"
);
}
);
};
color = -1;
layerId = "E28BEEB5-BD92-4E7A-B4EA-FC5E5BBBF580";
paths = (
{
closed = 1;
nodes = (
"103 -74 OFFCURVE",
"132 11 OFFCURVE",
"139 125 CURVE",
"139 740 LINE",
"105 740 LINE",
"105 143 LINE SMOOTH",
"105 28 OFFCURVE",
"72 -64 OFFCURVE",
"-1 -152 CURVE",
"23 -170 LINE"
);
}
);
width = 244;
},
{
anchors = (
{
name = bottom;
position = "{302, 0}";
},
{
name = top;
position = "{184, 760}";
}
);
background = {
paths = (
{
closed = 1;
nodes = (
"261 -62 OFFCURVE",
"302 42 OFFCURVE",
"302 184 CURVE SMOOTH",
"302 740 LINE",
"67 740 LINE",
"67 202 LINE SMOOTH",
"67 64 OFFCURVE",
"49 -21 OFFCURVE",
"-8 -156 CURVE",
"141 -220 LINE"
);
}
);
};
color = -1;
layerId = "1E90A949-97C4-49F5-AA9A-AF35B6FD63CF";
paths = (
{
closed = 1;
nodes = (
"261 -70 OFFCURVE",
"302 34 OFFCURVE",
"302 159 CURVE SMOOTH",
"302 740 LINE",
"66 740 LINE",
"66 151 LINE SMOOTH",
"66 48 OFFCURVE",
"48 -15 OFFCURVE",
"-7 -81 CURVE",
"139 -179 LINE"
);
}
);
width = 366;
}
);
leftKerningGroup = KERN_J_2ND;
widthMetricsKey = I;
rightKerningGroup = KERN_J_1ST;
rightMetricsKey = H;
unicode = 004A;
userData = {
com.typemytype.robofont.layerData = {
};
};
},
{
glyphname = K;
lastChange = "2016-12-08 16:06:02 +0000";
layers = (
{
anchors = (
{
name = bottom;
position = "{278, 0}";
},
{
name = top;
position = "{278, 740}";
}
);
background = {
paths = (
{
closed = 1;
nodes = (
"539 0 LINE",
"236 387 LINE",
"236 375 LINE",
"518 740 LINE",
"476 740 LINE",
"199 379 LINE",
"496 0 LINE"
);
},
{
closed = 1;
nodes = (
"116 0 LINE",
"116 740 LINE",
"82 740 LINE",
"82 0 LINE"
);
},
{
closed = 1;
nodes = (
"220 364 LINE",
"220 396 LINE",
"108 396 LINE",
"108 364 LINE"
);
}
);
};
color = -1;
layerId = "ECFF4977-BDCC-4836-B4AC-1801CF0EB460";
paths = (
{
closed = 1;
nodes = (
"539 0 LINE",
"236 387 LINE",
"236 375 LINE",
"518 740 LINE",
"478 740 LINE",
"201 379 LINE",
"498 0 LINE"
);
},
{
closed = 1;
nodes = (
"116 0 LINE",
"116 740 LINE",
"82 740 LINE",
"82 0 LINE"
);
},
{
closed = 1;
nodes = (
"222 364 LINE",
"222 396 LINE",
"108 396 LINE",
"108 364 LINE"
);
}
);
width = 520;
},
{
anchors = (
{
name = bottom;
position = "{323, 0}";
},
{
name = top;
position = "{317, 740}";
}
);
background = {
paths = (
{
closed = 1;
nodes = (
"653 0 LINE",
"423 406 LINE",
"421 351 LINE",
"635 740 LINE",
"430 740 LINE",
"231 377 LINE",
"444 0 LINE"
);
},
{
closed = 1;
nodes = (
"239 0 LINE",
"239 740 LINE",
"43 740 LINE",
"43 0 LINE"
);
},
{
closed = 1;
nodes = (
"300 288 LINE",
"300 467 LINE",
"213 467 LINE",
"213 288 LINE"
);
}
);
};
color = -1;
layerId = "C8FFBC04-9D7C-494A-A42D-BACB8E26599D";
paths = (
{
closed = 1;
nodes = (
"654 0 LINE",
"424 408 LINE",
"422 353 LINE",
"636 740 LINE",
"433 740 LINE",
"232 375 LINE",
"445 0 LINE"
);
},
{
closed = 1;
nodes = (
"240 0 LINE",
"240 740 LINE",
"44 740 LINE",
"44 0 LINE"
);
},
{
closed = 1;
nodes = (
"301 288 LINE",
"301 467 LINE",
"214 467 LINE",
"214 288 LINE"
);
}
);
width = 619;
},
{
anchors = (
{
name = bottom;
position = "{335, 0}";
},
{
name = top;
position = "{335, 740}";
}
);
background = {
paths = (
{
closed = 1;
nodes = (
"139 0 LINE",
"139 364 LINE",
"643 364 LINE",
"643 0 LINE",
"677 0 LINE",
"677 740 LINE",
"643 740 LINE",
"643 397 LINE",
"139 397 LINE",
"139 740 LINE",
"105 740 LINE",
"105 0 LINE"
);
}
);
};
color = -1;
layerId = "E28BEEB5-BD92-4E7A-B4EA-FC5E5BBBF580";
paths = (
{
closed = 1;
nodes = (
"651 0 LINE",
"322 387 LINE",
"322 375 LINE",
"630 740 LINE",
"587 740 LINE",
"284 379 LINE",
"607 0 LINE"
);
},
{
closed = 1;
nodes = (
"139 0 LINE",
"139 740 LINE",
"105 740 LINE",
"105 0 LINE"
);
},
{
closed = 1;
nodes = (
"307 364 LINE",
"307 397 LINE",
"131 397 LINE",
"131 364 LINE"
);
}
);
width = 657;
},
{
anchors = (
{
name = bottom;
position = "{407, 0}";
},
{
name = top;
position = "{404, 740}";
}
);
background = {
anchors = (
{
name = bottom;
position = "{407, -110}";
}
);
paths = (
{
closed = 1;
nodes = (
"302 0 LINE",
"302 277 LINE",
"593 277 LINE",
"593 0 LINE",
"831 0 LINE",
"831 740 LINE",
"593 740 LINE",
"593 478 LINE",
"302 478 LINE",
"302 740 LINE",
"64 740 LINE",
"64 0 LINE"
);
}
);
};
color = -1;
layerId = "1E90A949-97C4-49F5-AA9A-AF35B6FD63CF";
paths = (
{
closed = 1;
nodes = (
"798 0 LINE",
"518 406 LINE",
"512 351 LINE",
"773 740 LINE",
"524 740 LINE",
"280 377 LINE",
"540 0 LINE"
);
},
{
closed = 1;
nodes = (
"302 0 LINE",
"302 740 LINE",
"64 740 LINE",
"64 0 LINE"
);
},
{
closed = 1;
nodes = (
"375 277 LINE",
"375 478 LINE",
"270 478 LINE",
"270 277 LINE"
);
}
);
width = 771;
}
);
leftKerningGroup = KERN_I_2ND;
leftMetricsKey = H;
rightKerningGroup = KERN_K_1ST;
unicode = 004B;
userData = {
com.typemytype.robofont.layerData = {
};
};
},
{
glyphname = L;
lastChange = "2016-12-08 16:06:02 +0000";
layers = (
{
anchors = (
{
name = bottom;
position = "{263, 0}";
},
{
name = caronalt;
position = "{289, 740}";
},
{
name = periodcentered;
position = "{320, 387}";
},
{
name = slash;
position = "{99, 387}";
},
{
name = top;
position = "{99, 760}";
}
);
background = {
anchors = (
{
name = bottom;
position = "{229, 0}";
},
{
name = caronalt;
position = "{333, 740}";
},
{
name = periodcentered;
position = "{285, 370}";
},
{
name = topUC;
position = "{115, 760}";
}
);
paths = (
{
closed = 1;
nodes = (
"456 0 LINE",
"456 33 LINE",
"116 33 LINE",
"116 707 LINE",
"451 707 LINE",
"451 740 LINE",
"82 740 LINE",
"82 0 LINE"
);
},
{
closed = 1;
nodes = (
"406 364 LINE",
"406 397 LINE",
"112 397 LINE",
"112 364 LINE"
);
}
);
};
color = -1;
layerId = "ECFF4977-BDCC-4836-B4AC-1801CF0EB460";
paths = (
{
closed = 1;
nodes = (
"443 0 LINE",
"443 33 LINE",
"116 33 LINE",
"116 740 LINE",
"82 740 LINE",
"82 0 LINE"
);
}
);
width = 445;
},
{
anchors = (
{
name = bottom;
position = "{280, 0}";
},
{
name = caronalt;
position = "{338, 740}";
},
{
name = periodcentered;
position = "{398, 447}";
},
{
name = slash;
position = "{146, 427}";
},
{
name = top;
position = "{146, 760}";
}
);
background = {
paths = (
{
closed = 1;
nodes = (
"519 0 LINE",
"519 173 LINE",
"239 173 LINE",
"239 740 LINE",
"43 740 LINE",
"43 0 LINE"
);
}
);
};
color = -1;
layerId = "C8FFBC04-9D7C-494A-A42D-BACB8E26599D";
paths = (
{
closed = 1;
nodes = (
"516 0 LINE",
"516 173 LINE",
"240 173 LINE",
"240 740 LINE",
"44 740 LINE",
"44 0 LINE"
);
}
);
width = 518;
},
{
anchors = (
{
name = bottom;
position = "{337, 0}";
},
{
name = caronalt;
position = "{374, 740}";
},
{
name = periodcentered;
position = "{404, 387}";
},
{
name = slash;
position = "{122, 387}";
},
{
name = top;
position = "{122, 760}";
}
);
background = {
anchors = (
{
name = bottom;
position = "{337, 0}";
},
{
name = caronalt;
position = "{364, 740}";
},
{
name = periodcentered;
position = "{404, 387}";
},
{
name = slash;
position = "{122, 387}";
},
{
name = top;
position = "{122, 760}";
}
);
paths = (
{
closed = 1;
nodes = (
"585 0 LINE",
"585 33 LINE",
"139 33 LINE",
"139 707 LINE",
"580 707 LINE",
"580 740 LINE",
"105 740 LINE",
"105 0 LINE"
);
},
{
closed = 1;
nodes = (
"530 364 LINE",
"530 397 LINE",
"125 397 LINE",
"125 364 LINE"
);
}
);
};
color = -1;
layerId = "E28BEEB5-BD92-4E7A-B4EA-FC5E5BBBF580";
paths = (
{
closed = 1;
nodes = (
"568 0 LINE",
"568 33 LINE",
"139 33 LINE",
"139 740 LINE",
"105 740 LINE",
"105 0 LINE"
);
}
);
width = 576;
},
{
anchors = (
{
name = bottom;
position = "{369, 0}";
},
{
name = caronalt;
position = "{457, 740}";
},
{
name = periodcentered;
position = "{518, 465}";
},
{
name = slash;
position = "{183, 427}";
},
{
name = top;
position = "{183, 760}";
}
);
background = {
paths = (
{
closed = 1;
nodes = (
"685 0 LINE",
"685 184 LINE",
"302 184 LINE",
"302 740 LINE",
"64 740 LINE",
"64 0 LINE"
);
}
);
};
color = -1;
layerId = "1E90A949-97C4-49F5-AA9A-AF35B6FD63CF";
paths = (
{
closed = 1;
nodes = (
"674 0 LINE",
"674 184 LINE",
"302 184 LINE",
"302 740 LINE",
"64 740 LINE",
"64 0 LINE"
);
}
);
width = 679;
}
);
leftKerningGroup = KERN_I_2ND;
leftMetricsKey = H;
rightKerningGroup = KERN_L_1ST;
unicode = 004C;
userData = {
com.typemytype.robofont.layerData = {
};
};
},
{
glyphname = Lslash;
lastChange = "2016-12-08 16:06:02 +0000";
layers = (
{
background = {
components = (
{
name = L;
transform = "{1, 0, 0, 1, 25, 0}";
}
);
paths = (
{
closed = 1;
nodes = (
"13 220 LINE",
"237 440 LINE",
"237 487 LINE",
"13 267 LINE"
);
}
);
};
color = -1;
components = (
{
name = L;
},
{
name = slashshortcomb.case;
transform = "{1, 0, 0, 1, -101, 0}";
}
);
layerId = "ECFF4977-BDCC-4836-B4AC-1801CF0EB460";
width = 445;
},
{
background = {
components = (
{
name = L;
transform = "{1, 0, 0, 1, 19, 0}";
},
{
name = slashshortcomb.case;
transform = "{1, 0, 0, 1, -29, 37}";
}
);
};
color = -1;
components = (
{
alignment = -1;
name = L;
transform = "{1, 0, 0, 1, 19, 0}";
},
{
name = slashshortcomb.case;
transform = "{1, 0, 0, 1, -35, 40}";
}
);
layerId = "C8FFBC04-9D7C-494A-A42D-BACB8E26599D";
width = 537;
},
{
background = {
components = (
{
name = L;
},
{
name = slashshortcomb.case;
transform = "{1, 0, 0, 1, -75, 0}";
}
);
};
color = -1;
components = (
{
name = L;
},
{
name = slashshortcomb.case;
transform = "{1, 0, 0, 1, -78, 0}";
}
);
layerId = "E28BEEB5-BD92-4E7A-B4EA-FC5E5BBBF580";
width = 576;
},
{
background = {
components = (
{
name = L;
transform = "{1, 0, 0, 1, 18, 0}";
}
);
paths = (
{
closed = 1;
nodes = (
"11 226 LINE",
"449 412 LINE",
"449 576 LINE",
"11 390 LINE"
);
}
);
};
color = -1;
components = (
{
name = L;
},
{
name = slashshortcomb.case;
transform = "{1, 0, 0, 1, -17, 40}";
}
);
layerId = "1E90A949-97C4-49F5-AA9A-AF35B6FD63CF";
width = 679;
}
);
leftKerningGroup = KERN_I_2ND;
rightKerningGroup = KERN_L_1ST;
rightMetricsKey = L;
unicode = 0141;
},
{
glyphname = M;
lastChange = "2016-12-08 16:06:02 +0000";
layers = (
{
anchors = (
{
name = bottom;
position = "{379, 0}";
},
{
name = top;
position = "{379, 740}";
}
);
background = {
paths = (
{
closed = 1;
nodes = (
"118 0 LINE",
"118 710 LINE",
"99 710 LINE",
"360 100 LINE",
"398 100 LINE",
"658 710 LINE",
"640 710 LINE",
"640 0 LINE",
"674 0 LINE",
"674 740 LINE",
"636 740 LINE",
"371 116 LINE",
"388 116 LINE",
"122 740 LINE",
"84 740 LINE",
"84 0 LINE"
);
}
);
};
color = -1;
layerId = "ECFF4977-BDCC-4836-B4AC-1801CF0EB460";
paths = (
{
closed = 1;
nodes = (
"117 0 LINE",
"117 710 LINE",
"99 710 LINE",
"360 100 LINE",
"398 100 LINE",
"658 710 LINE",
"641 710 LINE",
"641 0 LINE",
"674 0 LINE",
"674 740 LINE",
"636 740 LINE",
"372 116 LINE",
"388 116 LINE",
"122 740 LINE",
"84 740 LINE",
"84 0 LINE"
);
}
);
width = 758;
},
{
anchors = (
{
name = bottom;
position = "{447, 0}";
},
{
name = top;
position = "{447, 740}";
}
);
background = {
paths = (
{
closed = 1;
nodes = (
"230 0 LINE",
"230 541 LINE",
"189 541 LINE",
"355 110 LINE",
"511 110 LINE",
"670 541 LINE",
"636 541 LINE",
"636 0 LINE",
"821 0 LINE",
"821 740 LINE",
"575 740 LINE",
"427 314 LINE",
"446 314 LINE",
"291 740 LINE",
"45 740 LINE",
"45 0 LINE"
);
}
);
};
color = -1;
layerId = "C8FFBC04-9D7C-494A-A42D-BACB8E26599D";
paths = (
{
closed = 1;
nodes = (
"229 0 LINE",
"229 544 LINE",
"190 544 LINE",
"358 110 LINE",
"510 110 LINE",
"671 544 LINE",
"639 544 LINE",
"639 0 LINE",
"822 0 LINE",
"822 740 LINE",
"580 740 LINE",
"430 316 LINE",
"445 316 LINE",
"288 740 LINE",
"46 740 LINE",
"46 0 LINE"
);
}
);
width = 868;
},
{
anchors = (
{
name = bottom;
position = "{464, 0}";
},
{
name = top;
position = "{464, 740}";
}
);
background = {
anchors = (
{
name = bottom;
position = "{464, 0}";
},
{
name = top;
position = "{464, 740}";
}
);
paths = (
{
closed = 1;
nodes = (
"140 0 LINE",
"140 712 LINE",
"120 712 LINE",
"445 100 LINE",
"483 100 LINE",
"807 712 LINE",
"788 712 LINE",
"788 0 LINE",
"821 0 LINE",
"821 740 LINE",
"784 740 LINE",
"457 116 LINE",
"473 116 LINE",
"144 740 LINE",
"107 740 LINE",
"107 0 LINE"
);
}
);
};
color = -1;
layerId = "E28BEEB5-BD92-4E7A-B4EA-FC5E5BBBF580";
paths = (
{
closed = 1;
nodes = (
"140 0 LINE",
"140 712 LINE",
"120 712 LINE",
"445 100 LINE",
"483 100 LINE",
"807 712 LINE",
"788 712 LINE",
"788 0 LINE",
"821 0 LINE",
"821 740 LINE",
"784 740 LINE",
"457 116 LINE",
"473 116 LINE",
"144 740 LINE",
"107 740 LINE",
"107 0 LINE"
);
}
);
width = 928;
},
{
anchors = (
{
name = bottom;
position = "{559, 0}";
},
{
name = top;
position = "{559, 740}";
}
);
background = {
paths = (
{
closed = 1;
nodes = (
"294 0 LINE",
"294 541 LINE",
"237 541 LINE",
"447 110 LINE",
"639 110 LINE",
"837 541 LINE",
"792 541 LINE",
"792 0 LINE",
"1020 0 LINE",
"1020 740 LINE",
"721 740 LINE",
"534 313 LINE",
"560 313 LINE",
"365 740 LINE",
"66 740 LINE",
"66 0 LINE"
);
}
);
};
color = -1;
layerId = "1E90A949-97C4-49F5-AA9A-AF35B6FD63CF";
paths = (
{
closed = 1;
nodes = (
"290 0 LINE",
"290 543 LINE",
"231 543 LINE",
"445 110 LINE",
"641 110 LINE",
"843 543 LINE",
"796 543 LINE",
"796 0 LINE",
"1020 0 LINE",
"1020 740 LINE",
"731 740 LINE",
"533 314 LINE",
"560 314 LINE",
"355 740 LINE",
"66 740 LINE",
"66 0 LINE"
);
}
);
width = 1086;
}
);
leftKerningGroup = KERN_I_2ND;
leftMetricsKey = "=H+2";
rightKerningGroup = KERN_I_1ST;
rightMetricsKey = "=H+2";
unicode = 004D;
userData = {
com.typemytype.robofont.layerData = {
};
};
},
{
glyphname = N;
lastChange = "2016-12-08 16:06:02 +0000";
layers = (
{
anchors = (
{
name = bottom;
position = "{312, 0}";
},
{
name = top;
position = "{312, 760}";
}
);
background = {
paths = (
{
closed = 1;
nodes = (
"116 0 LINE",
"116 710 LINE",
"99 710 LINE",
"504 0 LINE",
"542 0 LINE",
"542 740 LINE",
"508 740 LINE",
"508 30 LINE",
"525 30 LINE",
"120 740 LINE",
"82 740 LINE",
"82 0 LINE"
);
}
);
};
color = -1;
layerId = "ECFF4977-BDCC-4836-B4AC-1801CF0EB460";
paths = (
{
closed = 1;
nodes = (
"115 0 LINE",
"115 710 LINE",
"99 710 LINE",
"504 0 LINE",
"542 0 LINE",
"542 740 LINE",
"509 740 LINE",
"509 30 LINE",
"525 30 LINE",
"120 740 LINE",
"82 740 LINE",
"82 0 LINE"
);
}
);
width = 624;
},
{
anchors = (
{
name = bottom;
position = "{345, 0}";
},
{
name = top;
position = "{345, 760}";
}
);
background = {
paths = (
{
closed = 1;
nodes = (
"228 0 LINE",
"228 457 LINE",
"199 457 LINE",
"450 0 LINE",
"645 0 LINE",
"645 740 LINE",
"460 740 LINE",
"460 283 LINE",
"489 283 LINE",
"238 740 LINE",
"43 740 LINE",
"43 0 LINE"
);
}
);
};
color = -1;
layerId = "C8FFBC04-9D7C-494A-A42D-BACB8E26599D";
paths = (
{
closed = 1;
nodes = (
"227 0 LINE",
"227 460 LINE",
"198 460 LINE",
"451 0 LINE",
"646 0 LINE",
"646 740 LINE",
"463 740 LINE",
"463 280 LINE",
"492 280 LINE",
"239 740 LINE",
"44 740 LINE",
"44 0 LINE"
);
}
);
width = 690;
},
{
anchors = (
{
name = bottom;
position = "{399, 0}";
},
{
name = top;
position = "{399, 760}";
}
);
background = {
anchors = (
{
name = bottom;
position = "{399, 0}";
},
{
name = top;
position = "{399, 760}";
}
);
paths = (
{
closed = 1;
nodes = (
"138 0 LINE",
"138 710 LINE",
"122 710 LINE",
"655 0 LINE",
"692 0 LINE",
"692 740 LINE",
"659 740 LINE",
"659 30 LINE",
"675 30 LINE",
"142 740 LINE",
"105 740 LINE",
"105 0 LINE"
);
}
);
};
color = -1;
layerId = "E28BEEB5-BD92-4E7A-B4EA-FC5E5BBBF580";
paths = (
{
closed = 1;
nodes = (
"138 0 LINE",
"138 710 LINE",
"123 710 LINE",
"655 0 LINE",
"692 0 LINE",
"692 740 LINE",
"659 740 LINE",
"659 30 LINE",
"674 30 LINE",
"142 740 LINE",
"105 740 LINE",
"105 0 LINE"
);
}
);
width = 797;
},
{
anchors = (
{
name = bottom;
position = "{450, 0}";
},
{
name = top;
position = "{450, 760}";
}
);
background = {
paths = (
{
closed = 1;
nodes = (
"292 0 LINE",
"292 457 LINE",
"255 457 LINE",
"598 0 LINE",
"836 0 LINE",
"836 740 LINE",
"608 740 LINE",
"608 283 LINE",
"645 283 LINE",
"302 740 LINE",
"64 740 LINE",
"64 0 LINE"
);
}
);
};
color = -1;
layerId = "1E90A949-97C4-49F5-AA9A-AF35B6FD63CF";
paths = (
{
closed = 1;
nodes = (
"288 0 LINE",
"288 459 LINE",
"251 459 LINE",
"598 0 LINE",
"836 0 LINE",
"836 740 LINE",
"612 740 LINE",
"612 281 LINE",
"649 281 LINE",
"302 740 LINE",
"64 740 LINE",
"64 0 LINE"
);
}
);
width = 900;
}
);
leftKerningGroup = KERN_I_2ND;
leftMetricsKey = H;
rightKerningGroup = KERN_I_1ST;
rightMetricsKey = H;
unicode = 004E;
userData = {
com.typemytype.robofont.layerData = {
};
};
},
{
glyphname = O;
lastChange = "2016-12-08 16:06:02 +0000";
layers = (
{
anchors = (
{
name = bottom;
position = "{291, 0}";
},
{
name = center;
position = "{291, 370}";
},
{
name = ogonek;
position = "{361, 0}";
},
{
name = top;
position = "{291, 760}";
},
{
name = topleft;
position = "{19, 740}";
},
{
name = topright;
position = "{361, 740}";
}
);
background = {
paths = (
{
closed = 1;
nodes = (
"145 749 OFFCURVE",
"49 649 OFFCURVE",
"49 370 CURVE SMOOTH",
"49 91 OFFCURVE",
"143 -9 OFFCURVE",
"291 -9 CURVE SMOOTH",
"439 -9 OFFCURVE",
"533 91 OFFCURVE",
"533 370 CURVE SMOOTH",
"533 649 OFFCURVE",
"437 749 OFFCURVE",
"291 749 CURVE SMOOTH"
);
},
{
closed = 1;
nodes = (
"415 716 OFFCURVE",
"497 637 OFFCURVE",
"497 368 CURVE SMOOTH",
"497 103 OFFCURVE",
"415 24 OFFCURVE",
"291 24 CURVE SMOOTH",
"167 24 OFFCURVE",
"85 103 OFFCURVE",
"85 372 CURVE SMOOTH",
"85 637 OFFCURVE",
"167 716 OFFCURVE",
"291 716 CURVE SMOOTH"
);
}
);
};
color = -1;
layerId = "ECFF4977-BDCC-4836-B4AC-1801CF0EB460";
paths = (
{
closed = 1;
nodes = (
"439 -9 OFFCURVE",
"533 91 OFFCURVE",
"533 370 CURVE SMOOTH",
"533 649 OFFCURVE",
"439 749 OFFCURVE",
"291 749 CURVE SMOOTH",
"143 749 OFFCURVE",
"49 649 OFFCURVE",
"49 370 CURVE SMOOTH",
"49 91 OFFCURVE",
"143 -9 OFFCURVE",
"291 -9 CURVE SMOOTH"
);
},
{
closed = 1;
nodes = (
"167 24 OFFCURVE",
"85 103 OFFCURVE",
"85 372 CURVE SMOOTH",
"85 637 OFFCURVE",
"167 716 OFFCURVE",
"291 716 CURVE SMOOTH",
"415 716 OFFCURVE",
"497 637 OFFCURVE",
"497 368 CURVE SMOOTH",
"497 103 OFFCURVE",
"415 24 OFFCURVE",
"291 24 CURVE SMOOTH"
);
}
);
width = 582;
},
{
anchors = (
{
name = bottom;
position = "{349, 0}";
},
{
name = center;
position = "{349, 370}";
},
{
name = ogonek;
position = "{445, 0}";
},
{
name = top;
position = "{349, 760}";
},
{
name = topleft;
position = "{21, 740}";
},
{
name = topright;
position = "{441, 740}";
}
);
background = {
paths = (
{
closed = 1;
nodes = (
"156 750 OFFCURVE",
"27 638 OFFCURVE",
"27 370 CURVE SMOOTH",
"27 102 OFFCURVE",
"159 -10 OFFCURVE",
"349 -10 CURVE SMOOTH",
"539 -10 OFFCURVE",
"671 102 OFFCURVE",
"671 370 CURVE SMOOTH",
"671 638 OFFCURVE",
"542 750 OFFCURVE",
"349 750 CURVE SMOOTH"
);
},
{
closed = 1;
nodes = (
"428 588 OFFCURVE",
"471 533 OFFCURVE",
"471 366 CURVE SMOOTH",
"471 207 OFFCURVE",
"428 152 OFFCURVE",
"349 152 CURVE SMOOTH",
"270 152 OFFCURVE",
"227 207 OFFCURVE",
"227 374 CURVE SMOOTH",
"227 533 OFFCURVE",
"270 588 OFFCURVE",
"349 588 CURVE SMOOTH"
);
}
);
};
color = -1;
layerId = "C8FFBC04-9D7C-494A-A42D-BACB8E26599D";
paths = (
{
closed = 1;
nodes = (
"539 -10 OFFCURVE",
"671 102 OFFCURVE",
"671 370 CURVE SMOOTH",
"671 638 OFFCURVE",
"539 750 OFFCURVE",
"349 750 CURVE SMOOTH",
"159 750 OFFCURVE",
"27 638 OFFCURVE",
"27 370 CURVE SMOOTH",
"27 102 OFFCURVE",
"159 -10 OFFCURVE",
"349 -10 CURVE SMOOTH"
);
},
{
closed = 1;
nodes = (
"270 152 OFFCURVE",
"227 207 OFFCURVE",
"227 374 CURVE SMOOTH",
"227 533 OFFCURVE",
"270 588 OFFCURVE",
"349 588 CURVE SMOOTH",
"428 588 OFFCURVE",
"471 533 OFFCURVE",
"471 366 CURVE SMOOTH",
"471 207 OFFCURVE",
"428 152 OFFCURVE",
"349 152 CURVE SMOOTH"
);
}
);
width = 698;
},
{
anchors = (
{
name = bottom;
position = "{390, 0}";
},
{
name = center;
position = "{390, 370}";
},
{
name = ogonek;
position = "{480, 0}";
},
{
name = top;
position = "{390, 760}";
},
{
name = topleft;
position = "{22, 740}";
},
{
name = topright;
position = "{479, 740}";
}
);
background = {
anchors = (
{
name = bottom;
position = "{390, 0}";
},
{
name = center;
position = "{390, 370}";
},
{
name = ogonek;
position = "{480, 0}";
},
{
name = top;
position = "{390, 760}";
},
{
name = topleft;
position = "{22, 740}";
},
{
name = topright;
position = "{479, 740}";
}
);
paths = (
{
closed = 1;
nodes = (
"199 749 OFFCURVE",
"66 642 OFFCURVE",
"66 370 CURVE SMOOTH",
"66 98 OFFCURVE",
"202 -9 OFFCURVE",
"390 -9 CURVE SMOOTH",
"578 -9 OFFCURVE",
"714 104 OFFCURVE",
"714 370 CURVE SMOOTH",
"714 636 OFFCURVE",
"581 749 OFFCURVE",
"390 749 CURVE SMOOTH"
);
},
{
closed = 1;
nodes = (
"560 715 OFFCURVE",
"678 619 OFFCURVE",
"678 368 CURVE SMOOTH",
"678 121 OFFCURVE",
"560 25 OFFCURVE",
"390 25 CURVE SMOOTH",
"220 25 OFFCURVE",
"102 121 OFFCURVE",
"102 372 CURVE SMOOTH",
"102 619 OFFCURVE",
"220 715 OFFCURVE",
"390 715 CURVE SMOOTH"
);
}
);
};
color = -1;
layerId = "E28BEEB5-BD92-4E7A-B4EA-FC5E5BBBF580";
paths = (
{
closed = 1;
nodes = (
"578 -9 OFFCURVE",
"714 104 OFFCURVE",
"714 370 CURVE SMOOTH",
"714 636 OFFCURVE",
"581 749 OFFCURVE",
"390 749 CURVE SMOOTH",
"202 749 OFFCURVE",
"66 636 OFFCURVE",
"66 370 CURVE SMOOTH",
"66 104 OFFCURVE",
"199 -9 OFFCURVE",
"390 -9 CURVE SMOOTH"
);
},
{
closed = 1;
nodes = (
"220 25 OFFCURVE",
"102 121 OFFCURVE",
"102 372 CURVE SMOOTH",
"102 619 OFFCURVE",
"220 715 OFFCURVE",
"390 715 CURVE SMOOTH",
"560 715 OFFCURVE",
"678 619 OFFCURVE",
"678 368 CURVE SMOOTH",
"678 121 OFFCURVE",
"560 25 OFFCURVE",
"390 25 CURVE SMOOTH"
);
}
);
width = 780;
},
{
anchors = (
{
name = bottom;
position = "{472, 0}";
},
{
name = center;
position = "{472, 370}";
},
{
name = ogonek;
position = "{551, 0}";
},
{
name = top;
position = "{472, 760}";
},
{
name = topleft;
position = "{29, 740}";
},
{
name = topright;
position = "{587, 740}";
}
);
background = {
paths = (
{
closed = 1;
nodes = (
"739 -10 OFFCURVE",
"903 137 OFFCURVE",
"903 370 CURVE SMOOTH",
"903 603 OFFCURVE",
"740 750 OFFCURVE",
"472 750 CURVE SMOOTH",
"204 750 OFFCURVE",
"41 605 OFFCURVE",
"41 370 CURVE SMOOTH",
"41 135 OFFCURVE",
"205 -10 OFFCURVE",
"472 -10 CURVE SMOOTH"
);
},
{
closed = 1;
nodes = (
"347 174 OFFCURVE",
"281 240 OFFCURVE",
"281 370 CURVE SMOOTH",
"281 500 OFFCURVE",
"350 566 OFFCURVE",
"472 566 CURVE SMOOTH",
"594 566 OFFCURVE",
"663 497 OFFCURVE",
"663 370 CURVE SMOOTH",
"663 243 OFFCURVE",
"597 174 OFFCURVE",
"472 174 CURVE SMOOTH"
);
}
);
};
color = -1;
layerId = "1E90A949-97C4-49F5-AA9A-AF35B6FD63CF";
paths = (
{
closed = 1;
nodes = (
"739 -10 OFFCURVE",
"903 137 OFFCURVE",
"903 370 CURVE SMOOTH",
"903 603 OFFCURVE",
"740 750 OFFCURVE",
"472 750 CURVE SMOOTH",
"204 750 OFFCURVE",
"41 605 OFFCURVE",
"41 370 CURVE SMOOTH",
"41 135 OFFCURVE",
"205 -10 OFFCURVE",
"472 -10 CURVE SMOOTH"
);
},
{
closed = 1;
nodes = (
"347 174 OFFCURVE",
"281 240 OFFCURVE",
"281 374 CURVE SMOOTH",
"281 500 OFFCURVE",
"350 566 OFFCURVE",
"472 566 CURVE SMOOTH",
"594 566 OFFCURVE",
"663 497 OFFCURVE",
"663 366 CURVE SMOOTH",
"663 243 OFFCURVE",
"597 174 OFFCURVE",
"472 174 CURVE SMOOTH"
);
}
);
width = 944;
}
);
leftKerningGroup = KERN_O_2ND;
rightKerningGroup = KERN_O_1ST;
unicode = 004F;
userData = {
com.typemytype.robofont.layerData = {
};
};
},
{
glyphname = Ohorn;
lastChange = "2016-12-08 16:06:02 +0000";
layers = (
{
anchors = (
{
name = bottom;
position = "{291, 0}";
},
{
name = top;
position = "{291, 760}";
}
);
background = {
paths = (
{
closed = 1;
nodes = (
"436 -9 OFFCURVE",
"532 91 OFFCURVE",
"532 370 CURVE SMOOTH",
"532 649 OFFCURVE",
"438 749 OFFCURVE",
"290 749 CURVE SMOOTH",
"142 749 OFFCURVE",
"48 649 OFFCURVE",
"48 370 CURVE SMOOTH",
"48 91 OFFCURVE",
"144 -9 OFFCURVE",
"290 -9 CURVE SMOOTH"
);
},
{
closed = 1;
nodes = (
"166 24 OFFCURVE",
"84 103 OFFCURVE",
"84 372 CURVE SMOOTH",
"84 637 OFFCURVE",
"166 716 OFFCURVE",
"290 716 CURVE SMOOTH",
"414 716 OFFCURVE",
"496 637 OFFCURVE",
"496 368 CURVE SMOOTH",
"496 103 OFFCURVE",
"414 24 OFFCURVE",
"290 24 CURVE SMOOTH"
);
},
{
closed = 1;
nodes = (
"418 707 LINE SMOOTH",
"482 707 OFFCURVE",
"532 747 OFFCURVE",
"532 821 CURVE SMOOTH",
"532 851 OFFCURVE",
"528 870 OFFCURVE",
"520 893 CURVE",
"487 893 LINE",
"494 870 OFFCURVE",
"499 850 OFFCURVE",
"499 822 CURVE SMOOTH",
"499 764 OFFCURVE",
"460 740 OFFCURVE",
"410 740 CURVE SMOOTH",
"379 740 OFFCURVE",
"331 749 OFFCURVE",
"290 749 CURVE",
"394 707 LINE"
);
}
);
};
color = -1;
layerId = "ECFF4977-BDCC-4836-B4AC-1801CF0EB460";
paths = (
{
closed = 1;
nodes = (
"437 -9 OFFCURVE",
"533 91 OFFCURVE",
"533 370 CURVE SMOOTH",
"533 554 OFFCURVE",
"492 661 OFFCURVE",
"421 711 CURVE",
"416 705 LINE",
"483 705 OFFCURVE",
"533 745 OFFCURVE",
"533 816 CURVE SMOOTH",
"533 846 OFFCURVE",
"529 865 OFFCURVE",
"521 888 CURVE",
"488 888 LINE",
"495 865 OFFCURVE",
"500 845 OFFCURVE",
"500 817 CURVE SMOOTH",
"500 762 OFFCURVE",
"461 738 OFFCURVE",
"411 738 CURVE SMOOTH",
"372 738 OFFCURVE",
"345 749 OFFCURVE",
"291 749 CURVE SMOOTH",
"143 749 OFFCURVE",
"49 649 OFFCURVE",
"49 370 CURVE SMOOTH",
"49 91 OFFCURVE",
"145 -9 OFFCURVE",
"291 -9 CURVE SMOOTH"
);
},
{
closed = 1;
nodes = (
"167 24 OFFCURVE",
"85 103 OFFCURVE",
"85 372 CURVE SMOOTH",
"85 637 OFFCURVE",
"167 716 OFFCURVE",
"291 716 CURVE SMOOTH",
"415 716 OFFCURVE",
"497 637 OFFCURVE",
"497 368 CURVE SMOOTH",
"497 103 OFFCURVE",
"415 24 OFFCURVE",
"291 24 CURVE SMOOTH"
);
}
);
width = 582;
},
{
anchors = (
{
name = bottom;
position = "{349, 0}";
},
{
name = top;
position = "{349, 760}";
}
);
background = {
paths = (
{
closed = 1;
nodes = (
"541 -10 OFFCURVE",
"670 102 OFFCURVE",
"670 370 CURVE SMOOTH",
"670 638 OFFCURVE",
"538 750 OFFCURVE",
"348 750 CURVE SMOOTH",
"158 750 OFFCURVE",
"26 638 OFFCURVE",
"26 370 CURVE SMOOTH",
"26 102 OFFCURVE",
"155 -10 OFFCURVE",
"348 -10 CURVE SMOOTH"
);
},
{
closed = 1;
nodes = (
"269 152 OFFCURVE",
"226 207 OFFCURVE",
"226 374 CURVE SMOOTH",
"226 533 OFFCURVE",
"269 588 OFFCURVE",
"348 588 CURVE SMOOTH",
"427 588 OFFCURVE",
"470 533 OFFCURVE",
"470 366 CURVE SMOOTH",
"470 207 OFFCURVE",
"427 152 OFFCURVE",
"348 152 CURVE SMOOTH"
);
},
{
closed = 1;
nodes = (
"504 652 LINE SMOOTH",
"600 652 OFFCURVE",
"670 692 OFFCURVE",
"670 804 CURVE SMOOTH",
"670 832 OFFCURVE",
"668 859 OFFCURVE",
"660 884 CURVE",
"537 884 LINE",
"543 858 OFFCURVE",
"545 835 OFFCURVE",
"545 816 CURVE SMOOTH",
"545 759 OFFCURVE",
"519 740 OFFCURVE",
"472 740 CURVE SMOOTH",
"429 740 LINE",
"429 652 LINE"
);
}
);
};
color = -1;
layerId = "C8FFBC04-9D7C-494A-A42D-BACB8E26599D";
paths = (
{
closed = 1;
nodes = (
"542 -10 OFFCURVE",
"671 102 OFFCURVE",
"671 370 CURVE SMOOTH",
"671 530 OFFCURVE",
"624 635 OFFCURVE",
"545 692 CURVE",
"515 652 LINE",
"611 652 OFFCURVE",
"681 692 OFFCURVE",
"681 806 CURVE SMOOTH",
"681 836 OFFCURVE",
"679 863 OFFCURVE",
"671 888 CURVE",
"538 888 LINE",
"544 862 OFFCURVE",
"546 839 OFFCURVE",
"546 818 CURVE SMOOTH",
"546 759 OFFCURVE",
"520 740 OFFCURVE",
"473 740 CURVE SMOOTH",
"431 740 OFFCURVE",
"402 750 OFFCURVE",
"349 750 CURVE SMOOTH",
"159 750 OFFCURVE",
"27 638 OFFCURVE",
"27 370 CURVE SMOOTH",
"27 102 OFFCURVE",
"156 -10 OFFCURVE",
"349 -10 CURVE SMOOTH"
);
},
{
closed = 1;
nodes = (
"270 152 OFFCURVE",
"227 207 OFFCURVE",
"227 374 CURVE SMOOTH",
"227 533 OFFCURVE",
"270 588 OFFCURVE",
"349 588 CURVE SMOOTH",
"428 588 OFFCURVE",
"471 533 OFFCURVE",
"471 366 CURVE SMOOTH",
"471 207 OFFCURVE",
"428 152 OFFCURVE",
"349 152 CURVE SMOOTH"
);
}
);
width = 698;
},
{
anchors = (
{
name = bottom;
position = "{390, 0}";
},
{
name = top;
position = "{390, 760}";
}
);
background = {
paths = (
{
closed = 1;
nodes = (
"581 -9 OFFCURVE",
"714 98 OFFCURVE",
"714 370 CURVE SMOOTH",
"714 642 OFFCURVE",
"578 749 OFFCURVE",
"390 749 CURVE SMOOTH",
"202 749 OFFCURVE",
"66 636 OFFCURVE",
"66 370 CURVE SMOOTH",
"66 104 OFFCURVE",
"199 -9 OFFCURVE",
"390 -9 CURVE SMOOTH"
);
},
{
closed = 1;
nodes = (
"220 25 OFFCURVE",
"102 121 OFFCURVE",
"102 372 CURVE SMOOTH",
"102 619 OFFCURVE",
"220 715 OFFCURVE",
"390 715 CURVE SMOOTH",
"560 715 OFFCURVE",
"678 619 OFFCURVE",
"678 368 CURVE SMOOTH",
"678 121 OFFCURVE",
"560 25 OFFCURVE",
"390 25 CURVE SMOOTH"
);
},
{
closed = 1;
nodes = (
"569 706 LINE SMOOTH",
"664 706 OFFCURVE",
"714 751 OFFCURVE",
"714 824 CURVE SMOOTH",
"714 854 OFFCURVE",
"710 873 OFFCURVE",
"701 896 CURVE",
"668 896 LINE",
"676 873 OFFCURVE",
"681 853 OFFCURVE",
"681 825 CURVE SMOOTH",
"681 767 OFFCURVE",
"642 740 OFFCURVE",
"571 740 CURVE SMOOTH",
"479 740 LINE",
"509 706 LINE"
);
}
);
};
color = -1;
layerId = "E28BEEB5-BD92-4E7A-B4EA-FC5E5BBBF580";
paths = (
{
closed = 1;
nodes = (
"581 -9 OFFCURVE",
"714 98 OFFCURVE",
"714 370 CURVE SMOOTH",
"714 550 OFFCURVE",
"654 658 OFFCURVE",
"560 710 CURVE",
"562 702 LINE",
"663 702 OFFCURVE",
"714 746 OFFCURVE",
"714 816 CURVE SMOOTH",
"714 846 OFFCURVE",
"710 865 OFFCURVE",
"701 888 CURVE",
"668 888 LINE",
"676 865 OFFCURVE",
"681 845 OFFCURVE",
"681 817 CURVE SMOOTH",
"681 763 OFFCURVE",
"642 736 OFFCURVE",
"571 736 CURVE SMOOTH",
"493 736 OFFCURVE",
"450 749 OFFCURVE",
"390 749 CURVE SMOOTH",
"202 749 OFFCURVE",
"66 636 OFFCURVE",
"66 370 CURVE SMOOTH",
"66 104 OFFCURVE",
"199 -9 OFFCURVE",
"390 -9 CURVE SMOOTH"
);
},
{
closed = 1;
nodes = (
"220 25 OFFCURVE",
"102 121 OFFCURVE",
"102 372 CURVE SMOOTH",
"102 619 OFFCURVE",
"220 715 OFFCURVE",
"390 715 CURVE SMOOTH",
"560 715 OFFCURVE",
"678 619 OFFCURVE",
"678 368 CURVE SMOOTH",
"678 121 OFFCURVE",
"560 25 OFFCURVE",
"390 25 CURVE SMOOTH"
);
}
);
width = 780;
},
{
anchors = (
{
name = bottom;
position = "{472, 0}";
},
{
name = top;
position = "{472, 760}";
}
);
background = {
paths = (
{
closed = 1;
nodes = (
"739 -10 OFFCURVE",
"903 137 OFFCURVE",
"903 370 CURVE SMOOTH",
"903 603 OFFCURVE",
"740 750 OFFCURVE",
"472 750 CURVE SMOOTH",
"204 750 OFFCURVE",
"41 605 OFFCURVE",
"41 370 CURVE SMOOTH",
"41 135 OFFCURVE",
"205 -10 OFFCURVE",
"472 -10 CURVE SMOOTH"
);
},
{
closed = 1;
nodes = (
"347 174 OFFCURVE",
"281 240 OFFCURVE",
"281 374 CURVE SMOOTH",
"281 500 OFFCURVE",
"350 566 OFFCURVE",
"472 566 CURVE SMOOTH",
"594 566 OFFCURVE",
"663 497 OFFCURVE",
"663 366 CURVE SMOOTH",
"663 243 OFFCURVE",
"597 174 OFFCURVE",
"472 174 CURVE SMOOTH"
);
},
{
closed = 1;
nodes = (
"735 641 LINE SMOOTH",
"843 641 OFFCURVE",
"912 697 OFFCURVE",
"912 812 CURVE SMOOTH",
"912 833 OFFCURVE",
"911 856 OFFCURVE",
"903 888 CURVE",
"767 888 LINE",
"772 855 OFFCURVE",
"773 836 OFFCURVE",
"773 818 CURVE SMOOTH",
"773 759 OFFCURVE",
"738 740 OFFCURVE",
"674 740 CURVE SMOOTH",
"645 740 OFFCURVE",
"616 740 OFFCURVE",
"587 740 CURVE",
"587 641 LINE"
);
}
);
};
color = -1;
layerId = "1E90A949-97C4-49F5-AA9A-AF35B6FD63CF";
paths = (
{
closed = 1;
nodes = (
"739 -10 OFFCURVE",
"903 137 OFFCURVE",
"903 370 CURVE SMOOTH",
"903 512 OFFCURVE",
"843 623 OFFCURVE",
"734 685 CURVE",
"734 641 LINE",
"842 641 OFFCURVE",
"911 697 OFFCURVE",
"911 812 CURVE SMOOTH",
"911 833 OFFCURVE",
"910 856 OFFCURVE",
"902 888 CURVE",
"757 888 LINE",
"762 855 OFFCURVE",
"763 836 OFFCURVE",
"763 818 CURVE SMOOTH",
"763 759 OFFCURVE",
"728 740 OFFCURVE",
"654 740 CURVE SMOOTH",
"606 740 OFFCURVE",
"530 750 OFFCURVE",
"472 750 CURVE SMOOTH",
"204 750 OFFCURVE",
"41 605 OFFCURVE",
"41 370 CURVE SMOOTH",
"41 135 OFFCURVE",
"205 -10 OFFCURVE",
"472 -10 CURVE SMOOTH"
);
},
{
closed = 1;
nodes = (
"347 174 OFFCURVE",
"281 240 OFFCURVE",
"281 374 CURVE SMOOTH",
"281 500 OFFCURVE",
"350 566 OFFCURVE",
"472 566 CURVE SMOOTH",
"594 566 OFFCURVE",
"663 497 OFFCURVE",
"663 366 CURVE SMOOTH",
"663 243 OFFCURVE",
"597 174 OFFCURVE",
"472 174 CURVE SMOOTH"
);
}
);
width = 944;
}
);
leftMetricsKey = O;
widthMetricsKey = O;
unicode = 01A0;
},
{
glyphname = Oslash;
lastChange = "2016-12-08 16:06:02 +0000";
layers = (
{
anchors = (
{
name = bottom;
position = "{292, 0}";
},
{
name = top;
position = "{292, 760}";
}
);
background = {
anchors = (
{
name = topUC;
position = "{297, 760}";
}
);
paths = (
{
closed = 1;
nodes = (
"300 -10 CURVE SMOOTH",
"462 -10 OFFCURVE",
"544 117 OFFCURVE",
"544 369 CURVE SMOOTH",
"544 624 OFFCURVE",
"463 750 OFFCURVE",
"300 750 CURVE SMOOTH",
"136 750 OFFCURVE",
"56 625 OFFCURVE",
"56 369 CURVE SMOOTH",
"56 115 OFFCURVE",
"136 -10 OFFCURVE"
);
},
{
closed = 1;
nodes = (
"300 24 CURVE SMOOTH",
"154 24 OFFCURVE",
"90 129 OFFCURVE",
"90 369 CURVE SMOOTH",
"90 609 OFFCURVE",
"155 716 OFFCURVE",
"300 716 CURVE SMOOTH",
"442 716 OFFCURVE",
"510 604 OFFCURVE",
"510 369 CURVE SMOOTH",
"510 131 OFFCURVE",
"445 24 OFFCURVE"
);
},
{
closed = 1;
nodes = (
"25 0 LINE",
"65 0 LINE",
"575 740 LINE",
"536 740 LINE"
);
}
);
};
color = -1;
components = (
{
name = O;
},
{
name = slashcomb.case;
transform = "{1, 0, 0, 1, -9, 0}";
}
);
layerId = "ECFF4977-BDCC-4836-B4AC-1801CF0EB460";
width = 582;
},
{
anchors = (
{
name = bottom;
position = "{350, 0}";
},
{
name = top;
position = "{350, 760}";
}
);
background = {
anchors = (
{
name = top;
position = "{345, 805}";
}
);
components = (
{
name = slashcomb.case;
}
);
paths = (
{
closed = 1;
nodes = (
"561 -10 OFFCURVE",
"663 111 OFFCURVE",
"663 369 CURVE SMOOTH",
"663 628 OFFCURVE",
"561 750 OFFCURVE",
"344 750 CURVE SMOOTH",
"131 750 OFFCURVE",
"27 625 OFFCURVE",
"27 369 CURVE SMOOTH",
"27 114 OFFCURVE",
"131 -10 OFFCURVE",
"344 -10 CURVE SMOOTH"
);
},
{
closed = 1;
nodes = (
"256 149 OFFCURVE",
"227 204 OFFCURVE",
"227 369 CURVE SMOOTH",
"227 537 OFFCURVE",
"256 591 OFFCURVE",
"344 591 CURVE SMOOTH",
"436 591 OFFCURVE",
"463 540 OFFCURVE",
"463 369 CURVE SMOOTH",
"463 202 OFFCURVE",
"434 149 OFFCURVE",
"344 149 CURVE SMOOTH"
);
}
);
};
color = -1;
components = (
{
name = O;
},
{
name = slashcomb.case;
transform = "{1, 0, 0, 1, 49, 0}";
}
);
layerId = "C8FFBC04-9D7C-494A-A42D-BACB8E26599D";
width = 698;
},
{
anchors = (
{
name = bottom;
position = "{390, 0}";
},
{
name = top;
position = "{388, 760}";
}
);
background = {
anchors = (
{
name = bottom;
position = "{388, 0}";
},
{
name = top;
position = "{388, 760}";
}
);
components = (
{
name = O;
},
{
name = slashcomb.case;
transform = "{1, 0, 0, 1, -10, 0}";
}
);
};
color = -1;
components = (
{
name = O;
},
{
name = slashcomb.case;
transform = "{1, 0, 0, 1, -10, 0}";
}
);
layerId = "E28BEEB5-BD92-4E7A-B4EA-FC5E5BBBF580";
width = 780;
},
{
anchors = (
{
name = bottom;
position = "{471, 0}";
},
{
name = top;
position = "{471, 760}";
}
);
background = {
anchors = (
{
name = topUC;
position = "{434, 885}";
}
);
paths = (
{
closed = 1;
nodes = (
"434 -10 CURVE",
"693 -10 OFFCURVE",
"835 124 OFFCURVE",
"835 369 CURVE SMOOTH",
"835 615 OFFCURVE",
"693 750 OFFCURVE",
"434 750 CURVE SMOOTH",
"173 750 OFFCURVE",
"33 617 OFFCURVE",
"33 369 CURVE SMOOTH",
"33 123 OFFCURVE",
"174 -10 OFFCURVE"
);
},
{
closed = 1;
nodes = (
"434 174 CURVE SMOOTH",
"307 174 OFFCURVE",
"273 207 OFFCURVE",
"273 369 CURVE SMOOTH",
"273 529 OFFCURVE",
"310 566 OFFCURVE",
"434 566 CURVE SMOOTH",
"557 566 OFFCURVE",
"595 526 OFFCURVE",
"595 369 CURVE SMOOTH",
"595 206 OFFCURVE",
"563 174 OFFCURVE"
);
},
{
closed = 1;
nodes = (
"5 0 LINE",
"166 0 LINE",
"863 740 LINE",
"702 740 LINE"
);
}
);
};
color = -1;
components = (
{
name = O;
},
{
name = slashcomb.case;
transform = "{1, 0, 0, 1, 22, 0}";
}
);
layerId = "1E90A949-97C4-49F5-AA9A-AF35B6FD63CF";
width = 944;
}
);
leftKerningGroup = KERN_O_2ND;
rightKerningGroup = KERN_O_1ST;
unicode = 00D8;
userData = {
com.typemytype.robofont.layerData = {
};
};
},
{
glyphname = OE;
lastChange = "2016-12-08 16:06:02 +0000";
layers = (
{
anchors = (
{
name = bottom;
position = "{467, 0}";
},
{
name = top;
position = "{467, 760}";
}
);
background = {
paths = (
{
closed = 1;
nodes = (
"408 -5 OFFCURVE",
"443 -3 OFFCURVE",
"495 2 CURVE",
"495 734 LINE",
"450 741 OFFCURVE",
"403 747 OFFCURVE",
"356 747 CURVE SMOOTH",
"151 747 OFFCURVE",
"48 629 OFFCURVE",
"48 370 CURVE SMOOTH",
"48 103 OFFCURVE",
"160 -5 OFFCURVE",
"370 -5 CURVE SMOOTH"
);
},
{
closed = 1;
nodes = (
"178 28 OFFCURVE",
"84 123 OFFCURVE",
"84 370 CURVE SMOOTH",
"84 612 OFFCURVE",
"169 714 OFFCURVE",
"358 714 CURVE SMOOTH",
"390 714 OFFCURVE",
"423 711 OFFCURVE",
"461 705 CURVE",
"461 33 LINE",
"428 29 OFFCURVE",
"400 28 OFFCURVE",
"369 28 CURVE SMOOTH"
);
},
{
closed = 1;
nodes = (
"835 0 LINE",
"835 33 LINE",
"495 33 LINE",
"495 707 LINE",
"830 707 LINE",
"830 740 LINE",
"461 740 LINE",
"461 0 LINE"
);
},
{
closed = 1;
nodes = (
"785 364 LINE",
"785 397 LINE",
"491 397 LINE",
"491 364 LINE"
);
}
);
};
color = -1;
layerId = "ECFF4977-BDCC-4836-B4AC-1801CF0EB460";
paths = (
{
closed = 1;
nodes = (
"416 -5 OFFCURVE",
"443 0 OFFCURVE",
"473 0 CURVE SMOOTH",
"812 0 LINE",
"812 33 LINE",
"484 33 LINE",
"484 707 LINE",
"807 707 LINE",
"807 740 LINE",
"470 740 LINE SMOOTH",
"441 740 OFFCURVE",
"405 747 OFFCURVE",
"350 747 CURVE SMOOTH",
"152 747 OFFCURVE",
"49 629 OFFCURVE",
"49 370 CURVE SMOOTH",
"49 103 OFFCURVE",
"161 -5 OFFCURVE",
"364 -5 CURVE SMOOTH"
);
},
{
closed = 1;
nodes = (
"179 28 OFFCURVE",
"85 123 OFFCURVE",
"85 370 CURVE SMOOTH",
"85 612 OFFCURVE",
"170 714 OFFCURVE",
"352 714 CURVE SMOOTH",
"384 714 OFFCURVE",
"417 712 OFFCURVE",
"450 707 CURVE",
"450 33 LINE",
"422 29 OFFCURVE",
"394 28 OFFCURVE",
"363 28 CURVE SMOOTH"
);
},
{
closed = 1;
nodes = (
"762 364 LINE",
"762 397 LINE",
"480 397 LINE",
"480 364 LINE"
);
}
);
width = 829;
},
{
anchors = (
{
name = bottom;
position = "{521, 0}";
},
{
name = top;
position = "{521, 760}";
}
);
background = {
paths = (
{
closed = 1;
nodes = (
"1258 747 OFFCURVE",
"1126 631 OFFCURVE",
"1126 370 CURVE SMOOTH",
"1126 111 OFFCURVE",
"1251 -7 OFFCURVE",
"1502 -7 CURVE SMOOTH",
"1569 -7 OFFCURVE",
"1652 2 OFFCURVE",
"1721 18 CURVE",
"1721 736 LINE",
"1661 743 OFFCURVE",
"1591 747 OFFCURVE",
"1529 747 CURVE SMOOTH"
);
},
{
closed = 1;
nodes = (
"1381 155 OFFCURVE",
"1326 204 OFFCURVE",
"1326 369 CURVE SMOOTH",
"1326 535 OFFCURVE",
"1385 584 OFFCURVE",
"1478 584 CURVE SMOOTH",
"1492 584 OFFCURVE",
"1513 582 OFFCURVE",
"1525 579 CURVE",
"1525 156 LINE",
"1503 155 OFFCURVE",
"1486 155 OFFCURVE",
"1475 155 CURVE SMOOTH"
);
},
{
closed = 1;
nodes = (
"916 0 LINE",
"916 169 LINE",
"618 169 LINE",
"618 571 LINE",
"911 571 LINE",
"911 740 LINE",
"425 740 LINE",
"425 0 LINE"
);
},
{
closed = 1;
nodes = (
"859 295 LINE",
"859 460 LINE",
"564 460 LINE",
"564 295 LINE"
);
}
);
};
color = -1;
layerId = "C8FFBC04-9D7C-494A-A42D-BACB8E26599D";
paths = (
{
closed = 1;
nodes = (
"447 -5 OFFCURVE",
"506 0 OFFCURVE",
"549 0 CURVE SMOOTH",
"903 0 LINE",
"903 169 LINE",
"617 169 LINE",
"617 571 LINE",
"898 571 LINE",
"898 740 LINE",
"549 740 LINE SMOOTH",
"506 740 OFFCURVE",
"457 745 OFFCURVE",
"411 745 CURVE SMOOTH",
"173 745 OFFCURVE",
"27 629 OFFCURVE",
"27 370 CURVE SMOOTH",
"27 115 OFFCURVE",
"155 -5 OFFCURVE",
"401 -5 CURVE SMOOTH"
);
},
{
closed = 1;
nodes = (
"282 157 OFFCURVE",
"227 206 OFFCURVE",
"227 370 CURVE SMOOTH",
"227 533 OFFCURVE",
"282 582 OFFCURVE",
"374 582 CURVE SMOOTH",
"385 582 OFFCURVE",
"402 582 OFFCURVE",
"424 581 CURVE",
"424 158 LINE",
"402 157 OFFCURVE",
"388 157 OFFCURVE",
"374 157 CURVE SMOOTH"
);
},
{
closed = 1;
nodes = (
"846 294 LINE",
"846 461 LINE",
"563 461 LINE",
"563 294 LINE"
);
}
);
width = 932;
},
{
anchors = (
{
name = bottom;
position = "{617, 0}";
},
{
name = top;
position = "{617, 760}";
}
);
background = {
anchors = (
{
name = bottom;
position = "{617, 0}";
},
{
name = top;
position = "{617, 760}";
}
);
paths = (
{
closed = 1;
nodes = (
"508 -5 OFFCURVE",
"591 0 OFFCURVE",
"640 0 CURVE SMOOTH",
"1060 0 LINE",
"1060 33 LINE",
"634 33 LINE",
"634 707 LINE",
"1055 707 LINE",
"1055 740 LINE",
"630 740 LINE SMOOTH",
"574 740 OFFCURVE",
"504 747 OFFCURVE",
"447 747 CURVE SMOOTH",
"200 747 OFFCURVE",
"66 621 OFFCURVE",
"66 370 CURVE SMOOTH",
"66 119 OFFCURVE",
"200 -5 OFFCURVE",
"451 -5 CURVE SMOOTH"
);
},
{
closed = 1;
nodes = (
"222 28 OFFCURVE",
"102 136 OFFCURVE",
"102 370 CURVE SMOOTH",
"102 604 OFFCURVE",
"222 714 OFFCURVE",
"450 714 CURVE SMOOTH",
"509 714 OFFCURVE",
"551 711 OFFCURVE",
"600 706 CURVE",
"600 34 LINE",
"567 30 OFFCURVE",
"520 28 OFFCURVE",
"450 28 CURVE SMOOTH"
);
},
{
closed = 1;
nodes = (
"1005 364 LINE",
"1005 397 LINE",
"630 397 LINE",
"630 364 LINE"
);
}
);
};
color = -1;
layerId = "E28BEEB5-BD92-4E7A-B4EA-FC5E5BBBF580";
paths = (
{
closed = 1;
nodes = (
"508 -5 OFFCURVE",
"591 0 OFFCURVE",
"640 0 CURVE SMOOTH",
"1060 0 LINE",
"1060 33 LINE",
"634 33 LINE",
"634 707 LINE",
"1055 707 LINE",
"1055 740 LINE",
"630 740 LINE SMOOTH",
"574 740 OFFCURVE",
"504 747 OFFCURVE",
"447 747 CURVE SMOOTH",
"200 747 OFFCURVE",
"66 621 OFFCURVE",
"66 370 CURVE SMOOTH",
"66 119 OFFCURVE",
"200 -5 OFFCURVE",
"451 -5 CURVE SMOOTH"
);
},
{
closed = 1;
nodes = (
"222 28 OFFCURVE",
"102 136 OFFCURVE",
"102 370 CURVE SMOOTH",
"102 604 OFFCURVE",
"222 714 OFFCURVE",
"450 714 CURVE SMOOTH",
"509 714 OFFCURVE",
"551 711 OFFCURVE",
"600 706 CURVE",
"600 34 LINE",
"567 30 OFFCURVE",
"520 28 OFFCURVE",
"450 28 CURVE SMOOTH"
);
},
{
closed = 1;
nodes = (
"1005 364 LINE",
"1005 397 LINE",
"630 397 LINE",
"630 364 LINE"
);
}
);
width = 1111;
},
{
anchors = (
{
name = bottom;
position = "{706, 0}";
},
{
name = top;
position = "{706, 760}";
}
);
background = {
paths = (
{
closed = 1;
nodes = (
"625 -7 OFFCURVE",
"690 0 OFFCURVE",
"753 0 CURVE SMOOTH",
"1209 0 LINE",
"1209 180 LINE",
"823 180 LINE",
"823 560 LINE",
"1204 560 LINE",
"1204 740 LINE",
"753 740 LINE SMOOTH",
"689 740 OFFCURVE",
"622 747 OFFCURVE",
"565 747 CURVE SMOOTH",
"217 747 OFFCURVE",
"41 631 OFFCURVE",
"41 370 CURVE SMOOTH",
"41 99 OFFCURVE",
"207 -7 OFFCURVE",
"575 -7 CURVE SMOOTH"
);
},
{
closed = 1;
nodes = (
"352 179 OFFCURVE",
"280 236 OFFCURVE",
"280 368 CURVE SMOOTH",
"280 504 OFFCURVE",
"352 561 OFFCURVE",
"510 561 CURVE SMOOTH",
"539 561 OFFCURVE",
"564 561 OFFCURVE",
"588 559 CURVE",
"588 181 LINE",
"564 179 OFFCURVE",
"533 179 OFFCURVE",
"510 179 CURVE SMOOTH"
);
},
{
closed = 1;
nodes = (
"1151 290 LINE",
"1151 465 LINE",
"702 465 LINE",
"702 290 LINE"
);
}
);
};
color = -1;
layerId = "1E90A949-97C4-49F5-AA9A-AF35B6FD63CF";
paths = (
{
closed = 1;
nodes = (
"625 -7 OFFCURVE",
"690 0 OFFCURVE",
"753 0 CURVE SMOOTH",
"1209 0 LINE",
"1209 177 LINE",
"823 177 LINE",
"823 563 LINE",
"1204 563 LINE",
"1204 740 LINE",
"753 740 LINE SMOOTH",
"689 740 OFFCURVE",
"622 747 OFFCURVE",
"565 747 CURVE SMOOTH",
"217 747 OFFCURVE",
"41 631 OFFCURVE",
"41 370 CURVE SMOOTH",
"41 99 OFFCURVE",
"207 -7 OFFCURVE",
"575 -7 CURVE SMOOTH"
);
},
{
closed = 1;
nodes = (
"352 179 OFFCURVE",
"280 236 OFFCURVE",
"280 368 CURVE SMOOTH",
"280 504 OFFCURVE",
"352 561 OFFCURVE",
"510 561 CURVE SMOOTH",
"539 561 OFFCURVE",
"564 561 OFFCURVE",
"588 559 CURVE",
"588 181 LINE",
"564 179 OFFCURVE",
"533 179 OFFCURVE",
"510 179 CURVE SMOOTH"
);
},
{
closed = 1;
nodes = (
"1151 290 LINE",
"1151 465 LINE",
"702 465 LINE",
"702 290 LINE"
);
}
);
width = 1251;
}
);
leftKerningGroup = KERN_O_2ND;
leftMetricsKey = O;
rightKerningGroup = KERN_E_1ST;
rightMetricsKey = E;
unicode = 0152;
},
{
glyphname = P;
lastChange = "2016-12-08 16:06:02 +0000";
layers = (
{
background = {
paths = (
{
closed = 1;
nodes = (
"116 0 LINE",
"116 262 LINE",
"145 260 OFFCURVE",
"173 259 OFFCURVE",
"197 259 CURVE SMOOTH",
"382 259 OFFCURVE",
"467 343 OFFCURVE",
"467 502 CURVE SMOOTH",
"467 670 OFFCURVE",
"382 747 OFFCURVE",
"218 747 CURVE SMOOTH",
"174 747 OFFCURVE",
"127 741 OFFCURVE",
"82 734 CURVE",
"82 0 LINE"
);
},
{
closed = 1;
nodes = (
"166 292 OFFCURVE",
"146 293 OFFCURVE",
"116 296 CURVE",
"116 706 LINE",
"154 711 OFFCURVE",
"187 714 OFFCURVE",
"218 714 CURVE SMOOTH",
"362 714 OFFCURVE",
"431 650 OFFCURVE",
"431 500 CURVE SMOOTH",
"431 359 OFFCURVE",
"357 292 OFFCURVE",
"200 292 CURVE SMOOTH"
);
}
);
};
color = -1;
layerId = "ECFF4977-BDCC-4836-B4AC-1801CF0EB460";
paths = (
{
closed = 1;
nodes = (
"116 0 LINE",
"116 263 LINE",
"145 260 OFFCURVE",
"173 259 OFFCURVE",
"204 259 CURVE SMOOTH",
"395 259 OFFCURVE",
"481 343 OFFCURVE",
"481 502 CURVE SMOOTH",
"481 670 OFFCURVE",
"395 747 OFFCURVE",
"225 747 CURVE SMOOTH",
"174 747 OFFCURVE",
"125 741 OFFCURVE",
"82 734 CURVE",
"82 0 LINE"
);
},
{
closed = 1;
nodes = (
"176 292 OFFCURVE",
"146 293 OFFCURVE",
"116 297 CURVE",
"116 706 LINE",
"151 711 OFFCURVE",
"187 714 OFFCURVE",
"225 714 CURVE SMOOTH",
"375 714 OFFCURVE",
"445 650 OFFCURVE",
"445 500 CURVE SMOOTH",
"445 359 OFFCURVE",
"370 292 OFFCURVE",
"207 292 CURVE SMOOTH"
);
}
);
width = 527;
},
{
background = {
paths = (
{
closed = 1;
nodes = (
"239 0 LINE",
"239 198 LINE",
"256 198 OFFCURVE",
"268 197 OFFCURVE",
"288 197 CURVE SMOOTH",
"478 197 OFFCURVE",
"585 290 OFFCURVE",
"585 473 CURVE SMOOTH",
"585 665 OFFCURVE",
"477 750 OFFCURVE",
"264 750 CURVE SMOOTH",
"184 750 OFFCURVE",
"111 740 OFFCURVE",
"43 725 CURVE",
"43 0 LINE"
);
},
{
closed = 1;
nodes = (
"268 354 OFFCURVE",
"254 355 OFFCURVE",
"239 357 CURVE",
"239 589 LINE",
"252 592 OFFCURVE",
"263 593 OFFCURVE",
"283 593 CURVE SMOOTH",
"359 593 OFFCURVE",
"395 557 OFFCURVE",
"395 471 CURVE SMOOTH",
"395 385 OFFCURVE",
"359 354 OFFCURVE",
"288 354 CURVE SMOOTH"
);
}
);
};
color = -1;
layerId = "C8FFBC04-9D7C-494A-A42D-BACB8E26599D";
paths = (
{
closed = 1;
nodes = (
"240 0 LINE",
"240 198 LINE",
"257 198 OFFCURVE",
"268 197 OFFCURVE",
"287 197 CURVE SMOOTH",
"478 197 OFFCURVE",
"586 292 OFFCURVE",
"586 473 CURVE SMOOTH",
"586 665 OFFCURVE",
"478 750 OFFCURVE",
"265 750 CURVE SMOOTH",
"185 750 OFFCURVE",
"112 740 OFFCURVE",
"44 725 CURVE",
"44 0 LINE"
);
},
{
closed = 1;
nodes = (
"269 354 OFFCURVE",
"255 355 OFFCURVE",
"240 357 CURVE",
"240 589 LINE",
"253 592 OFFCURVE",
"264 593 OFFCURVE",
"284 593 CURVE SMOOTH",
"360 593 OFFCURVE",
"396 557 OFFCURVE",
"396 471 CURVE SMOOTH",
"396 385 OFFCURVE",
"360 354 OFFCURVE",
"289 354 CURVE SMOOTH"
);
}
);
width = 609;
},
{
background = {
paths = (
{
closed = 1;
nodes = (
"139 0 LINE",
"139 266 LINE",
"189 261 OFFCURVE",
"217 259 OFFCURVE",
"265 259 CURVE SMOOTH",
"486 259 OFFCURVE",
"581 348 OFFCURVE",
"581 505 CURVE SMOOTH",
"581 673 OFFCURVE",
"474 747 OFFCURVE",
"292 747 CURVE SMOOTH",
"231 747 OFFCURVE",
"178 741 OFFCURVE",
"105 727 CURVE",
"105 0 LINE"
);
},
{
closed = 1;
nodes = (
"213 292 OFFCURVE",
"182 295 OFFCURVE",
"139 301 CURVE",
"139 700 LINE",
"189 709 OFFCURVE",
"238 714 OFFCURVE",
"292 714 CURVE SMOOTH",
"456 714 OFFCURVE",
"545 650 OFFCURVE",
"545 504 CURVE SMOOTH",
"545 365 OFFCURVE",
"465 292 OFFCURVE",
"265 292 CURVE SMOOTH"
);
}
);
};
color = -1;
layerId = "E28BEEB5-BD92-4E7A-B4EA-FC5E5BBBF580";
paths = (
{
closed = 1;
nodes = (
"139 0 LINE",
"139 266 LINE",
"189 261 OFFCURVE",
"227 259 OFFCURVE",
"275 259 CURVE SMOOTH",
"506 259 OFFCURVE",
"601 348 OFFCURVE",
"601 505 CURVE SMOOTH",
"601 673 OFFCURVE",
"494 747 OFFCURVE",
"302 747 CURVE SMOOTH",
"231 747 OFFCURVE",
"175 741 OFFCURVE",
"105 727 CURVE",
"105 0 LINE"
);
},
{
closed = 1;
nodes = (
"223 292 OFFCURVE",
"182 295 OFFCURVE",
"139 301 CURVE",
"139 700 LINE",
"187 709 OFFCURVE",
"238 714 OFFCURVE",
"302 714 CURVE SMOOTH",
"476 714 OFFCURVE",
"565 650 OFFCURVE",
"565 504 CURVE SMOOTH",
"565 365 OFFCURVE",
"485 292 OFFCURVE",
"275 292 CURVE SMOOTH"
);
}
);
width = 651;
},
{
background = {
paths = (
{
closed = 1;
nodes = (
"302 0 LINE",
"302 195 LINE",
"321 195 OFFCURVE",
"345 194 OFFCURVE",
"366 194 CURVE SMOOTH",
"600 194 OFFCURVE",
"724 287 OFFCURVE",
"724 472 CURVE SMOOTH",
"724 665 OFFCURVE",
"599 750 OFFCURVE",
"337 750 CURVE SMOOTH",
"235 750 OFFCURVE",
"146 740 OFFCURVE",
"64 725 CURVE",
"64 0 LINE"
);
},
{
closed = 1;
nodes = (
"342 357 OFFCURVE",
"325 358 OFFCURVE",
"302 360 CURVE",
"302 583 LINE",
"321 586 OFFCURVE",
"338 587 OFFCURVE",
"360 587 CURVE SMOOTH",
"454 587 OFFCURVE",
"495 553 OFFCURVE",
"495 472 CURVE SMOOTH",
"495 386 OFFCURVE",
"454 357 OFFCURVE",
"366 357 CURVE SMOOTH"
);
}
);
};
color = -1;
layerId = "1E90A949-97C4-49F5-AA9A-AF35B6FD63CF";
paths = (
{
closed = 1;
nodes = (
"302 0 LINE",
"302 195 LINE",
"321 195 OFFCURVE",
"343 194 OFFCURVE",
"364 194 CURVE SMOOTH",
"600 194 OFFCURVE",
"724 287 OFFCURVE",
"724 472 CURVE SMOOTH",
"724 665 OFFCURVE",
"597 750 OFFCURVE",
"337 750 CURVE SMOOTH",
"235 750 OFFCURVE",
"146 740 OFFCURVE",
"64 725 CURVE",
"64 0 LINE"
);
},
{
closed = 1;
nodes = (
"342 357 OFFCURVE",
"325 358 OFFCURVE",
"302 361 CURVE",
"302 583 LINE",
"321 586 OFFCURVE",
"338 587 OFFCURVE",
"360 587 CURVE SMOOTH",
"454 587 OFFCURVE",
"495 553 OFFCURVE",
"495 472 CURVE SMOOTH",
"495 386 OFFCURVE",
"454 357 OFFCURVE",
"366 357 CURVE SMOOTH"
);
}
);
width = 762;
}
);
leftKerningGroup = KERN_I_2ND;
leftMetricsKey = H;
unicode = 0050;
userData = {
com.typemytype.robofont.layerData = {
};
};
},
{
glyphname = Thorn;
lastChange = "2016-12-08 16:06:02 +0000";
layers = (
{
background = {
paths = (
{
closed = 1;
nodes = (
"115 -123 LINE",
"115 140 LINE",
"144 137 OFFCURVE",
"172 136 OFFCURVE",
"203 136 CURVE SMOOTH",
"394 136 OFFCURVE",
"480 220 OFFCURVE",
"480 379 CURVE SMOOTH",
"480 547 OFFCURVE",
"394 624 OFFCURVE",
"224 624 CURVE SMOOTH",
"173 624 OFFCURVE",
"124 618 OFFCURVE",
"81 611 CURVE",
"81 -123 LINE"
);
},
{
closed = 1;
nodes = (
"175 169 OFFCURVE",
"145 170 OFFCURVE",
"115 174 CURVE",
"115 583 LINE",
"150 588 OFFCURVE",
"186 591 OFFCURVE",
"224 591 CURVE SMOOTH",
"374 591 OFFCURVE",
"444 527 OFFCURVE",
"444 377 CURVE SMOOTH",
"444 236 OFFCURVE",
"369 169 OFFCURVE",
"206 169 CURVE SMOOTH"
);
}
);
};
color = -1;
layerId = "ECFF4977-BDCC-4836-B4AC-1801CF0EB460";
paths = (
{
closed = 1;
nodes = (
"116 0 LINE",
"116 140 LINE",
"145 137 OFFCURVE",
"173 136 OFFCURVE",
"204 136 CURVE SMOOTH",
"395 136 OFFCURVE",
"481 220 OFFCURVE",
"481 379 CURVE SMOOTH",
"481 547 OFFCURVE",
"395 624 OFFCURVE",
"225 624 CURVE SMOOTH",
"184 624 OFFCURVE",
"142 620 OFFCURVE",
"116 616 CURVE",
"116 740 LINE",
"82 740 LINE",
"82 0 LINE"
);
},
{
closed = 1;
nodes = (
"176 169 OFFCURVE",
"146 170 OFFCURVE",
"116 174 CURVE",
"116 583 LINE",
"151 588 OFFCURVE",
"187 591 OFFCURVE",
"225 591 CURVE SMOOTH",
"375 591 OFFCURVE",
"445 527 OFFCURVE",
"445 377 CURVE SMOOTH",
"445 236 OFFCURVE",
"370 169 OFFCURVE",
"207 169 CURVE SMOOTH"
);
}
);
width = 532;
},
{
background = {
paths = (
{
closed = 1;
nodes = (
"239 0 LINE",
"239 105 LINE",
"256 105 OFFCURVE",
"268 104 OFFCURVE",
"288 104 CURVE SMOOTH",
"478 104 OFFCURVE",
"585 197 OFFCURVE",
"585 380 CURVE SMOOTH",
"585 572 OFFCURVE",
"477 657 OFFCURVE",
"264 657 CURVE SMOOTH",
"256 657 OFFCURVE",
"247 657 OFFCURVE",
"239 657 CURVE",
"239 740 LINE",
"43 740 LINE",
"43 0 LINE"
);
},
{
closed = 1;
nodes = (
"268 261 OFFCURVE",
"254 262 OFFCURVE",
"239 264 CURVE",
"239 496 LINE",
"252 499 OFFCURVE",
"263 500 OFFCURVE",
"283 500 CURVE SMOOTH",
"359 500 OFFCURVE",
"395 464 OFFCURVE",
"395 378 CURVE SMOOTH",
"395 292 OFFCURVE",
"359 261 OFFCURVE",
"288 261 CURVE SMOOTH"
);
}
);
};
color = -1;
layerId = "C8FFBC04-9D7C-494A-A42D-BACB8E26599D";
paths = (
{
closed = 1;
nodes = (
"240 0 LINE",
"240 105 LINE",
"257 105 OFFCURVE",
"269 104 OFFCURVE",
"289 104 CURVE SMOOTH",
"479 104 OFFCURVE",
"586 197 OFFCURVE",
"586 380 CURVE SMOOTH",
"586 572 OFFCURVE",
"478 657 OFFCURVE",
"267 657 CURVE SMOOTH",
"259 657 OFFCURVE",
"248 656 OFFCURVE",
"240 656 CURVE",
"240 740 LINE",
"44 740 LINE",
"44 0 LINE"
);
},
{
closed = 1;
nodes = (
"269 261 OFFCURVE",
"255 262 OFFCURVE",
"240 264 CURVE",
"240 496 LINE",
"253 499 OFFCURVE",
"264 500 OFFCURVE",
"284 500 CURVE SMOOTH",
"360 500 OFFCURVE",
"396 464 OFFCURVE",
"396 378 CURVE SMOOTH",
"396 292 OFFCURVE",
"360 261 OFFCURVE",
"289 261 CURVE SMOOTH"
);
}
);
width = 614;
},
{
background = {
paths = (
{
closed = 1;
nodes = (
"139 -123 LINE",
"139 143 LINE",
"189 138 OFFCURVE",
"227 136 OFFCURVE",
"275 136 CURVE SMOOTH",
"506 136 OFFCURVE",
"601 225 OFFCURVE",
"601 382 CURVE SMOOTH",
"601 550 OFFCURVE",
"494 624 OFFCURVE",
"302 624 CURVE SMOOTH",
"231 624 OFFCURVE",
"175 618 OFFCURVE",
"105 604 CURVE",
"105 -123 LINE"
);
},
{
closed = 1;
nodes = (
"223 169 OFFCURVE",
"182 172 OFFCURVE",
"139 178 CURVE",
"139 577 LINE",
"187 586 OFFCURVE",
"238 591 OFFCURVE",
"302 591 CURVE SMOOTH",
"476 591 OFFCURVE",
"565 527 OFFCURVE",
"565 381 CURVE SMOOTH",
"565 242 OFFCURVE",
"485 169 OFFCURVE",
"275 169 CURVE SMOOTH"
);
}
);
};
color = -1;
layerId = "E28BEEB5-BD92-4E7A-B4EA-FC5E5BBBF580";
paths = (
{
closed = 1;
nodes = (
"139 0 LINE",
"139 143 LINE",
"189 138 OFFCURVE",
"227 136 OFFCURVE",
"275 136 CURVE SMOOTH",
"506 136 OFFCURVE",
"601 225 OFFCURVE",
"601 382 CURVE SMOOTH",
"601 550 OFFCURVE",
"494 624 OFFCURVE",
"302 624 CURVE SMOOTH",
"231 624 OFFCURVE",
"183 618 OFFCURVE",
"139 610 CURVE",
"139 741 LINE",
"105 741 LINE",
"105 0 LINE"
);
},
{
closed = 1;
nodes = (
"223 169 OFFCURVE",
"182 172 OFFCURVE",
"139 178 CURVE",
"139 577 LINE",
"187 586 OFFCURVE",
"238 591 OFFCURVE",
"302 591 CURVE SMOOTH",
"476 591 OFFCURVE",
"565 527 OFFCURVE",
"565 381 CURVE SMOOTH",
"565 242 OFFCURVE",
"485 169 OFFCURVE",
"275 169 CURVE SMOOTH"
);
}
);
width = 656;
},
{
background = {
paths = (
{
closed = 1;
nodes = (
"302 0 LINE",
"302 740 LINE",
"64 740 LINE",
"64 0 LINE"
);
},
{
closed = 1;
nodes = (
"302 103 LINE",
"321 103 OFFCURVE",
"345 102 OFFCURVE",
"366 102 CURVE SMOOTH",
"600 102 OFFCURVE",
"724 195 OFFCURVE",
"724 380 CURVE SMOOTH",
"724 573 OFFCURVE",
"599 658 OFFCURVE",
"337 658 CURVE SMOOTH",
"235 658 OFFCURVE",
"146 648 OFFCURVE",
"64 633 CURVE"
);
},
{
closed = 1;
nodes = (
"342 265 OFFCURVE",
"325 266 OFFCURVE",
"302 268 CURVE",
"302 491 LINE",
"321 494 OFFCURVE",
"338 495 OFFCURVE",
"360 495 CURVE SMOOTH",
"454 495 OFFCURVE",
"495 461 OFFCURVE",
"495 380 CURVE SMOOTH",
"495 294 OFFCURVE",
"454 265 OFFCURVE",
"366 265 CURVE SMOOTH"
);
}
);
};
color = -1;
layerId = "1E90A949-97C4-49F5-AA9A-AF35B6FD63CF";
paths = (
{
closed = 1;
nodes = (
"302 0 LINE",
"302 103 LINE",
"321 103 OFFCURVE",
"345 102 OFFCURVE",
"366 102 CURVE SMOOTH",
"600 102 OFFCURVE",
"724 195 OFFCURVE",
"724 380 CURVE SMOOTH",
"724 573 OFFCURVE",
"599 658 OFFCURVE",
"342 658 CURVE SMOOTH",
"330 658 OFFCURVE",
"314 657 OFFCURVE",
"302 657 CURVE",
"302 740 LINE",
"64 740 LINE",
"64 0 LINE"
);
},
{
closed = 1;
nodes = (
"342 265 OFFCURVE",
"325 266 OFFCURVE",
"302 268 CURVE",
"302 491 LINE",
"321 494 OFFCURVE",
"338 495 OFFCURVE",
"360 495 CURVE SMOOTH",
"454 495 OFFCURVE",
"495 461 OFFCURVE",
"495 380 CURVE SMOOTH",
"495 294 OFFCURVE",
"454 265 OFFCURVE",
"366 265 CURVE SMOOTH"
);
}
);
width = 767;
}
);
leftKerningGroup = KERN_I_2ND;
leftMetricsKey = H;
rightMetricsKey = "=P+5";
unicode = 00DE;
userData = {
com.typemytype.robofont.layerData = {
};
};
},
{
glyphname = Q;
lastChange = "2016-12-08 16:06:02 +0000";
layers = (
{
background = {
paths = (
{
closed = 1;
nodes = (
"521 -57 LINE",
"429 -48 OFFCURVE",
"323 -29 OFFCURVE",
"246 11 CURVE",
"256 -4 LINE",
"442 -30 OFFCURVE",
"533 101 OFFCURVE",
"533 370 CURVE SMOOTH",
"533 649 OFFCURVE",
"439 749 OFFCURVE",
"291 749 CURVE SMOOTH",
"143 749 OFFCURVE",
"49 649 OFFCURVE",
"49 370 CURVE SMOOTH",
"49 54 OFFCURVE",
"157 -45 OFFCURVE",
"516 -91 CURVE"
);
},
{
closed = 1;
nodes = (
"167 24 OFFCURVE",
"85 103 OFFCURVE",
"85 372 CURVE SMOOTH",
"85 637 OFFCURVE",
"167 716 OFFCURVE",
"291 716 CURVE SMOOTH",
"415 716 OFFCURVE",
"497 637 OFFCURVE",
"497 368 CURVE SMOOTH",
"497 103 OFFCURVE",
"415 24 OFFCURVE",
"291 24 CURVE SMOOTH"
);
}
);
};
color = -1;
layerId = "ECFF4977-BDCC-4836-B4AC-1801CF0EB460";
paths = (
{
closed = 1;
nodes = (
"522 -57 LINE",
"429 -48 OFFCURVE",
"323 -29 OFFCURVE",
"246 11 CURVE",
"256 -4 LINE",
"442 -30 OFFCURVE",
"533 101 OFFCURVE",
"533 370 CURVE SMOOTH",
"533 649 OFFCURVE",
"439 749 OFFCURVE",
"291 749 CURVE SMOOTH",
"143 749 OFFCURVE",
"49 649 OFFCURVE",
"49 370 CURVE SMOOTH",
"49 54 OFFCURVE",
"157 -45 OFFCURVE",
"516 -90 CURVE"
);
},
{
closed = 1;
nodes = (
"167 24 OFFCURVE",
"85 103 OFFCURVE",
"85 372 CURVE SMOOTH",
"85 637 OFFCURVE",
"167 716 OFFCURVE",
"291 716 CURVE SMOOTH",
"415 716 OFFCURVE",
"497 637 OFFCURVE",
"497 368 CURVE SMOOTH",
"497 103 OFFCURVE",
"415 24 OFFCURVE",
"291 24 CURVE SMOOTH"
);
}
);
width = 582;
},
{
background = {
paths = (
{
closed = 1;
nodes = (
"541 -10 OFFCURVE",
"670 102 OFFCURVE",
"670 370 CURVE SMOOTH",
"670 638 OFFCURVE",
"538 750 OFFCURVE",
"348 750 CURVE SMOOTH",
"158 750 OFFCURVE",
"26 638 OFFCURVE",
"26 370 CURVE SMOOTH",
"26 102 OFFCURVE",
"155 -10 OFFCURVE",
"348 -10 CURVE SMOOTH"
);
},
{
closed = 1;
nodes = (
"269 152 OFFCURVE",
"226 207 OFFCURVE",
"226 374 CURVE SMOOTH",
"226 533 OFFCURVE",
"269 588 OFFCURVE",
"348 588 CURVE SMOOTH",
"427 588 OFFCURVE",
"470 533 OFFCURVE",
"470 366 CURVE SMOOTH",
"470 207 OFFCURVE",
"427 152 OFFCURVE",
"348 152 CURVE SMOOTH"
);
}
);
};
color = -1;
layerId = "C8FFBC04-9D7C-494A-A42D-BACB8E26599D";
paths = (
{
closed = 1;
nodes = (
"659 -18 LINE",
"575 -6 OFFCURVE",
"492 16 OFFCURVE",
"367 65 CURVE",
"303 17 LINE",
"537 -17 OFFCURVE",
"671 112 OFFCURVE",
"671 370 CURVE SMOOTH",
"671 638 OFFCURVE",
"539 750 OFFCURVE",
"349 750 CURVE SMOOTH",
"159 750 OFFCURVE",
"27 638 OFFCURVE",
"27 370 CURVE SMOOTH",
"27 92 OFFCURVE",
"172 -90 OFFCURVE",
"622 -177 CURVE"
);
},
{
closed = 1;
nodes = (
"270 152 OFFCURVE",
"227 207 OFFCURVE",
"227 374 CURVE SMOOTH",
"227 533 OFFCURVE",
"270 588 OFFCURVE",
"349 588 CURVE SMOOTH",
"428 588 OFFCURVE",
"471 533 OFFCURVE",
"471 366 CURVE SMOOTH",
"471 207 OFFCURVE",
"428 152 OFFCURVE",
"349 152 CURVE SMOOTH"
);
}
);
width = 698;
},
{
background = {
paths = (
{
closed = 1;
nodes = (
"695 -57 LINE",
"575 -51 OFFCURVE",
"434 -30 OFFCURVE",
"346 5 CURVE",
"341 -4 LINE",
"580 -28 OFFCURVE",
"714 98 OFFCURVE",
"714 370 CURVE SMOOTH",
"714 642 OFFCURVE",
"578 749 OFFCURVE",
"390 749 CURVE SMOOTH",
"202 749 OFFCURVE",
"66 636 OFFCURVE",
"66 370 CURVE SMOOTH",
"66 73 OFFCURVE",
"209 -49 OFFCURVE",
"695 -91 CURVE"
);
},
{
closed = 1;
nodes = (
"220 25 OFFCURVE",
"102 121 OFFCURVE",
"102 372 CURVE SMOOTH",
"102 619 OFFCURVE",
"220 715 OFFCURVE",
"390 715 CURVE SMOOTH",
"560 715 OFFCURVE",
"678 619 OFFCURVE",
"678 368 CURVE SMOOTH",
"678 121 OFFCURVE",
"560 25 OFFCURVE",
"390 25 CURVE SMOOTH"
);
}
);
};
color = -1;
layerId = "E28BEEB5-BD92-4E7A-B4EA-FC5E5BBBF580";
paths = (
{
closed = 1;
nodes = (
"698 -57 LINE",
"577 -49 OFFCURVE",
"434 -30 OFFCURVE",
"346 5 CURVE",
"341 -4 LINE",
"580 -28 OFFCURVE",
"714 98 OFFCURVE",
"714 370 CURVE SMOOTH",
"714 642 OFFCURVE",
"578 749 OFFCURVE",
"390 749 CURVE SMOOTH",
"202 749 OFFCURVE",
"66 636 OFFCURVE",
"66 370 CURVE SMOOTH",
"66 73 OFFCURVE",
"209 -49 OFFCURVE",
"694 -90 CURVE"
);
},
{
closed = 1;
nodes = (
"220 25 OFFCURVE",
"102 121 OFFCURVE",
"102 372 CURVE SMOOTH",
"102 619 OFFCURVE",
"220 715 OFFCURVE",
"390 715 CURVE SMOOTH",
"560 715 OFFCURVE",
"678 619 OFFCURVE",
"678 368 CURVE SMOOTH",
"678 121 OFFCURVE",
"560 25 OFFCURVE",
"390 25 CURVE SMOOTH"
);
}
);
width = 780;
},
{
background = {
paths = (
{
closed = 1;
nodes = (
"739 -10 OFFCURVE",
"903 137 OFFCURVE",
"903 370 CURVE SMOOTH",
"903 603 OFFCURVE",
"740 750 OFFCURVE",
"472 750 CURVE SMOOTH",
"204 750 OFFCURVE",
"41 605 OFFCURVE",
"41 370 CURVE SMOOTH",
"41 135 OFFCURVE",
"205 -10 OFFCURVE",
"472 -10 CURVE SMOOTH"
);
},
{
closed = 1;
nodes = (
"347 174 OFFCURVE",
"281 240 OFFCURVE",
"281 374 CURVE SMOOTH",
"281 500 OFFCURVE",
"350 566 OFFCURVE",
"472 566 CURVE SMOOTH",
"594 566 OFFCURVE",
"663 497 OFFCURVE",
"663 366 CURVE SMOOTH",
"663 243 OFFCURVE",
"597 174 OFFCURVE",
"472 174 CURVE SMOOTH"
);
},
{
closed = 1;
nodes = (
"894 -22 LINE",
"744 -6 OFFCURVE",
"617 21 OFFCURVE",
"496 62 CURVE",
"392 10 LINE",
"743 -33 OFFCURVE",
"903 137 OFFCURVE",
"903 370 CURVE SMOOTH",
"903 603 OFFCURVE",
"740 750 OFFCURVE",
"472 750 CURVE SMOOTH",
"204 750 OFFCURVE",
"41 605 OFFCURVE",
"41 370 CURVE SMOOTH",
"41 122 OFFCURVE",
"229 -107 OFFCURVE",
"859 -195 CURVE"
);
},
{
closed = 1;
nodes = (
"347 174 OFFCURVE",
"281 240 OFFCURVE",
"281 374 CURVE SMOOTH",
"281 500 OFFCURVE",
"350 566 OFFCURVE",
"472 566 CURVE SMOOTH",
"594 566 OFFCURVE",
"663 497 OFFCURVE",
"663 366 CURVE SMOOTH",
"663 243 OFFCURVE",
"597 174 OFFCURVE",
"472 174 CURVE SMOOTH"
);
}
);
};
color = -1;
layerId = "1E90A949-97C4-49F5-AA9A-AF35B6FD63CF";
paths = (
{
closed = 1;
nodes = (
"899 -22 LINE",
"744 -3 OFFCURVE",
"604 25 OFFCURVE",
"473 70 CURVE",
"392 14 LINE",
"745 -30 OFFCURVE",
"903 137 OFFCURVE",
"903 370 CURVE SMOOTH",
"903 603 OFFCURVE",
"740 750 OFFCURVE",
"472 750 CURVE SMOOTH",
"204 750 OFFCURVE",
"41 605 OFFCURVE",
"41 360 CURVE SMOOTH",
"41 112 OFFCURVE",
"209 -102 OFFCURVE",
"864 -197 CURVE"
);
},
{
closed = 1;
nodes = (
"345 174 OFFCURVE",
"281 238 OFFCURVE",
"281 374 CURVE SMOOTH",
"281 500 OFFCURVE",
"350 566 OFFCURVE",
"472 566 CURVE SMOOTH",
"594 566 OFFCURVE",
"663 497 OFFCURVE",
"663 366 CURVE SMOOTH",
"663 243 OFFCURVE",
"597 174 OFFCURVE",
"472 174 CURVE SMOOTH"
);
}
);
width = 944;
}
);
leftKerningGroup = KERN_O_2ND;
leftMetricsKey = O;
widthMetricsKey = O;
rightKerningGroup = KERN_O_1ST;
unicode = 0051;
userData = {
com.typemytype.robofont.layerData = {
};
};
},
{
glyphname = R;
lastChange = "2016-12-08 16:06:02 +0000";
layers = (
{
anchors = (
{
name = bottom;
position = "{298, 0}";
},
{
name = top;
position = "{263, 760}";
}
);
background = {
guideLines = (
{
position = "{226, 315}";
}
);
paths = (
{
closed = 1;
nodes = (
"2166 0 LINE",
"2166 331 LINE",
"2190 330 OFFCURVE",
"2214 329 OFFCURVE",
"2235 329 CURVE SMOOTH",
"2430 329 OFFCURVE",
"2517 407 OFFCURVE",
"2517 540 CURVE SMOOTH",
"2517 682 OFFCURVE",
"2431 747 OFFCURVE",
"2268 747 CURVE SMOOTH",
"2214 747 OFFCURVE",
"2175 742 OFFCURVE",
"2132 735 CURVE",
"2132 0 LINE"
);
},
{
closed = 1;
nodes = (
"2575 0 LINE",
"2360 356 LINE",
"2321 356 LINE",
"2536 0 LINE"
);
},
{
closed = 1;
nodes = (
"2216 362 OFFCURVE",
"2192 363 OFFCURVE",
"2166 365 CURVE",
"2166 705 LINE",
"2204 712 OFFCURVE",
"2237 714 OFFCURVE",
"2267 714 CURVE SMOOTH",
"2416 714 OFFCURVE",
"2481 659 OFFCURVE",
"2481 538 CURVE SMOOTH",
"2481 422 OFFCURVE",
"2412 362 OFFCURVE",
"2237 362 CURVE SMOOTH"
);
},
{
closed = 1;
nodes = (
"1666 0 LINE",
"1666 364 LINE",
"1690 364 OFFCURVE",
"1764 364 OFFCURVE",
"1795 364 CURVE SMOOTH",
"1946 364 OFFCURVE",
"2033 424 OFFCURVE",
"2033 555 CURVE SMOOTH",
"2033 687 OFFCURVE",
"1960 747 OFFCURVE",
"1788 747 CURVE SMOOTH",
"1736 747 OFFCURVE",
"1685 742 OFFCURVE",
"1632 732 CURVE",
"1632 0 LINE"
);
},
{
closed = 1;
nodes = (
"2075 0 LINE",
"1848 376 LINE",
"1809 376 LINE",
"2036 0 LINE"
);
},
{
closed = 1;
nodes = (
"1772 397 OFFCURVE",
"1692 397 OFFCURVE",
"1666 397 CURVE",
"1666 703 LINE",
"1706 711 OFFCURVE",
"1744 714 OFFCURVE",
"1786 714 CURVE SMOOTH",
"1940 714 OFFCURVE",
"1997 669 OFFCURVE",
"1997 555 CURVE SMOOTH",
"1997 456 OFFCURVE",
"1950 397 OFFCURVE",
"1793 397 CURVE SMOOTH"
);
},
{
closed = 1;
nodes = (
"1166 0 LINE",
"1166 345 LINE",
"1190 345 OFFCURVE",
"1254 345 OFFCURVE",
"1295 345 CURVE SMOOTH",
"1467 345 OFFCURVE",
"1554 416 OFFCURVE",
"1554 549 CURVE SMOOTH",
"1554 679 OFFCURVE",
"1474 747 OFFCURVE",
"1288 747 CURVE SMOOTH",
"1236 747 OFFCURVE",
"1185 742 OFFCURVE",
"1132 732 CURVE",
"1132 0 LINE"
);
},
{
closed = 1;
nodes = (
"1575 0 LINE",
"1348 357 LINE",
"1309 357 LINE",
"1536 0 LINE"
);
},
{
closed = 1;
nodes = (
"1262 378 OFFCURVE",
"1192 378 OFFCURVE",
"1166 378 CURVE",
"1166 703 LINE",
"1206 711 OFFCURVE",
"1244 714 OFFCURVE",
"1286 714 CURVE SMOOTH",
"1452 714 OFFCURVE",
"1518 662 OFFCURVE",
"1518 547 CURVE SMOOTH",
"1518 436 OFFCURVE",
"1455 378 OFFCURVE",
"1303 378 CURVE SMOOTH"
);
},
{
closed = 1;
nodes = (
"616 0 LINE",
"616 345 LINE",
"640 345 OFFCURVE",
"704 345 OFFCURVE",
"745 345 CURVE SMOOTH",
"917 345 OFFCURVE",
"1004 416 OFFCURVE",
"1004 549 CURVE SMOOTH",
"1004 679 OFFCURVE",
"924 747 OFFCURVE",
"738 747 CURVE SMOOTH",
"686 747 OFFCURVE",
"635 742 OFFCURVE",
"582 732 CURVE",
"582 0 LINE"
);
},
{
closed = 1;
nodes = (
"1025 0 LINE",
"798 357 LINE",
"759 357 LINE",
"986 0 LINE"
);
},
{
closed = 1;
nodes = (
"712 378 OFFCURVE",
"642 378 OFFCURVE",
"616 378 CURVE",
"616 703 LINE",
"656 711 OFFCURVE",
"694 714 OFFCURVE",
"736 714 CURVE SMOOTH",
"902 714 OFFCURVE",
"968 662 OFFCURVE",
"968 547 CURVE SMOOTH",
"968 436 OFFCURVE",
"905 378 OFFCURVE",
"753 378 CURVE SMOOTH"
);
},
{
closed = 1;
nodes = (
"116 0 LINE",
"116 329 LINE",
"140 327 OFFCURVE",
"164 326 OFFCURVE",
"203 326 CURVE SMOOTH",
"387 326 OFFCURVE",
"482 398 OFFCURVE",
"480 540 CURVE SMOOTH",
"480 677 OFFCURVE",
"400 747 OFFCURVE",
"234 747 CURVE SMOOTH",
"174 747 OFFCURVE",
"127 741 OFFCURVE",
"82 732 CURVE",
"82 0 LINE"
);
},
{
closed = 1;
nodes = (
"540 0 LINE",
"300 354 LINE",
"259 354 LINE",
"499 0 LINE"
);
},
{
closed = 1;
nodes = (
"171 358 OFFCURVE",
"150 359 OFFCURVE",
"116 361 CURVE",
"116 703 LINE",
"154 711 OFFCURVE",
"187 714 OFFCURVE",
"231 714 CURVE SMOOTH",
"385 714 OFFCURVE",
"446 657 OFFCURVE",
"446 539 CURVE SMOOTH",
"446 416 OFFCURVE",
"373 358 OFFCURVE",
"200 358 CURVE SMOOTH"
);
}
);
};
color = -1;
layerId = "ECFF4977-BDCC-4836-B4AC-1801CF0EB460";
paths = (
{
closed = 1;
nodes = (
"116 0 LINE",
"116 329 LINE",
"140 327 OFFCURVE",
"164 326 OFFCURVE",
"203 326 CURVE SMOOTH",
"387 326 OFFCURVE",
"482 398 OFFCURVE",
"480 540 CURVE SMOOTH",
"480 677 OFFCURVE",
"400 747 OFFCURVE",
"234 747 CURVE SMOOTH",
"174 747 OFFCURVE",
"127 741 OFFCURVE",
"82 734 CURVE",
"82 0 LINE"
);
},
{
closed = 1;
nodes = (
"540 0 LINE",
"289 349 LINE",
"250 349 LINE",
"500 0 LINE"
);
},
{
closed = 1;
nodes = (
"171 358 OFFCURVE",
"150 359 OFFCURVE",
"116 361 CURVE",
"116 705 LINE",
"154 711 OFFCURVE",
"187 714 OFFCURVE",
"231 714 CURVE SMOOTH",
"385 714 OFFCURVE",
"446 657 OFFCURVE",
"446 539 CURVE SMOOTH",
"446 416 OFFCURVE",
"373 358 OFFCURVE",
"200 358 CURVE SMOOTH"
);
}
);
width = 561;
},
{
anchors = (
{
name = bottom;
position = "{341, 0}";
},
{
name = top;
position = "{311, 760}";
}
);
background = {
paths = (
{
closed = 1;
nodes = (
"236 0 LINE",
"236 263 LINE",
"256 263 OFFCURVE",
"268 261 OFFCURVE",
"291 261 CURVE SMOOTH",
"466 261 OFFCURVE",
"583 345 OFFCURVE",
"583 505 CURVE SMOOTH",
"583 675 OFFCURVE",
"475 750 OFFCURVE",
"267 750 CURVE SMOOTH",
"184 750 OFFCURVE",
"111 740 OFFCURVE",
"43 725 CURVE",
"43 0 LINE"
);
},
{
closed = 1;
nodes = (
"658 0 LINE",
"430 340 LINE",
"225 340 LINE",
"449 0 LINE"
);
},
{
closed = 1;
nodes = (
"268 417 OFFCURVE",
"254 419 OFFCURVE",
"236 420 CURVE",
"236 590 LINE",
"252 593 OFFCURVE",
"269 596 OFFCURVE",
"295 596 CURVE SMOOTH",
"362 596 OFFCURVE",
"398 567 OFFCURVE",
"398 505 CURVE SMOOTH",
"398 440 OFFCURVE",
"362 417 OFFCURVE",
"291 417 CURVE SMOOTH"
);
}
);
};
color = -1;
layerId = "C8FFBC04-9D7C-494A-A42D-BACB8E26599D";
paths = (
{
closed = 1;
nodes = (
"237 0 LINE",
"237 252 LINE",
"255 252 OFFCURVE",
"269 251 OFFCURVE",
"292 251 CURVE SMOOTH",
"465 251 OFFCURVE",
"584 337 OFFCURVE",
"584 500 CURVE SMOOTH",
"584 668 OFFCURVE",
"479 750 OFFCURVE",
"268 750 CURVE SMOOTH",
"185 750 OFFCURVE",
"112 740 OFFCURVE",
"44 725 CURVE",
"44 0 LINE"
);
},
{
closed = 1;
nodes = (
"637 0 LINE",
"432 336 LINE",
"230 336 LINE",
"429 0 LINE"
);
},
{
closed = 1;
nodes = (
"269 404 OFFCURVE",
"255 405 OFFCURVE",
"237 407 CURVE",
"237 594 LINE",
"253 597 OFFCURVE",
"270 599 OFFCURVE",
"296 599 CURVE SMOOTH",
"360 599 OFFCURVE",
"399 568 OFFCURVE",
"399 500 CURVE SMOOTH",
"399 429 OFFCURVE",
"360 404 OFFCURVE",
"292 404 CURVE SMOOTH"
);
}
);
width = 637;
},
{
anchors = (
{
name = bottom;
position = "{359, 0}";
},
{
name = top;
position = "{336, 760}";
}
);
background = {
anchors = (
{
name = bottom;
position = "{341, 0}";
},
{
name = top;
position = "{336, 760}";
}
);
paths = (
{
closed = 1;
nodes = (
"139 0 LINE",
"139 332 LINE",
"189 328 OFFCURVE",
"228 325 OFFCURVE",
"285 325 CURVE SMOOTH",
"502 325 OFFCURVE",
"604 396 OFFCURVE",
"604 538 CURVE SMOOTH",
"604 687 OFFCURVE",
"511 747 OFFCURVE",
"308 747 CURVE SMOOTH",
"220 747 OFFCURVE",
"161 738 OFFCURVE",
"105 727 CURVE",
"105 0 LINE"
);
},
{
closed = 1;
nodes = (
"654 0 LINE",
"355 354 LINE",
"311 354 LINE",
"610 0 LINE"
);
},
{
closed = 1;
nodes = (
"221 358 OFFCURVE",
"193 360 OFFCURVE",
"139 365 CURVE",
"139 699 LINE",
"189 708 OFFCURVE",
"232 714 OFFCURVE",
"307 714 CURVE SMOOTH",
"492 714 OFFCURVE",
"570 670 OFFCURVE",
"570 536 CURVE SMOOTH",
"570 418 OFFCURVE",
"489 358 OFFCURVE",
"286 358 CURVE SMOOTH"
);
}
);
};
color = -1;
layerId = "E28BEEB5-BD92-4E7A-B4EA-FC5E5BBBF580";
paths = (
{
closed = 1;
nodes = (
"139 0 LINE",
"139 332 LINE",
"189 328 OFFCURVE",
"228 325 OFFCURVE",
"285 325 CURVE SMOOTH",
"502 325 OFFCURVE",
"604 396 OFFCURVE",
"604 538 CURVE SMOOTH",
"604 687 OFFCURVE",
"511 747 OFFCURVE",
"308 747 CURVE SMOOTH",
"220 747 OFFCURVE",
"161 738 OFFCURVE",
"105 727 CURVE",
"105 0 LINE"
);
},
{
closed = 1;
nodes = (
"654 0 LINE",
"354 354 LINE",
"312 354 LINE",
"611 0 LINE"
);
},
{
closed = 1;
nodes = (
"221 358 OFFCURVE",
"193 360 OFFCURVE",
"139 365 CURVE",
"139 699 LINE",
"189 708 OFFCURVE",
"232 714 OFFCURVE",
"307 714 CURVE SMOOTH",
"492 714 OFFCURVE",
"570 670 OFFCURVE",
"570 536 CURVE SMOOTH",
"570 418 OFFCURVE",
"489 358 OFFCURVE",
"286 358 CURVE SMOOTH"
);
}
);
width = 719;
},
{
anchors = (
{
name = bottom;
position = "{408, 0}";
},
{
name = top;
position = "{397, 760}";
}
);
background = {
paths = (
{
closed = 1;
nodes = (
"297 0 LINE",
"297 261 LINE",
"321 261 OFFCURVE",
"345 260 OFFCURVE",
"366 260 CURVE SMOOTH",
"581 260 OFFCURVE",
"715 340 OFFCURVE",
"715 504 CURVE SMOOTH",
"715 675 OFFCURVE",
"589 750 OFFCURVE",
"348 750 CURVE SMOOTH",
"261 750 OFFCURVE",
"143 735 OFFCURVE",
"64 716 CURVE",
"64 0 LINE"
);
},
{
closed = 1;
nodes = (
"792 0 LINE",
"538 340 LINE",
"281 340 LINE",
"531 0 LINE"
);
},
{
closed = 1;
nodes = (
"352 420 OFFCURVE",
"325 422 OFFCURVE",
"297 424 CURVE",
"297 581 LINE",
"321 584 OFFCURVE",
"348 588 OFFCURVE",
"370 588 CURVE SMOOTH",
"454 588 OFFCURVE",
"495 562 OFFCURVE",
"495 504 CURVE SMOOTH",
"495 442 OFFCURVE",
"454 420 OFFCURVE",
"376 420 CURVE SMOOTH"
);
}
);
};
color = -1;
layerId = "1E90A949-97C4-49F5-AA9A-AF35B6FD63CF";
paths = (
{
closed = 1;
nodes = (
"297 0 LINE",
"297 248 LINE",
"321 247 OFFCURVE",
"345 246 OFFCURVE",
"366 246 CURVE SMOOTH",
"578 246 OFFCURVE",
"715 332 OFFCURVE",
"715 499 CURVE SMOOTH",
"715 673 OFFCURVE",
"586 750 OFFCURVE",
"348 750 CURVE SMOOTH",
"261 750 OFFCURVE",
"143 735 OFFCURVE",
"64 716 CURVE",
"64 0 LINE"
);
},
{
closed = 1;
nodes = (
"790 0 LINE",
"540 340 LINE",
"283 340 LINE",
"529 0 LINE"
);
},
{
closed = 1;
nodes = (
"352 410 OFFCURVE",
"322 412 OFFCURVE",
"297 415 CURVE",
"297 581 LINE",
"319 585 OFFCURVE",
"348 588 OFFCURVE",
"370 588 CURVE SMOOTH",
"454 588 OFFCURVE",
"495 560 OFFCURVE",
"495 499 CURVE SMOOTH",
"495 434 OFFCURVE",
"454 410 OFFCURVE",
"376 410 CURVE SMOOTH"
);
}
);
width = 792;
}
);
leftKerningGroup = KERN_I_2ND;
leftMetricsKey = H;
rightKerningGroup = KERN_R_1ST;
unicode = 0052;
userData = {
com.typemytype.robofont.layerData = {
};
};
},
{
glyphname = S;
lastChange = "2016-12-08 16:06:02 +0000";
layers = (
{
anchors = (
{
name = bottom;
position = "{220, 0}";
},
{
name = top;
position = "{220, 760}";
}
);
background = {
guideLines = (
{
position = "{198, 749}";
}
);
paths = (
{
closed = 1;
nodes = (
"321 -9 OFFCURVE",
"399 61 OFFCURVE",
"399 189 CURVE SMOOTH",
"399 292 OFFCURVE",
"344 353 OFFCURVE",
"232 389 CURVE SMOOTH",
"107 429 OFFCURVE",
"70 469 OFFCURVE",
"70 562 CURVE SMOOTH",
"70 662 OFFCURVE",
"132 716 OFFCURVE",
"237 716 CURVE SMOOTH",
"286 716 OFFCURVE",
"325 710 OFFCURVE",
"372 695 CURVE",
"372 729 LINE",
"327 743 OFFCURVE",
"282 749 OFFCURVE",
"240 749 CURVE SMOOTH",
"115 749 OFFCURVE",
"34 682 OFFCURVE",
"34 560 CURVE SMOOTH",
"34 454 OFFCURVE",
"81 401 OFFCURVE",
"210 359 CURVE SMOOTH",
"324 323 OFFCURVE",
"363 280 OFFCURVE",
"363 186 CURVE SMOOTH",
"363 81 OFFCURVE",
"301 24 OFFCURVE",
"185 24 CURVE SMOOTH",
"137 24 OFFCURVE",
"95 32 OFFCURVE",
"41 50 CURVE",
"41 16 LINE",
"87 -1 OFFCURVE",
"135 -9 OFFCURVE",
"182 -9 CURVE SMOOTH"
);
}
);
};
color = -1;
layerId = "ECFF4977-BDCC-4836-B4AC-1801CF0EB460";
paths = (
{
closed = 1;
nodes = (
"321 -9 OFFCURVE",
"399 61 OFFCURVE",
"399 188 CURVE SMOOTH",
"399 291 OFFCURVE",
"348 352 OFFCURVE",
"227 391 CURVE SMOOTH",
"112 428 OFFCURVE",
"70 466 OFFCURVE",
"70 562 CURVE SMOOTH",
"70 661 OFFCURVE",
"128 716 OFFCURVE",
"247 716 CURVE SMOOTH",
"289 716 OFFCURVE",
"329 711 OFFCURVE",
"372 697 CURVE",
"372 731 LINE",
"338 743 OFFCURVE",
"288 749 OFFCURVE",
"249 749 CURVE SMOOTH",
"109 749 OFFCURVE",
"34 678 OFFCURVE",
"34 560 CURVE SMOOTH",
"34 453 OFFCURVE",
"88 398 OFFCURVE",
"210 359 CURVE SMOOTH",
"324 323 OFFCURVE",
"363 278 OFFCURVE",
"363 186 CURVE SMOOTH",
"363 78 OFFCURVE",
"301 24 OFFCURVE",
"185 24 CURVE SMOOTH",
"140 24 OFFCURVE",
"93 32 OFFCURVE",
"41 50 CURVE",
"41 16 LINE",
"88 -1 OFFCURVE",
"140 -9 OFFCURVE",
"182 -9 CURVE SMOOTH"
);
}
);
width = 433;
},
{
anchors = (
{
name = bottom;
position = "{268, 0}";
},
{
name = top;
position = "{268, 760}";
}
);
background = {
paths = (
{
closed = 1;
nodes = (
"407 -10 OFFCURVE",
"514 83 OFFCURVE",
"514 228 CURVE SMOOTH",
"514 348 OFFCURVE",
"444 414 OFFCURVE",
"325 449 CURVE SMOOTH",
"223 478 OFFCURVE",
"204 494 OFFCURVE",
"204 527 CURVE SMOOTH",
"204 560 OFFCURVE",
"230 588 OFFCURVE",
"340 588 CURVE SMOOTH",
"381 588 OFFCURVE",
"433 582 OFFCURVE",
"473 572 CURVE",
"473 733 LINE",
"431 743 OFFCURVE",
"376 750 OFFCURVE",
"321 750 CURVE SMOOTH",
"108 750 OFFCURVE",
"9 659 OFFCURVE",
"9 512 CURVE SMOOTH",
"9 396 OFFCURVE",
"81 323 OFFCURVE",
"187 294 CURVE SMOOTH",
"297 265 OFFCURVE",
"319 245 OFFCURVE",
"319 210 CURVE SMOOTH",
"319 175 OFFCURVE",
"292 152 OFFCURVE",
"211 152 CURVE SMOOTH",
"153 152 OFFCURVE",
"87 164 OFFCURVE",
"32 180 CURVE",
"32 19 LINE",
"86 1 OFFCURVE",
"162 -10 OFFCURVE",
"217 -10 CURVE SMOOTH"
);
}
);
};
color = -1;
layerId = "C8FFBC04-9D7C-494A-A42D-BACB8E26599D";
paths = (
{
closed = 1;
nodes = (
"408 -10 OFFCURVE",
"515 83 OFFCURVE",
"515 228 CURVE SMOOTH",
"515 349 OFFCURVE",
"445 416 OFFCURVE",
"326 451 CURVE SMOOTH",
"224 481 OFFCURVE",
"207 496 OFFCURVE",
"207 527 CURVE SMOOTH",
"207 558 OFFCURVE",
"233 586 OFFCURVE",
"341 586 CURVE SMOOTH",
"382 586 OFFCURVE",
"434 580 OFFCURVE",
"474 570 CURVE",
"474 733 LINE",
"432 743 OFFCURVE",
"377 750 OFFCURVE",
"322 750 CURVE SMOOTH",
"109 750 OFFCURVE",
"10 659 OFFCURVE",
"10 512 CURVE SMOOTH",
"10 395 OFFCURVE",
"82 321 OFFCURVE",
"188 292 CURVE SMOOTH",
"298 262 OFFCURVE",
"318 243 OFFCURVE",
"318 210 CURVE SMOOTH",
"318 177 OFFCURVE",
"291 154 OFFCURVE",
"212 154 CURVE SMOOTH",
"154 154 OFFCURVE",
"88 166 OFFCURVE",
"33 182 CURVE",
"33 19 LINE",
"87 0 OFFCURVE",
"163 -10 OFFCURVE",
"218 -10 CURVE SMOOTH"
);
}
);
width = 525;
},
{
anchors = (
{
name = bottom;
position = "{289, 0}";
},
{
name = top;
position = "{289, 760}";
}
);
background = {
guideLines = (
{
position = "{217, 749}";
}
);
paths = (
{
closed = 1;
nodes = (
"424 -9 OFFCURVE",
"523 63 OFFCURVE",
"523 194 CURVE SMOOTH",
"523 294 OFFCURVE",
"463 354 OFFCURVE",
"292 386 CURVE SMOOTH",
"136 416 OFFCURVE",
"84 457 OFFCURVE",
"84 552 CURVE SMOOTH",
"84 658 OFFCURVE",
"160 716 OFFCURVE",
"307 716 CURVE SMOOTH",
"367 716 OFFCURVE",
"428 707 OFFCURVE",
"488 688 CURVE",
"488 722 LINE",
"437 739 OFFCURVE",
"370 749 OFFCURVE",
"307 749 CURVE SMOOTH",
"138 749 OFFCURVE",
"48 676 OFFCURVE",
"48 550 CURVE SMOOTH",
"48 445 OFFCURVE",
"111 386 OFFCURVE",
"285 352 CURVE SMOOTH",
"436 322 OFFCURVE",
"487 283 OFFCURVE",
"487 192 CURVE SMOOTH",
"487 82 OFFCURVE",
"408 24 OFFCURVE",
"254 24 CURVE SMOOTH",
"194 24 OFFCURVE",
"127 33 OFFCURVE",
"55 57 CURVE",
"55 23 LINE",
"119 1 OFFCURVE",
"190 -9 OFFCURVE",
"251 -9 CURVE SMOOTH"
);
}
);
};
color = -1;
layerId = "E28BEEB5-BD92-4E7A-B4EA-FC5E5BBBF580";
paths = (
{
closed = 1;
nodes = (
"426 -9 OFFCURVE",
"523 62 OFFCURVE",
"523 192 CURVE SMOOTH",
"523 294 OFFCURVE",
"465 353 OFFCURVE",
"292 386 CURVE SMOOTH",
"135 416 OFFCURVE",
"84 457 OFFCURVE",
"84 554 CURVE SMOOTH",
"84 658 OFFCURVE",
"159 716 OFFCURVE",
"307 716 CURVE SMOOTH",
"369 716 OFFCURVE",
"430 707 OFFCURVE",
"492 688 CURVE",
"492 722 LINE",
"435 740 OFFCURVE",
"372 749 OFFCURVE",
"309 749 CURVE SMOOTH",
"135 749 OFFCURVE",
"48 672 OFFCURVE",
"48 552 CURVE SMOOTH",
"48 441 OFFCURVE",
"111 386 OFFCURVE",
"285 352 CURVE SMOOTH",
"436 322 OFFCURVE",
"487 283 OFFCURVE",
"487 191 CURVE SMOOTH",
"487 82 OFFCURVE",
"410 24 OFFCURVE",
"254 24 CURVE SMOOTH",
"196 24 OFFCURVE",
"129 33 OFFCURVE",
"57 57 CURVE",
"57 23 LINE",
"121 1 OFFCURVE",
"192 -9 OFFCURVE",
"253 -9 CURVE SMOOTH"
);
}
);
width = 571;
},
{
anchors = (
{
name = bottom;
position = "{351, 0}";
},
{
name = top;
position = "{351, 760}";
}
);
background = {
paths = (
{
closed = 1;
nodes = (
"523 -10 OFFCURVE",
"656 83 OFFCURVE",
"656 233 CURVE SMOOTH",
"656 357 OFFCURVE",
"588 423 OFFCURVE",
"421 453 CURVE SMOOTH",
"275 479 OFFCURVE",
"262 491 OFFCURVE",
"262 518 CURVE SMOOTH",
"262 545 OFFCURVE",
"289 567 OFFCURVE",
"428 567 CURVE SMOOTH",
"486 567 OFFCURVE",
"565 559 OFFCURVE",
"615 547 CURVE",
"615 733 LINE",
"562 743 OFFCURVE",
"490 750 OFFCURVE",
"416 750 CURVE SMOOTH",
"152 750 OFFCURVE",
"29 662 OFFCURVE",
"29 508 CURVE SMOOTH",
"29 390 OFFCURVE",
"95 315 OFFCURVE",
"250 290 CURVE SMOOTH",
"402 265 OFFCURVE",
"423 249 OFFCURVE",
"423 218 CURVE SMOOTH",
"423 189 OFFCURVE",
"402 173 OFFCURVE",
"299 173 CURVE SMOOTH",
"236 173 OFFCURVE",
"125 186 OFFCURVE",
"57 205 CURVE",
"57 19 LINE",
"126 3 OFFCURVE",
"206 -10 OFFCURVE",
"301 -10 CURVE SMOOTH"
);
}
);
};
color = -1;
layerId = "1E90A949-97C4-49F5-AA9A-AF35B6FD63CF";
paths = (
{
closed = 1;
nodes = (
"523 -10 OFFCURVE",
"656 83 OFFCURVE",
"656 233 CURVE SMOOTH",
"656 358 OFFCURVE",
"580 424 OFFCURVE",
"401 458 CURVE SMOOTH",
"279 481 OFFCURVE",
"264 493 OFFCURVE",
"264 520 CURVE SMOOTH",
"264 547 OFFCURVE",
"293 569 OFFCURVE",
"421 569 CURVE SMOOTH",
"484 569 OFFCURVE",
"563 559 OFFCURVE",
"613 545 CURVE",
"613 729 LINE",
"560 741 OFFCURVE",
"488 750 OFFCURVE",
"409 750 CURVE SMOOTH",
"154 750 OFFCURVE",
"31 664 OFFCURVE",
"31 510 CURVE SMOOTH",
"31 391 OFFCURVE",
"106 312 OFFCURVE",
"270 286 CURVE SMOOTH",
"402 265 OFFCURVE",
"423 249 OFFCURVE",
"423 216 CURVE SMOOTH",
"423 189 OFFCURVE",
"402 171 OFFCURVE",
"299 171 CURVE SMOOTH",
"236 171 OFFCURVE",
"122 184 OFFCURVE",
"52 206 CURVE",
"52 22 LINE",
"123 3 OFFCURVE",
"206 -10 OFFCURVE",
"301 -10 CURVE SMOOTH"
);
}
);
width = 687;
}
);
leftKerningGroup = KERN_S;
rightKerningGroup = KERN_S;
unicode = 0053;
userData = {
com.typemytype.robofont.layerData = {
};
};
},
{
glyphname = Germandbls;
lastChange = "2016-12-08 16:06:02 +0000";
layers = (
{
background = {
paths = (
{
closed = 1;
nodes = (
"147 749 OFFCURVE",
"81 667 OFFCURVE",
"81 494 CURVE SMOOTH",
"81 0 LINE",
"115 0 LINE",
"115 499 LINE SMOOTH",
"115 645 OFFCURVE",
"168 716 OFFCURVE",
"303 716 CURVE SMOOTH",
"438 716 OFFCURVE",
"491 645 OFFCURVE",
"491 499 CURVE SMOOTH",
"491 0 LINE",
"525 0 LINE",
"525 494 LINE SMOOTH",
"525 667 OFFCURVE",
"459 749 OFFCURVE",
"303 749 CURVE SMOOTH"
);
},
{
closed = 1;
nodes = (
"603 -9 OFFCURVE",
"681 61 OFFCURVE",
"681 189 CURVE SMOOTH",
"681 292 OFFCURVE",
"626 353 OFFCURVE",
"514 389 CURVE SMOOTH",
"389 429 OFFCURVE",
"352 469 OFFCURVE",
"352 562 CURVE SMOOTH",
"352 662 OFFCURVE",
"414 716 OFFCURVE",
"519 716 CURVE SMOOTH",
"568 716 OFFCURVE",
"607 710 OFFCURVE",
"654 695 CURVE",
"654 729 LINE",
"609 743 OFFCURVE",
"564 749 OFFCURVE",
"522 749 CURVE SMOOTH",
"397 749 OFFCURVE",
"316 682 OFFCURVE",
"316 560 CURVE SMOOTH",
"316 454 OFFCURVE",
"363 401 OFFCURVE",
"492 359 CURVE SMOOTH",
"606 322 OFFCURVE",
"645 280 OFFCURVE",
"645 186 CURVE SMOOTH",
"645 81 OFFCURVE",
"583 24 OFFCURVE",
"467 24 CURVE SMOOTH",
"419 24 OFFCURVE",
"377 32 OFFCURVE",
"323 50 CURVE",
"323 16 LINE",
"369 -1 OFFCURVE",
"417 -9 OFFCURVE",
"464 -9 CURVE SMOOTH"
);
}
);
};
color = -1;
layerId = "ECFF4977-BDCC-4836-B4AC-1801CF0EB460";
paths = (
{
closed = 1;
nodes = (
"587 -9 OFFCURVE",
"665 61 OFFCURVE",
"665 188 CURVE SMOOTH",
"665 291 OFFCURVE",
"614 352 OFFCURVE",
"493 391 CURVE SMOOTH",
"378 428 OFFCURVE",
"336 466 OFFCURVE",
"336 562 CURVE SMOOTH",
"336 661 OFFCURVE",
"394 716 OFFCURVE",
"513 716 CURVE SMOOTH",
"555 716 OFFCURVE",
"595 711 OFFCURVE",
"638 697 CURVE",
"638 731 LINE",
"604 743 OFFCURVE",
"554 749 OFFCURVE",
"515 749 CURVE SMOOTH",
"375 749 OFFCURVE",
"300 678 OFFCURVE",
"300 560 CURVE SMOOTH",
"300 453 OFFCURVE",
"354 398 OFFCURVE",
"476 359 CURVE SMOOTH",
"590 323 OFFCURVE",
"629 278 OFFCURVE",
"629 186 CURVE SMOOTH",
"629 78 OFFCURVE",
"567 24 OFFCURVE",
"451 24 CURVE SMOOTH",
"406 24 OFFCURVE",
"359 32 OFFCURVE",
"307 50 CURVE",
"307 16 LINE",
"354 -1 OFFCURVE",
"406 -9 OFFCURVE",
"448 -9 CURVE SMOOTH"
);
},
{
closed = 1;
nodes = (
"116 0 LINE",
"116 499 LINE SMOOTH",
"116 645 OFFCURVE",
"169 716 OFFCURVE",
"304 716 CURVE SMOOTH",
"335 716 OFFCURVE",
"362 712 OFFCURVE",
"386 704 CURVE",
"419 726 LINE",
"388 741 OFFCURVE",
"349 749 OFFCURVE",
"304 749 CURVE SMOOTH",
"148 749 OFFCURVE",
"82 667 OFFCURVE",
"82 494 CURVE SMOOTH",
"82 0 LINE"
);
}
);
width = 699;
},
{
background = {
paths = (
{
closed = 1;
nodes = (
"134 750 OFFCURVE",
"43 661 OFFCURVE",
"43 458 CURVE SMOOTH",
"43 0 LINE",
"239 0 LINE",
"239 480 LINE SMOOTH",
"239 555 OFFCURVE",
"267 586 OFFCURVE",
"314 586 CURVE SMOOTH",
"360 586 OFFCURVE",
"388 555 OFFCURVE",
"388 480 CURVE SMOOTH",
"388 0 LINE",
"580 0 LINE",
"580 438 LINE SMOOTH",
"580 661 OFFCURVE",
"492 750 OFFCURVE",
"314 750 CURVE SMOOTH"
);
},
{
closed = 1;
nodes = (
"717 -10 OFFCURVE",
"824 83 OFFCURVE",
"824 228 CURVE SMOOTH",
"824 348 OFFCURVE",
"754 414 OFFCURVE",
"635 449 CURVE SMOOTH",
"533 479 OFFCURVE",
"514 494 OFFCURVE",
"514 527 CURVE SMOOTH",
"514 560 OFFCURVE",
"540 588 OFFCURVE",
"650 588 CURVE SMOOTH",
"691 588 OFFCURVE",
"743 582 OFFCURVE",
"783 572 CURVE",
"783 733 LINE",
"741 743 OFFCURVE",
"686 750 OFFCURVE",
"631 750 CURVE SMOOTH",
"418 750 OFFCURVE",
"319 659 OFFCURVE",
"319 512 CURVE SMOOTH",
"319 396 OFFCURVE",
"391 323 OFFCURVE",
"497 294 CURVE SMOOTH",
"607 264 OFFCURVE",
"629 245 OFFCURVE",
"629 210 CURVE SMOOTH",
"629 175 OFFCURVE",
"602 152 OFFCURVE",
"521 152 CURVE SMOOTH",
"463 152 OFFCURVE",
"397 164 OFFCURVE",
"342 180 CURVE",
"342 19 LINE",
"396 1 OFFCURVE",
"472 -10 OFFCURVE",
"527 -10 CURVE SMOOTH"
);
}
);
};
color = -1;
layerId = "C8FFBC04-9D7C-494A-A42D-BACB8E26599D";
paths = (
{
closed = 1;
nodes = (
"717 -10 OFFCURVE",
"820 83 OFFCURVE",
"820 228 CURVE SMOOTH",
"820 348 OFFCURVE",
"753 410 OFFCURVE",
"638 449 CURVE SMOOTH",
"549 479 OFFCURVE",
"530 494 OFFCURVE",
"530 527 CURVE SMOOTH",
"530 560 OFFCURVE",
"555 588 OFFCURVE",
"653 588 CURVE SMOOTH",
"692 588 OFFCURVE",
"742 582 OFFCURVE",
"781 572 CURVE",
"781 733 LINE",
"740 743 OFFCURVE",
"687 750 OFFCURVE",
"635 750 CURVE SMOOTH",
"430 750 OFFCURVE",
"335 659 OFFCURVE",
"335 512 CURVE SMOOTH",
"335 396 OFFCURVE",
"404 325 OFFCURVE",
"506 294 CURVE SMOOTH",
"604 264 OFFCURVE",
"625 245 OFFCURVE",
"625 210 CURVE SMOOTH",
"625 175 OFFCURVE",
"599 152 OFFCURVE",
"529 152 CURVE SMOOTH",
"473 152 OFFCURVE",
"410 164 OFFCURVE",
"357 180 CURVE",
"357 19 LINE",
"409 1 OFFCURVE",
"482 -10 OFFCURVE",
"535 -10 CURVE SMOOTH"
);
},
{
closed = 1;
nodes = (
"240 0 LINE",
"240 503 LINE SMOOTH",
"240 562 OFFCURVE",
"268 589 OFFCURVE",
"315 589 CURVE SMOOTH",
"338 589 OFFCURVE",
"356 582 OFFCURVE",
"373 567 CURVE",
"492 707 LINE",
"452 733 OFFCURVE",
"392 750 OFFCURVE",
"315 750 CURVE SMOOTH",
"135 750 OFFCURVE",
"44 651 OFFCURVE",
"44 478 CURVE SMOOTH",
"44 0 LINE"
);
}
);
width = 830;
},
{
background = {
paths = (
{
closed = 1;
nodes = (
"769 -9 OFFCURVE",
"868 63 OFFCURVE",
"868 194 CURVE SMOOTH",
"868 294 OFFCURVE",
"808 354 OFFCURVE",
"637 386 CURVE SMOOTH",
"481 415 OFFCURVE",
"429 457 OFFCURVE",
"429 552 CURVE SMOOTH",
"429 658 OFFCURVE",
"505 716 OFFCURVE",
"652 716 CURVE SMOOTH",
"712 716 OFFCURVE",
"773 707 OFFCURVE",
"833 688 CURVE",
"833 722 LINE",
"782 739 OFFCURVE",
"715 749 OFFCURVE",
"652 749 CURVE SMOOTH",
"483 749 OFFCURVE",
"392 676 OFFCURVE",
"393 550 CURVE SMOOTH",
"394 445 OFFCURVE",
"456 387 OFFCURVE",
"630 352 CURVE SMOOTH",
"781 322 OFFCURVE",
"832 283 OFFCURVE",
"832 192 CURVE SMOOTH",
"832 82 OFFCURVE",
"753 24 OFFCURVE",
"599 24 CURVE SMOOTH",
"539 24 OFFCURVE",
"472 33 OFFCURVE",
"400 57 CURVE",
"400 23 LINE",
"464 1 OFFCURVE",
"535 -9 OFFCURVE",
"596 -9 CURVE SMOOTH"
);
},
{
closed = 1;
nodes = (
"139 0 LINE",
"139 462 LINE SMOOTH",
"139 641 OFFCURVE",
"218 716 OFFCURVE",
"388 716 CURVE SMOOTH",
"436 716 OFFCURVE",
"476 710 OFFCURVE",
"510 698 CURVE",
"548 716 LINE",
"507 739 OFFCURVE",
"454 749 OFFCURVE",
"388 749 CURVE SMOOTH",
"197 749 OFFCURVE",
"105 663 OFFCURVE",
"105 457 CURVE SMOOTH",
"105 0 LINE"
);
}
);
};
color = -1;
layerId = "E28BEEB5-BD92-4E7A-B4EA-FC5E5BBBF580";
paths = (
{
closed = 1;
nodes = (
"772 -9 OFFCURVE",
"869 62 OFFCURVE",
"869 192 CURVE SMOOTH",
"869 294 OFFCURVE",
"811 353 OFFCURVE",
"638 386 CURVE SMOOTH",
"481 416 OFFCURVE",
"430 457 OFFCURVE",
"430 554 CURVE SMOOTH",
"430 658 OFFCURVE",
"505 716 OFFCURVE",
"653 716 CURVE SMOOTH",
"715 716 OFFCURVE",
"776 707 OFFCURVE",
"838 688 CURVE",
"838 722 LINE",
"781 740 OFFCURVE",
"718 749 OFFCURVE",
"655 749 CURVE SMOOTH",
"481 749 OFFCURVE",
"394 672 OFFCURVE",
"394 552 CURVE SMOOTH",
"394 441 OFFCURVE",
"457 387 OFFCURVE",
"631 352 CURVE SMOOTH",
"782 322 OFFCURVE",
"833 283 OFFCURVE",
"833 191 CURVE SMOOTH",
"833 82 OFFCURVE",
"756 24 OFFCURVE",
"600 24 CURVE SMOOTH",
"542 24 OFFCURVE",
"475 33 OFFCURVE",
"403 57 CURVE",
"403 23 LINE",
"467 1 OFFCURVE",
"538 -9 OFFCURVE",
"599 -9 CURVE SMOOTH"
);
},
{
closed = 1;
nodes = (
"139 0 LINE",
"139 462 LINE SMOOTH",
"139 641 OFFCURVE",
"218 716 OFFCURVE",
"388 716 CURVE SMOOTH",
"436 716 OFFCURVE",
"476 710 OFFCURVE",
"510 698 CURVE",
"548 716 LINE",
"507 739 OFFCURVE",
"454 749 OFFCURVE",
"388 749 CURVE SMOOTH",
"197 749 OFFCURVE",
"105 663 OFFCURVE",
"105 457 CURVE SMOOTH",
"105 0 LINE"
);
}
);
width = 917;
},
{
background = {
paths = (
{
closed = 1;
nodes = (
"163 750 OFFCURVE",
"64 617 OFFCURVE",
"64 413 CURVE SMOOTH",
"64 0 LINE",
"302 0 LINE",
"302 432 LINE SMOOTH",
"302 515 OFFCURVE",
"339 562 OFFCURVE",
"413 562 CURVE SMOOTH",
"487 562 OFFCURVE",
"524 515 OFFCURVE",
"524 432 CURVE SMOOTH",
"524 0 LINE",
"758 0 LINE",
"758 393 LINE SMOOTH",
"758 617 OFFCURVE",
"658 750 OFFCURVE",
"413 750 CURVE SMOOTH"
);
},
{
closed = 1;
nodes = (
"884 -10 OFFCURVE",
"1017 83 OFFCURVE",
"1017 233 CURVE SMOOTH",
"1017 358 OFFCURVE",
"941 424 OFFCURVE",
"762 458 CURVE SMOOTH",
"640 481 OFFCURVE",
"625 493 OFFCURVE",
"625 520 CURVE SMOOTH",
"625 547 OFFCURVE",
"654 569 OFFCURVE",
"782 569 CURVE SMOOTH",
"845 569 OFFCURVE",
"924 559 OFFCURVE",
"974 545 CURVE",
"974 729 LINE",
"921 741 OFFCURVE",
"849 750 OFFCURVE",
"770 750 CURVE SMOOTH",
"515 750 OFFCURVE",
"392 664 OFFCURVE",
"392 510 CURVE SMOOTH",
"392 391 OFFCURVE",
"467 312 OFFCURVE",
"631 286 CURVE SMOOTH",
"763 265 OFFCURVE",
"784 249 OFFCURVE",
"784 216 CURVE SMOOTH",
"784 187 OFFCURVE",
"763 171 OFFCURVE",
"660 171 CURVE SMOOTH",
"597 171 OFFCURVE",
"483 184 OFFCURVE",
"413 206 CURVE",
"413 22 LINE",
"484 3 OFFCURVE",
"567 -10 OFFCURVE",
"662 -10 CURVE SMOOTH"
);
}
);
};
color = -1;
layerId = "1E90A949-97C4-49F5-AA9A-AF35B6FD63CF";
paths = (
{
closed = 1;
nodes = (
"913 -10 OFFCURVE",
"1040 83 OFFCURVE",
"1040 233 CURVE SMOOTH",
"1040 358 OFFCURVE",
"967 421 OFFCURVE",
"797 458 CURVE SMOOTH",
"691 481 OFFCURVE",
"677 493 OFFCURVE",
"677 520 CURVE SMOOTH",
"677 547 OFFCURVE",
"704 569 OFFCURVE",
"816 569 CURVE SMOOTH",
"876 569 OFFCURVE",
"951 559 OFFCURVE",
"999 545 CURVE",
"999 729 LINE",
"949 741 OFFCURVE",
"880 750 OFFCURVE",
"805 750 CURVE SMOOTH",
"562 750 OFFCURVE",
"445 664 OFFCURVE",
"445 510 CURVE SMOOTH",
"445 391 OFFCURVE",
"516 315 OFFCURVE",
"673 286 CURVE SMOOTH",
"788 265 OFFCURVE",
"808 249 OFFCURVE",
"808 216 CURVE SMOOTH",
"808 187 OFFCURVE",
"788 171 OFFCURVE",
"700 171 CURVE SMOOTH",
"640 171 OFFCURVE",
"532 184 OFFCURVE",
"465 206 CURVE",
"465 22 LINE",
"533 3 OFFCURVE",
"612 -10 OFFCURVE",
"702 -10 CURVE SMOOTH"
);
},
{
closed = 1;
nodes = (
"302 0 LINE",
"302 451 LINE SMOOTH",
"302 524 OFFCURVE",
"339 568 OFFCURVE",
"413 568 CURVE SMOOTH",
"449 568 OFFCURVE",
"477 557 OFFCURVE",
"505 540 CURVE",
"636 692 LINE",
"572 730 OFFCURVE",
"499 750 OFFCURVE",
"413 750 CURVE SMOOTH",
"173 750 OFFCURVE",
"64 623 OFFCURVE",
"64 423 CURVE SMOOTH",
"64 0 LINE"
);
}
);
width = 1071;
}
);
leftMetricsKey = H;
rightMetricsKey = S;
unicode = 1E9E;
},
{
glyphname = Schwa;
lastChange = "2016-12-08 16:06:02 +0000";
layers = (
{
anchors = (
{
name = bottom;
position = "{292, 0}";
},
{
name = top;
position = "{292, 760}";
}
);
background = {
paths = (
{
closed = 1;
nodes = (
"437 -9 OFFCURVE",
"533 91 OFFCURVE",
"533 370 CURVE SMOOTH",
"533 649 OFFCURVE",
"439 749 OFFCURVE",
"291 749 CURVE SMOOTH",
"143 749 OFFCURVE",
"49 649 OFFCURVE",
"49 370 CURVE SMOOTH",
"49 91 OFFCURVE",
"145 -9 OFFCURVE",
"291 -9 CURVE SMOOTH"
);
},
{
closed = 1;
nodes = (
"167 24 OFFCURVE",
"85 103 OFFCURVE",
"85 372 CURVE SMOOTH",
"85 637 OFFCURVE",
"167 716 OFFCURVE",
"291 716 CURVE SMOOTH",
"415 716 OFFCURVE",
"497 637 OFFCURVE",
"497 368 CURVE SMOOTH",
"497 103 OFFCURVE",
"415 24 OFFCURVE",
"291 24 CURVE SMOOTH"
);
}
);
};
color = -1;
layerId = "ECFF4977-BDCC-4836-B4AC-1801CF0EB460";
paths = (
{
closed = 1;
nodes = (
"438 -9 OFFCURVE",
"534 91 OFFCURVE",
"534 370 CURVE SMOOTH",
"534 651 OFFCURVE",
"430 749 OFFCURVE",
"242 749 CURVE SMOOTH",
"185 749 OFFCURVE",
"133 743 OFFCURVE",
"78 729 CURVE",
"78 695 LINE",
"132 711 OFFCURVE",
"190 716 OFFCURVE",
"239 716 CURVE SMOOTH",
"416 716 OFFCURVE",
"498 639 OFFCURVE",
"498 369 CURVE SMOOTH",
"498 103 OFFCURVE",
"416 24 OFFCURVE",
"286 24 CURVE SMOOTH",
"156 24 OFFCURVE",
"80 103 OFFCURVE",
"80 370 CURVE",
"68 357 LINE",
"512 357 LINE",
"512 390 LINE",
"44 390 LINE",
"44 370 LINE SMOOTH",
"44 93 OFFCURVE",
"134 -9 OFFCURVE",
"286 -9 CURVE SMOOTH"
);
}
);
width = 583;
},
{
anchors = (
{
name = bottom;
position = "{347, 0}";
},
{
name = top;
position = "{347, 740}";
}
);
background = {
paths = (
{
closed = 1;
nodes = (
"536 -10 OFFCURVE",
"665 102 OFFCURVE",
"665 370 CURVE SMOOTH",
"665 638 OFFCURVE",
"533 750 OFFCURVE",
"343 750 CURVE SMOOTH",
"153 750 OFFCURVE",
"21 638 OFFCURVE",
"21 370 CURVE SMOOTH",
"21 102 OFFCURVE",
"150 -10 OFFCURVE",
"343 -10 CURVE SMOOTH"
);
},
{
closed = 1;
nodes = (
"264 152 OFFCURVE",
"221 207 OFFCURVE",
"221 374 CURVE SMOOTH",
"221 533 OFFCURVE",
"264 588 OFFCURVE",
"343 588 CURVE SMOOTH",
"422 588 OFFCURVE",
"465 533 OFFCURVE",
"465 366 CURVE SMOOTH",
"465 207 OFFCURVE",
"422 152 OFFCURVE",
"343 152 CURVE SMOOTH"
);
}
);
};
color = -1;
layerId = "C8FFBC04-9D7C-494A-A42D-BACB8E26599D";
paths = (
{
closed = 1;
nodes = (
"521 -10 OFFCURVE",
"658 109 OFFCURVE",
"658 360 CURVE SMOOTH",
"658 625 OFFCURVE",
"527 750 OFFCURVE",
"266 750 CURVE SMOOTH",
"204 750 OFFCURVE",
"128 743 OFFCURVE",
"68 729 CURVE",
"68 568 LINE",
"122 582 OFFCURVE",
"189 590 OFFCURVE",
"246 590 CURVE SMOOTH",
"401 590 OFFCURVE",
"463 536 OFFCURVE",
"463 356 CURVE SMOOTH",
"463 193 OFFCURVE",
"428 148 OFFCURVE",
"345 148 CURVE SMOOTH",
"256 148 OFFCURVE",
"224 199 OFFCURVE",
"224 356 CURVE",
"146 282 LINE",
"532 282 LINE",
"532 429 LINE",
"22 429 LINE",
"22 360 LINE SMOOTH",
"22 99 OFFCURVE",
"161 -10 OFFCURVE",
"344 -10 CURVE SMOOTH"
);
}
);
width = 685;
},
{
anchors = (
{
name = bottom;
position = "{391, 0}";
},
{
name = top;
position = "{391, 760}";
}
);
background = {
anchors = (
{
name = bottom;
position = "{391, 0}";
},
{
name = top;
position = "{391, 760}";
}
);
paths = (
{
closed = 1;
nodes = (
"494 -9 OFFCURVE",
"640 88 OFFCURVE",
"640 369 CURVE SMOOTH",
"640 636 OFFCURVE",
"501 749 OFFCURVE",
"288 749 CURVE SMOOTH",
"217 749 OFFCURVE",
"161 740 OFFCURVE",
"100 722 CURVE",
"100 688 LINE",
"160 706 OFFCURVE",
"224 716 OFFCURVE",
"289 716 CURVE SMOOTH",
"485 716 OFFCURVE",
"604 619 OFFCURVE",
"604 371 CURVE SMOOTH",
"604 109 OFFCURVE",
"479 24 OFFCURVE",
"296 24 CURVE SMOOTH",
"230 24 OFFCURVE",
"174 32 OFFCURVE",
"100 58 CURVE",
"100 24 LINE",
"162 1 OFFCURVE",
"224 -9 OFFCURVE",
"297 -9 CURVE SMOOTH"
);
}
);
};
color = -1;
layerId = "E28BEEB5-BD92-4E7A-B4EA-FC5E5BBBF580";
paths = (
{
closed = 1;
nodes = (
"582 -9 OFFCURVE",
"715 98 OFFCURVE",
"715 369 CURVE SMOOTH",
"715 637 OFFCURVE",
"560 749 OFFCURVE",
"316 749 CURVE SMOOTH",
"244 749 OFFCURVE",
"173 742 OFFCURVE",
"100 722 CURVE",
"100 688 LINE",
"172 708 OFFCURVE",
"253 716 OFFCURVE",
"317 716 CURVE SMOOTH",
"542 716 OFFCURVE",
"679 619 OFFCURVE",
"679 368 CURVE SMOOTH",
"679 121 OFFCURVE",
"561 25 OFFCURVE",
"395 25 CURVE SMOOTH",
"215 25 OFFCURVE",
"97 121 OFFCURVE",
"97 368 CURVE",
"79 357 LINE",
"694 357 LINE",
"694 390 LINE",
"61 390 LINE",
"61 360 LINE SMOOTH",
"61 98 OFFCURVE",
"197 -9 OFFCURVE",
"395 -9 CURVE SMOOTH"
);
}
);
width = 781;
},
{
anchors = (
{
name = bottom;
position = "{404, 0}";
},
{
name = top;
position = "{404, 740}";
}
);
background = {
paths = (
{
closed = 1;
nodes = (
"1733 -10 OFFCURVE",
"1897 137 OFFCURVE",
"1897 370 CURVE SMOOTH",
"1897 603 OFFCURVE",
"1734 750 OFFCURVE",
"1466 750 CURVE SMOOTH",
"1198 750 OFFCURVE",
"1035 605 OFFCURVE",
"1035 370 CURVE SMOOTH",
"1035 135 OFFCURVE",
"1199 -10 OFFCURVE",
"1466 -10 CURVE SMOOTH"
);
},
{
closed = 1;
nodes = (
"1341 174 OFFCURVE",
"1275 240 OFFCURVE",
"1275 374 CURVE SMOOTH",
"1275 500 OFFCURVE",
"1344 566 OFFCURVE",
"1466 566 CURVE SMOOTH",
"1588 566 OFFCURVE",
"1657 497 OFFCURVE",
"1657 366 CURVE SMOOTH",
"1657 243 OFFCURVE",
"1591 174 OFFCURVE",
"1466 174 CURVE SMOOTH"
);
},
{
closed = 1;
nodes = (
"634 -10 OFFCURVE",
"796 121 OFFCURVE",
"796 366 CURVE SMOOTH",
"796 601 OFFCURVE",
"629 750 OFFCURVE",
"278 750 CURVE SMOOTH",
"223 750 OFFCURVE",
"155 745 OFFCURVE",
"97 734 CURVE",
"97 546 LINE",
"146 555 OFFCURVE",
"203 560 OFFCURVE",
"260 560 CURVE SMOOTH",
"476 560 OFFCURVE",
"554 491 OFFCURVE",
"554 362 CURVE SMOOTH",
"554 248 OFFCURVE",
"479 178 OFFCURVE",
"304 178 CURVE SMOOTH",
"258 178 OFFCURVE",
"203 182 OFFCURVE",
"160 188 CURVE",
"289 77 LINE",
"289 360 LINE",
"68 360 LINE",
"68 10 LINE",
"141 -2 OFFCURVE",
"214 -10 OFFCURVE",
"290 -10 CURVE SMOOTH"
);
}
);
};
color = -1;
layerId = "1E90A949-97C4-49F5-AA9A-AF35B6FD63CF";
paths = (
{
closed = 1;
nodes = (
"733 -10 OFFCURVE",
"886 137 OFFCURVE",
"886 360 CURVE SMOOTH",
"886 625 OFFCURVE",
"711 750 OFFCURVE",
"352 750 CURVE SMOOTH",
"269 750 OFFCURVE",
"178 743 OFFCURVE",
"97 729 CURVE",
"97 545 LINE",
"170 559 OFFCURVE",
"259 567 OFFCURVE",
"335 567 CURVE SMOOTH",
"542 567 OFFCURVE",
"655 513 OFFCURVE",
"655 356 CURVE SMOOTH",
"655 211 OFFCURVE",
"594 162 OFFCURVE",
"471 162 CURVE SMOOTH",
"334 162 OFFCURVE",
"276 217 OFFCURVE",
"276 356 CURVE",
"202 275 LINE",
"718 275 LINE",
"718 436 LINE",
"36 436 LINE",
"36 370 LINE SMOOTH",
"36 135 OFFCURVE",
"199 -10 OFFCURVE",
"468 -10 CURVE SMOOTH"
);
}
);
width = 927;
}
);
leftMetricsKey = "=O-5";
rightKerningGroup = KERN_O_1ST;
rightMetricsKey = O;
unicode = 018F;
userData = {
com.typemytype.robofont.layerData = {
};
};
},
{
glyphname = T;
lastChange = "2016-12-08 16:06:02 +0000";
layers = (
{
anchors = (
{
name = bottom;
position = "{245, 0}";
},
{
name = center;
position = "{245, 400}";
},
{
name = top;
position = "{245, 760}";
}
);
background = {
anchors = (
{
name = bottom;
position = "{248, 0}";
},
{
name = topUC;
position = "{247, 760}";
}
);
paths = (
{
closed = 1;
nodes = (
"56 0 LINE",
"56 364 LINE",
"434 364 LINE",
"434 0 LINE",
"468 0 LINE",
"468 740 LINE",
"434 740 LINE",
"434 397 LINE",
"56 397 LINE",
"56 740 LINE",
"22 740 LINE",
"22 0 LINE"
);
}
);
};
color = -1;
layerId = "ECFF4977-BDCC-4836-B4AC-1801CF0EB460";
paths = (
{
closed = 1;
nodes = (
"262 0 LINE",
"262 707 LINE",
"486 707 LINE",
"486 740 LINE",
"4 740 LINE",
"4 707 LINE",
"228 707 LINE",
"228 0 LINE"
);
}
);
width = 490;
},
{
anchors = (
{
name = bottom;
position = "{297, 0}";
},
{
name = center;
position = "{297, 350}";
},
{
name = top;
position = "{297, 760}";
}
);
background = {
anchors = (
{
name = bottom;
position = "{274, 0}";
},
{
name = top;
position = "{268, 805}";
}
);
paths = (
{
closed = 1;
nodes = (
"192 0 LINE",
"192 288 LINE",
"395 288 LINE",
"395 0 LINE",
"591 0 LINE",
"591 740 LINE",
"395 740 LINE",
"395 467 LINE",
"192 467 LINE",
"192 740 LINE",
"-4 740 LINE",
"-4 0 LINE"
);
}
);
};
color = -1;
layerId = "C8FFBC04-9D7C-494A-A42D-BACB8E26599D";
paths = (
{
closed = 1;
nodes = (
"395 0 LINE",
"395 567 LINE",
"591 567 LINE",
"591 740 LINE",
"2 740 LINE",
"2 567 LINE",
"198 567 LINE",
"198 0 LINE"
);
}
);
width = 593;
},
{
anchors = (
{
name = bottom;
position = "{308, 0}";
},
{
name = center;
position = "{308, 400}";
},
{
name = top;
position = "{308, 760}";
}
);
background = {
anchors = (
{
name = bottom;
position = "{308, 0}";
},
{
name = center;
position = "{308, 400}";
},
{
name = top;
position = "{308, 760}";
}
);
paths = (
{
closed = 1;
nodes = (
"56 0 LINE",
"56 364 LINE",
"560 364 LINE",
"560 0 LINE",
"594 0 LINE",
"594 740 LINE",
"560 740 LINE",
"560 397 LINE",
"56 397 LINE",
"56 740 LINE",
"22 740 LINE",
"22 0 LINE"
);
}
);
};
color = -1;
layerId = "E28BEEB5-BD92-4E7A-B4EA-FC5E5BBBF580";
paths = (
{
closed = 1;
nodes = (
"325 0 LINE",
"325 707 LINE",
"609 707 LINE",
"609 740 LINE",
"7 740 LINE",
"7 707 LINE",
"291 707 LINE",
"291 0 LINE"
);
}
);
width = 616;
},
{
anchors = (
{
name = bottom;
position = "{382, 0}";
},
{
name = center;
position = "{382, 350}";
},
{
name = top;
position = "{382, 760}";
}
);
background = {
anchors = (
{
name = bottom;
position = "{380, -110}";
},
{
name = topUC;
position = "{383, 885}";
}
);
paths = (
{
closed = 1;
nodes = (
"235 0 LINE",
"235 277 LINE",
"526 277 LINE",
"526 0 LINE",
"764 0 LINE",
"764 740 LINE",
"526 740 LINE",
"526 478 LINE",
"235 478 LINE",
"235 740 LINE",
"-3 740 LINE",
"-3 0 LINE"
);
}
);
};
color = -1;
layerId = "1E90A949-97C4-49F5-AA9A-AF35B6FD63CF";
paths = (
{
closed = 1;
nodes = (
"501 0 LINE",
"501 556 LINE",
"754 556 LINE",
"754 740 LINE",
"10 740 LINE",
"10 556 LINE",
"263 556 LINE",
"263 0 LINE"
);
}
);
width = 764;
}
);
leftKerningGroup = KERN_T;
rightKerningGroup = KERN_T;
unicode = 0054;
userData = {
com.typemytype.robofont.layerData = {
};
};
},
{
glyphname = Tbar;
lastChange = "2016-12-08 16:06:02 +0000";
layers = (
{
background = {
components = (
{
name = T;
transform = "{1, 0, 0, 1, 4, 0}";
}
);
paths = (
{
closed = 1;
nodes = (
"103 375 LINE",
"365 375 LINE",
"365 401 LINE",
"103 401 LINE"
);
}
);
};
color = -1;
components = (
{
name = T;
},
{
name = strokeshortcomb.case;
transform = "{1, 0, 0, 1, 45, -140}";
}
);
layerId = "ECFF4977-BDCC-4836-B4AC-1801CF0EB460";
width = 490;
},
{
background = {
components = (
{
name = T;
},
{
name = strokeshortcomb.case;
}
);
};
color = -1;
components = (
{
name = T;
},
{
name = strokeshortcomb.case;
transform = "{1, 0, 0, 1, 27, -190}";
}
);
layerId = "C8FFBC04-9D7C-494A-A42D-BACB8E26599D";
width = 593;
},
{
background = {
components = (
{
name = T;
},
{
name = strokeshortcomb.case;
transform = "{1, 0, 0, 1, 56, -140}";
}
);
};
color = -1;
components = (
{
name = T;
},
{
name = strokeshortcomb.case;
transform = "{1, 0, 0, 1, 58, -140}";
}
);
layerId = "E28BEEB5-BD92-4E7A-B4EA-FC5E5BBBF580";
width = 616;
},
{
background = {
components = (
{
name = T;
transform = "{1, 0, 0, 1, 5, 0}";
}
);
paths = (
{
closed = 1;
nodes = (
"83 300 LINE",
"656 300 LINE",
"656 427 LINE",
"83 427 LINE"
);
}
);
};
color = -1;
components = (
{
name = T;
},
{
name = strokeshortcomb.case;
transform = "{1, 0, 0, 1, 12, -190}";
}
);
layerId = "1E90A949-97C4-49F5-AA9A-AF35B6FD63CF";
width = 764;
}
);
leftKerningGroup = KERN_T;
rightKerningGroup = KERN_T;
unicode = 0166;
},
{
glyphname = U;
lastChange = "2016-12-08 16:06:02 +0000";
layers = (
{
anchors = (
{
name = bottom;
position = "{300, 0}";
},
{
name = ogonek;
position = "{359, 0}";
},
{
name = top;
position = "{300, 760}";
},
{
name = topright;
position = "{488, 740}";
}
);
background = {
paths = (
{
closed = 1;
nodes = (
"456 -9 OFFCURVE",
"522 73 OFFCURVE",
"522 246 CURVE SMOOTH",
"522 740 LINE",
"488 740 LINE",
"488 241 LINE SMOOTH",
"488 95 OFFCURVE",
"435 24 OFFCURVE",
"300 24 CURVE SMOOTH",
"165 24 OFFCURVE",
"112 95 OFFCURVE",
"112 241 CURVE SMOOTH",
"112 740 LINE",
"78 740 LINE",
"78 246 LINE SMOOTH",
"78 73 OFFCURVE",
"144 -9 OFFCURVE",
"300 -9 CURVE SMOOTH"
);
}
);
};
color = -1;
layerId = "ECFF4977-BDCC-4836-B4AC-1801CF0EB460";
paths = (
{
closed = 1;
nodes = (
"456 -9 OFFCURVE",
"521 73 OFFCURVE",
"521 246 CURVE SMOOTH",
"521 740 LINE",
"488 740 LINE",
"488 241 LINE SMOOTH",
"488 95 OFFCURVE",
"435 24 OFFCURVE",
"300 24 CURVE SMOOTH",
"165 24 OFFCURVE",
"112 95 OFFCURVE",
"112 241 CURVE SMOOTH",
"112 740 LINE",
"78 740 LINE",
"78 246 LINE SMOOTH",
"78 73 OFFCURVE",
"144 -9 OFFCURVE",
"300 -9 CURVE SMOOTH"
);
}
);
width = 599;
},
{
anchors = (
{
name = bottom;
position = "{335, 0}";
},
{
name = ogonek;
position = "{461, 0}";
},
{
name = top;
position = "{335, 760}";
},
{
name = topright;
position = "{468, 740}";
}
);
background = {
paths = (
{
closed = 1;
nodes = (
"529 -10 OFFCURVE",
"625 79 OFFCURVE",
"625 302 CURVE SMOOTH",
"625 740 LINE",
"433 740 LINE",
"433 280 LINE SMOOTH",
"433 182 OFFCURVE",
"396 151 OFFCURVE",
"334 151 CURVE SMOOTH",
"272 151 OFFCURVE",
"234 182 OFFCURVE",
"234 280 CURVE SMOOTH",
"234 740 LINE",
"38 740 LINE",
"38 302 LINE SMOOTH",
"38 79 OFFCURVE",
"137 -10 OFFCURVE",
"334 -10 CURVE SMOOTH"
);
}
);
};
color = -1;
layerId = "C8FFBC04-9D7C-494A-A42D-BACB8E26599D";
paths = (
{
closed = 1;
nodes = (
"530 -10 OFFCURVE",
"626 79 OFFCURVE",
"626 302 CURVE SMOOTH",
"626 740 LINE",
"434 740 LINE",
"434 280 LINE SMOOTH",
"434 185 OFFCURVE",
"397 154 OFFCURVE",
"335 154 CURVE SMOOTH",
"273 154 OFFCURVE",
"235 185 OFFCURVE",
"235 280 CURVE SMOOTH",
"235 740 LINE",
"39 740 LINE",
"39 302 LINE SMOOTH",
"39 79 OFFCURVE",
"138 -10 OFFCURVE",
"335 -10 CURVE SMOOTH"
);
}
);
width = 665;
},
{
anchors = (
{
name = bottom;
position = "{384, 0}";
},
{
name = ogonek;
position = "{460, 2}";
},
{
name = top;
position = "{384, 760}";
},
{
name = topright;
position = "{633, 740}";
}
);
background = {
paths = (
{
closed = 1;
nodes = (
"575 -9 OFFCURVE",
"667 77 OFFCURVE",
"667 283 CURVE SMOOTH",
"667 740 LINE",
"633 740 LINE",
"633 278 LINE SMOOTH",
"633 99 OFFCURVE",
"554 24 OFFCURVE",
"384 24 CURVE SMOOTH",
"214 24 OFFCURVE",
"135 99 OFFCURVE",
"135 278 CURVE SMOOTH",
"135 740 LINE",
"101 740 LINE",
"101 283 LINE SMOOTH",
"101 77 OFFCURVE",
"193 -9 OFFCURVE",
"384 -9 CURVE SMOOTH"
);
}
);
};
color = -1;
layerId = "E28BEEB5-BD92-4E7A-B4EA-FC5E5BBBF580";
paths = (
{
closed = 1;
nodes = (
"575 -9 OFFCURVE",
"666 77 OFFCURVE",
"666 283 CURVE SMOOTH",
"666 740 LINE",
"633 740 LINE",
"633 278 LINE SMOOTH",
"633 99 OFFCURVE",
"554 24 OFFCURVE",
"384 24 CURVE SMOOTH",
"214 24 OFFCURVE",
"135 99 OFFCURVE",
"135 278 CURVE SMOOTH",
"135 740 LINE",
"101 740 LINE",
"101 283 LINE SMOOTH",
"101 77 OFFCURVE",
"193 -9 OFFCURVE",
"384 -9 CURVE SMOOTH"
);
}
);
width = 767;
},
{
anchors = (
{
name = bottom;
position = "{440, 0}";
},
{
name = ogonek;
position = "{569, 0}";
},
{
name = top;
position = "{440, 760}";
},
{
name = topright;
position = "{581, 740}";
}
);
background = {
anchors = (
{
name = bottom;
position = "{438, -110}";
},
{
name = ogonek;
position = "{438, 54}";
},
{
name = topUC;
position = "{441, 885}";
}
);
paths = (
{
closed = 1;
nodes = (
"295 0 LINE",
"295 277 LINE",
"586 277 LINE",
"586 0 LINE",
"824 0 LINE",
"824 740 LINE",
"586 740 LINE",
"586 478 LINE",
"295 478 LINE",
"295 740 LINE",
"57 740 LINE",
"57 0 LINE"
);
}
);
};
color = -1;
layerId = "1E90A949-97C4-49F5-AA9A-AF35B6FD63CF";
paths = (
{
closed = 1;
nodes = (
"706 -10 OFFCURVE",
"815 123 OFFCURVE",
"815 347 CURVE SMOOTH",
"815 740 LINE",
"581 740 LINE",
"581 328 LINE SMOOTH",
"581 225 OFFCURVE",
"534 178 OFFCURVE",
"440 178 CURVE SMOOTH",
"346 178 OFFCURVE",
"299 225 OFFCURVE",
"299 328 CURVE SMOOTH",
"299 740 LINE",
"61 740 LINE",
"61 347 LINE SMOOTH",
"61 123 OFFCURVE",
"169 -10 OFFCURVE",
"440 -10 CURVE SMOOTH"
);
}
);
width = 876;
}
);
leftKerningGroup = KERN_U;
rightKerningGroup = KERN_U;
unicode = 0055;
userData = {
com.typemytype.robofont.layerData = {
};
};
},
{
glyphname = Uhorn;
lastChange = "2016-12-08 16:06:02 +0000";
layers = (
{
anchors = (
{
name = bottom;
position = "{300, 0}";
},
{
name = top;
position = "{300, 760}";
}
);
background = {
paths = (
{
closed = 1;
nodes = (
"625 846 OFFCURVE",
"621 865 OFFCURVE",
"613 888 CURVE",
"580 888 LINE",
"587 865 OFFCURVE",
"592 845 OFFCURVE",
"592 817 CURVE SMOOTH",
"592 762 OFFCURVE",
"553 740 OFFCURVE",
"503 740 CURVE SMOOTH",
"487 740 LINE",
"487 241 LINE SMOOTH",
"487 95 OFFCURVE",
"434 24 OFFCURVE",
"299 24 CURVE SMOOTH",
"164 24 OFFCURVE",
"111 95 OFFCURVE",
"111 241 CURVE SMOOTH",
"111 740 LINE",
"77 740 LINE",
"77 246 LINE SMOOTH",
"77 73 OFFCURVE",
"143 -9 OFFCURVE",
"299 -9 CURVE SMOOTH",
"455 -9 OFFCURVE",
"520 73 OFFCURVE",
"520 246 CURVE SMOOTH",
"520 707 LINE",
"580 711 OFFCURVE",
"625 748 OFFCURVE",
"625 816 CURVE SMOOTH"
);
}
);
};
color = -1;
layerId = "ECFF4977-BDCC-4836-B4AC-1801CF0EB460";
paths = (
{
closed = 1;
nodes = (
"626 846 OFFCURVE",
"622 865 OFFCURVE",
"614 888 CURVE",
"581 888 LINE",
"588 865 OFFCURVE",
"593 845 OFFCURVE",
"593 817 CURVE SMOOTH",
"593 762 OFFCURVE",
"554 740 OFFCURVE",
"504 740 CURVE SMOOTH",
"488 740 LINE",
"488 241 LINE SMOOTH",
"488 95 OFFCURVE",
"435 24 OFFCURVE",
"300 24 CURVE SMOOTH",
"165 24 OFFCURVE",
"112 95 OFFCURVE",
"112 241 CURVE SMOOTH",
"112 740 LINE",
"78 740 LINE",
"78 246 LINE SMOOTH",
"78 73 OFFCURVE",
"144 -9 OFFCURVE",
"300 -9 CURVE SMOOTH",
"456 -9 OFFCURVE",
"521 73 OFFCURVE",
"521 246 CURVE SMOOTH",
"521 709 LINE",
"581 712 OFFCURVE",
"626 748 OFFCURVE",
"626 816 CURVE SMOOTH"
);
}
);
width = 599;
},
{
anchors = (
{
name = bottom;
position = "{333, 0}";
},
{
name = top;
position = "{333, 760}";
}
);
background = {
paths = (
{
closed = 1;
nodes = (
"529 -10 OFFCURVE",
"625 79 OFFCURVE",
"625 302 CURVE SMOOTH",
"625 740 LINE",
"433 740 LINE",
"433 280 LINE SMOOTH",
"433 185 OFFCURVE",
"396 154 OFFCURVE",
"334 154 CURVE SMOOTH",
"272 154 OFFCURVE",
"234 185 OFFCURVE",
"234 280 CURVE SMOOTH",
"234 740 LINE",
"38 740 LINE",
"38 302 LINE SMOOTH",
"38 79 OFFCURVE",
"137 -10 OFFCURVE",
"334 -10 CURVE SMOOTH"
);
},
{
closed = 1;
nodes = (
"542 652 LINE SMOOTH",
"638 652 OFFCURVE",
"708 692 OFFCURVE",
"708 806 CURVE SMOOTH",
"708 836 OFFCURVE",
"706 863 OFFCURVE",
"698 888 CURVE",
"565 888 LINE",
"571 862 OFFCURVE",
"573 839 OFFCURVE",
"573 818 CURVE SMOOTH",
"573 759 OFFCURVE",
"547 740 OFFCURVE",
"500 740 CURVE SMOOTH",
"467 740 LINE",
"467 652 LINE"
);
}
);
};
color = -1;
layerId = "C8FFBC04-9D7C-494A-A42D-BACB8E26599D";
widthMetricsKey = "=U+5";
paths = (
{
closed = 1;
nodes = (
"709 836 OFFCURVE",
"707 863 OFFCURVE",
"699 888 CURVE",
"566 888 LINE",
"572 862 OFFCURVE",
"574 839 OFFCURVE",
"574 818 CURVE SMOOTH",
"574 759 OFFCURVE",
"548 740 OFFCURVE",
"501 740 CURVE SMOOTH",
"434 740 LINE",
"434 280 LINE SMOOTH",
"434 185 OFFCURVE",
"397 154 OFFCURVE",
"335 154 CURVE SMOOTH",
"273 154 OFFCURVE",
"235 185 OFFCURVE",
"235 280 CURVE SMOOTH",
"235 740 LINE",
"39 740 LINE",
"39 302 LINE SMOOTH",
"39 79 OFFCURVE",
"138 -10 OFFCURVE",
"335 -10 CURVE SMOOTH",
"530 -10 OFFCURVE",
"626 79 OFFCURVE",
"626 302 CURVE SMOOTH",
"626 666 LINE",
"677 685 OFFCURVE",
"709 729 OFFCURVE",
"709 806 CURVE SMOOTH"
);
}
);
width = 670;
},
{
anchors = (
{
name = bottom;
position = "{384, 0}";
},
{
name = top;
position = "{384, 760}";
}
);
background = {
paths = (
{
closed = 1;
nodes = (
"793 846 OFFCURVE",
"789 865 OFFCURVE",
"780 888 CURVE",
"747 888 LINE",
"755 865 OFFCURVE",
"760 845 OFFCURVE",
"760 817 CURVE SMOOTH",
"760 763 OFFCURVE",
"721 740 OFFCURVE",
"650 740 CURVE SMOOTH",
"633 740 LINE",
"633 278 LINE SMOOTH",
"633 99 OFFCURVE",
"554 24 OFFCURVE",
"384 24 CURVE SMOOTH",
"214 24 OFFCURVE",
"135 99 OFFCURVE",
"135 278 CURVE SMOOTH",
"135 740 LINE",
"101 740 LINE",
"101 283 LINE SMOOTH",
"101 77 OFFCURVE",
"193 -9 OFFCURVE",
"384 -9 CURVE SMOOTH",
"575 -9 OFFCURVE",
"666 77 OFFCURVE",
"666 283 CURVE SMOOTH",
"666 707 LINE",
"748 711 OFFCURVE",
"793 751 OFFCURVE",
"793 816 CURVE SMOOTH"
);
}
);
};
color = -1;
layerId = "E28BEEB5-BD92-4E7A-B4EA-FC5E5BBBF580";
paths = (
{
closed = 1;
nodes = (
"793 846 OFFCURVE",
"789 865 OFFCURVE",
"780 888 CURVE",
"747 888 LINE",
"755 865 OFFCURVE",
"760 845 OFFCURVE",
"760 817 CURVE SMOOTH",
"760 763 OFFCURVE",
"721 740 OFFCURVE",
"650 740 CURVE SMOOTH",
"633 740 LINE",
"633 278 LINE SMOOTH",
"633 99 OFFCURVE",
"554 24 OFFCURVE",
"384 24 CURVE SMOOTH",
"214 24 OFFCURVE",
"135 99 OFFCURVE",
"135 278 CURVE SMOOTH",
"135 740 LINE",
"101 740 LINE",
"101 283 LINE SMOOTH",
"101 77 OFFCURVE",
"193 -9 OFFCURVE",
"384 -9 CURVE SMOOTH",
"575 -9 OFFCURVE",
"666 77 OFFCURVE",
"666 283 CURVE SMOOTH",
"666 708 LINE",
"748 711 OFFCURVE",
"793 751 OFFCURVE",
"793 816 CURVE SMOOTH"
);
}
);
width = 767;
},
{
anchors = (
{
name = bottom;
position = "{438, 0}";
},
{
name = top;
position = "{438, 760}";
}
);
background = {
paths = (
{
closed = 1;
nodes = (
"706 -10 OFFCURVE",
"815 123 OFFCURVE",
"815 347 CURVE SMOOTH",
"815 740 LINE",
"581 740 LINE",
"581 328 LINE SMOOTH",
"581 225 OFFCURVE",
"534 178 OFFCURVE",
"440 178 CURVE SMOOTH",
"346 178 OFFCURVE",
"299 225 OFFCURVE",
"299 328 CURVE SMOOTH",
"299 740 LINE",
"61 740 LINE",
"61 347 LINE SMOOTH",
"61 123 OFFCURVE",
"169 -10 OFFCURVE",
"440 -10 CURVE SMOOTH"
);
},
{
closed = 1;
nodes = (
"729 641 LINE SMOOTH",
"837 641 OFFCURVE",
"906 697 OFFCURVE",
"906 812 CURVE SMOOTH",
"906 833 OFFCURVE",
"905 856 OFFCURVE",
"897 888 CURVE",
"752 888 LINE",
"757 855 OFFCURVE",
"758 836 OFFCURVE",
"758 818 CURVE SMOOTH",
"758 759 OFFCURVE",
"723 740 OFFCURVE",
"649 740 CURVE SMOOTH",
"581 740 LINE",
"581 641 LINE"
);
}
);
};
color = -1;
layerId = "1E90A949-97C4-49F5-AA9A-AF35B6FD63CF";
paths = (
{
closed = 1;
nodes = (
"906 833 OFFCURVE",
"905 856 OFFCURVE",
"897 888 CURVE",
"752 888 LINE",
"757 855 OFFCURVE",
"758 836 OFFCURVE",
"758 818 CURVE SMOOTH",
"758 759 OFFCURVE",
"723 740 OFFCURVE",
"649 740 CURVE SMOOTH",
"581 740 LINE",
"581 328 LINE SMOOTH",
"581 225 OFFCURVE",
"534 178 OFFCURVE",
"440 178 CURVE SMOOTH",
"346 178 OFFCURVE",
"299 225 OFFCURVE",
"299 328 CURVE SMOOTH",
"299 740 LINE",
"61 740 LINE",
"61 347 LINE SMOOTH",
"61 123 OFFCURVE",
"169 -10 OFFCURVE",
"440 -10 CURVE SMOOTH",
"706 -10 OFFCURVE",
"815 123 OFFCURVE",
"815 347 CURVE SMOOTH",
"815 656 LINE",
"872 680 OFFCURVE",
"906 732 OFFCURVE",
"906 812 CURVE SMOOTH"
);
}
);
width = 876;
}
);
leftMetricsKey = U;
widthMetricsKey = U;
unicode = 01AF;
},
{
glyphname = V;
lastChange = "2016-12-08 16:06:02 +0000";
layers = (
{
background = {
paths = (
{
closed = 1;
nodes = (
"508 740 LINE",
"269 20 LINE",
"281 20 LINE",
"42 740 LINE",
"5 740 LINE",
"253 0 LINE",
"296 0 LINE",
"544 740 LINE"
);
}
);
};
color = -1;
layerId = "ECFF4977-BDCC-4836-B4AC-1801CF0EB460";
paths = (
{
closed = 1;
nodes = (
"298 0 LINE",
"544 740 LINE",
"509 740 LINE",
"271 20 LINE",
"279 20 LINE",
"42 740 LINE",
"5 740 LINE",
"251 0 LINE"
);
}
);
width = 549;
},
{
background = {
paths = (
{
closed = 1;
nodes = (
"443 0 LINE",
"629 740 LINE",
"443 740 LINE",
"305 167 LINE",
"314 167 LINE",
"173 740 LINE",
"-17 740 LINE",
"173 0 LINE"
);
}
);
};
color = -1;
layerId = "C8FFBC04-9D7C-494A-A42D-BACB8E26599D";
paths = (
{
closed = 1;
nodes = (
"470 0 LINE",
"649 740 LINE",
"462 740 LINE",
"306 75 LINE",
"344 75 LINE",
"192 740 LINE",
"-9 740 LINE",
"170 0 LINE"
);
}
);
width = 640;
},
{
background = {
anchors = (
{
name = bottom;
position = "{346, 0}";
},
{
name = top;
position = "{346, 760}";
}
);
paths = (
{
closed = 1;
nodes = (
"645 740 LINE",
"340 20 LINE",
"352 20 LINE",
"47 740 LINE",
"9 740 LINE",
"324 0 LINE",
"367 0 LINE",
"682 740 LINE"
);
}
);
};
color = -1;
layerId = "E28BEEB5-BD92-4E7A-B4EA-FC5E5BBBF580";
paths = (
{
closed = 1;
nodes = (
"369 0 LINE",
"682 740 LINE",
"646 740 LINE",
"343 20 LINE",
"351 20 LINE",
"47 740 LINE",
"9 740 LINE",
"322 0 LINE"
);
}
);
width = 691;
},
{
background = {
paths = (
{
closed = 1;
nodes = (
"606 0 LINE",
"866 740 LINE",
"634 740 LINE",
"414 98 LINE",
"465 98 LINE",
"250 740 LINE",
"2 740 LINE",
"262 0 LINE"
);
}
);
};
color = -1;
layerId = "1E90A949-97C4-49F5-AA9A-AF35B6FD63CF";
paths = (
{
closed = 1;
nodes = (
"606 0 LINE",
"866 740 LINE",
"632 740 LINE",
"412 98 LINE",
"468 98 LINE",
"253 740 LINE",
"2 740 LINE",
"262 0 LINE"
);
}
);
width = 868;
}
);
unicode = 0056;
userData = {
com.typemytype.robofont.layerData = {
};
};
},
{
glyphname = W;
lastChange = "2016-12-08 16:06:02 +0000";
layers = (
{
anchors = (
{
name = bottom;
position = "{445, 0}";
},
{
name = top;
position = "{445, 760}";
}
);
background = {
anchors = (
{
name = topUC;
position = "{443, 760}";
}
);
paths = (
{
closed = 1;
nodes = (
"216 0 LINE",
"263 0 LINE",
"415 581 LINE",
"441 688 LINE",
"445 688 LINE",
"468 581 LINE",
"608 0 LINE",
"655 0 LINE",
"849 740 LINE",
"815 740 LINE",
"670 186 LINE",
"635 43 LINE",
"631 43 LINE",
"599 186 LINE",
"466 740 LINE",
"423 740 LINE",
"278 186 LINE",
"243 43 LINE",
"239 43 LINE",
"207 186 LINE",
"74 740 LINE",
"38 740 LINE"
);
}
);
};
color = -1;
layerId = "ECFF4977-BDCC-4836-B4AC-1801CF0EB460";
paths = (
{
closed = 1;
nodes = (
"265 0 LINE",
"448 715 LINE",
"441 715 LINE",
"623 0 LINE",
"670 0 LINE",
"859 740 LINE",
"825 740 LINE",
"643 20 LINE",
"651 20 LINE",
"468 740 LINE",
"421 740 LINE",
"238 20 LINE",
"246 20 LINE",
"65 740 LINE",
"29 740 LINE",
"218 0 LINE"
);
}
);
width = 888;
},
{
anchors = (
{
name = bottom;
position = "{507, 0}";
},
{
name = top;
position = "{507, 760}";
}
);
background = {
paths = (
{
closed = 1;
nodes = (
"691 75 LINE",
"746 75 LINE",
"612 740 LINE",
"413 740 LINE",
"270 75 LINE",
"329 75 LINE",
"198 740 LINE",
"1 740 LINE",
"158 0 LINE",
"417 0 LINE",
"521 478 LINE",
"492 478 LINE",
"595 0 LINE",
"854 0 LINE",
"1011 740 LINE",
"828 740 LINE"
);
}
);
};
color = -1;
layerId = "C8FFBC04-9D7C-494A-A42D-BACB8E26599D";
paths = (
{
closed = 1;
nodes = (
"408 0 LINE",
"538 600 LINE",
"488 600 LINE",
"606 0 LINE",
"860 0 LINE",
"1012 740 LINE",
"829 740 LINE",
"697 69 LINE",
"750 69 LINE",
"620 740 LINE",
"408 740 LINE",
"268 69 LINE",
"325 69 LINE",
"199 740 LINE",
"2 740 LINE",
"154 0 LINE"
);
}
);
width = 1014;
},
{
anchors = (
{
name = bottom;
position = "{565, 0}";
},
{
name = top;
position = "{565, 760}";
}
);
background = {
anchors = (
{
name = bottom;
position = "{565, 0}";
},
{
name = top;
position = "{565, 760}";
}
);
paths = (
{
closed = 1;
nodes = (
"329 0 LINE",
"569 717 LINE",
"559 717 LINE",
"800 0 LINE",
"847 0 LINE",
"1090 740 LINE",
"1054 740 LINE",
"820 20 LINE",
"828 20 LINE",
"588 740 LINE",
"541 740 LINE",
"302 20 LINE",
"310 20 LINE",
"75 740 LINE",
"38 740 LINE",
"282 0 LINE"
);
}
);
};
color = -1;
layerId = "E28BEEB5-BD92-4E7A-B4EA-FC5E5BBBF580";
paths = (
{
closed = 1;
nodes = (
"329 0 LINE",
"569 717 LINE",
"559 717 LINE",
"800 0 LINE",
"847 0 LINE",
"1090 740 LINE",
"1055 740 LINE",
"820 20 LINE",
"828 20 LINE",
"588 740 LINE",
"541 740 LINE",
"302 20 LINE",
"310 20 LINE",
"75 740 LINE",
"38 740 LINE",
"282 0 LINE"
);
}
);
width = 1129;
},
{
anchors = (
{
name = bottom;
position = "{686, 0}";
},
{
name = top;
position = "{686, 760}";
}
);
background = {
paths = (
{
closed = 1;
nodes = (
"532 0 LINE",
"722 618 LINE",
"657 618 LINE",
"840 0 LINE",
"1140 0 LINE",
"1361 740 LINE",
"1136 740 LINE",
"958 118 LINE",
"1002 118 LINE",
"821 740 LINE",
"563 740 LINE",
"373 118 LINE",
"424 118 LINE",
"250 740 LINE",
"11 740 LINE",
"232 0 LINE"
);
}
);
};
color = -1;
layerId = "1E90A949-97C4-49F5-AA9A-AF35B6FD63CF";
paths = (
{
closed = 1;
nodes = (
"532 0 LINE",
"722 618 LINE",
"657 618 LINE",
"840 0 LINE",
"1140 0 LINE",
"1361 740 LINE",
"1135 740 LINE",
"957 118 LINE",
"1003 118 LINE",
"822 740 LINE",
"562 740 LINE",
"372 118 LINE",
"425 118 LINE",
"251 740 LINE",
"11 740 LINE",
"232 0 LINE"
);
}
);
width = 1372;
}
);
leftKerningGroup = KERN_W;
rightKerningGroup = KERN_W;
unicode = 0057;
userData = {
com.typemytype.robofont.layerData = {
};
};
},
{
glyphname = X;
lastChange = "2016-12-08 16:06:02 +0000";
layers = (
{
background = {
paths = (
{
closed = 1;
nodes = (
"16 0 LINE",
"56 0 LINE",
"517 740 LINE",
"477 740 LINE"
);
},
{
closed = 1;
nodes = (
"21 740 LINE",
"481 0 LINE",
"522 0 LINE",
"61 740 LINE"
);
},
{
closed = 1;
nodes = (
"84 0 LINE",
"84 364 LINE",
"462 364 LINE",
"462 0 LINE",
"496 0 LINE",
"496 740 LINE",
"462 740 LINE",
"462 397 LINE",
"84 397 LINE",
"84 740 LINE",
"50 740 LINE",
"50 0 LINE"
);
}
);
};
color = -1;
layerId = "ECFF4977-BDCC-4836-B4AC-1801CF0EB460";
paths = (
{
closed = 1;
nodes = (
"522 0 LINE",
"289 374 LINE",
"269 405 LINE",
"61 740 LINE",
"21 740 LINE",
"249 374 LINE",
"269 342 LINE",
"481 0 LINE"
);
},
{
closed = 1;
nodes = (
"56 0 LINE",
"269 342 LINE",
"289 374 LINE",
"517 740 LINE",
"477 740 LINE",
"269 405 LINE",
"249 374 LINE",
"16 0 LINE"
);
}
);
width = 538;
},
{
background = {
paths = (
{
closed = 1;
nodes = (
"665 0 LINE",
"211 740 LINE",
"-2 740 LINE",
"454 0 LINE"
);
},
{
closed = 1;
nodes = (
"184 0 LINE",
"642 740 LINE",
"432 740 LINE",
"-27 0 LINE"
);
},
{
closed = 1;
nodes = (
"1565 0 LINE",
"1332 391 LINE",
"1221 543 LINE",
"1108 740 LINE",
"901 740 LINE",
"1110 389 LINE",
"1219 237 LINE",
"1357 0 LINE"
);
},
{
closed = 1;
nodes = (
"1081 0 LINE",
"1219 237 LINE",
"1332 391 LINE",
"1539 740 LINE",
"1335 740 LINE",
"1221 543 LINE",
"1110 389 LINE",
"876 0 LINE"
);
}
);
};
color = -1;
layerId = "C8FFBC04-9D7C-494A-A42D-BACB8E26599D";
paths = (
{
closed = 1;
nodes = (
"666 0 LINE",
"436 389 LINE",
"322 548 LINE",
"211 740 LINE",
"-3 740 LINE",
"208 388 LINE",
"322 232 LINE",
"455 0 LINE"
);
},
{
closed = 1;
nodes = (
"188 0 LINE",
"322 232 LINE",
"436 389 LINE",
"643 740 LINE",
"433 740 LINE",
"322 548 LINE",
"208 388 LINE",
"-26 0 LINE"
);
}
);
width = 645;
},
{
background = {
anchors = (
{
name = bottom;
position = "{338, 0}";
},
{
name = top;
position = "{338, 760}";
}
);
paths = (
{
closed = 1;
nodes = (
"661 0 LINE",
"360 374 LINE",
"339 401 LINE",
"66 740 LINE",
"21 740 LINE",
"317 373 LINE",
"338 346 LINE",
"616 0 LINE"
);
},
{
closed = 1;
nodes = (
"60 0 LINE",
"338 346 LINE",
"360 374 LINE",
"656 740 LINE",
"613 740 LINE",
"339 401 LINE",
"317 373 LINE",
"16 0 LINE"
);
}
);
};
color = -1;
layerId = "E28BEEB5-BD92-4E7A-B4EA-FC5E5BBBF580";
paths = (
{
closed = 1;
nodes = (
"661 0 LINE",
"360 374 LINE",
"339 401 LINE",
"66 740 LINE",
"21 740 LINE",
"317 373 LINE",
"338 346 LINE",
"616 0 LINE"
);
},
{
closed = 1;
nodes = (
"60 0 LINE",
"338 346 LINE",
"360 374 LINE",
"656 740 LINE",
"613 740 LINE",
"339 401 LINE",
"317 373 LINE",
"16 0 LINE"
);
}
);
width = 678;
},
{
background = {
paths = (
{
closed = 1;
nodes = (
"838 0 LINE",
"256 740 LINE",
"-7 740 LINE",
"575 0 LINE"
);
},
{
closed = 1;
nodes = (
"219 0 LINE",
"808 740 LINE",
"552 740 LINE",
"-37 0 LINE"
);
}
);
};
color = -1;
layerId = "1E90A949-97C4-49F5-AA9A-AF35B6FD63CF";
paths = (
{
closed = 1;
nodes = (
"830 0 LINE",
"535 391 LINE",
"398 543 LINE",
"252 740 LINE",
"-12 740 LINE",
"256 387 LINE",
"393 235 LINE",
"566 0 LINE"
);
},
{
closed = 1;
nodes = (
"221 0 LINE",
"393 235 LINE",
"535 391 LINE",
"798 740 LINE",
"543 740 LINE",
"398 543 LINE",
"256 387 LINE",
"-35 0 LINE"
);
}
);
width = 794;
}
);
unicode = 0058;
userData = {
com.typemytype.robofont.layerData = {
};
};
},
{
glyphname = Y;
lastChange = "2016-12-08 16:06:02 +0000";
layers = (
{
anchors = (
{
name = bottom;
position = "{245, 0}";
},
{
name = top;
position = "{245, 760}";
},
{
name = topleft;
position = "{6, 740}";
}
);
background = {
paths = (
{
closed = 1;
nodes = (
"1055 740 LINE",
"838 392 LINE",
"852 392 LINE",
"636 740 LINE",
"597 740 LINE",
"836 356 LINE",
"828 384 LINE",
"828 0 LINE",
"862 0 LINE",
"862 384 LINE",
"854 356 LINE",
"1093 740 LINE"
);
},
{
closed = 1;
nodes = (
"520 740 LINE",
"236 358 LINE",
"256 358 LINE",
"-28 740 LINE",
"-72 740 LINE",
"238 326 LINE",
"228 353 LINE",
"228 0 LINE",
"262 0 LINE",
"262 353 LINE",
"252 326 LINE",
"562 740 LINE"
);
}
);
};
color = -1;
layerId = "ECFF4977-BDCC-4836-B4AC-1801CF0EB460";
paths = (
{
closed = 1;
nodes = (
"262 0 LINE",
"262 354 LINE",
"254 326 LINE",
"497 740 LINE",
"459 740 LINE",
"238 362 LINE",
"252 362 LINE",
"28 740 LINE",
"-11 740 LINE",
"236 326 LINE",
"228 354 LINE",
"228 0 LINE"
);
}
);
width = 490;
},
{
anchors = (
{
name = bottom;
position = "{297, 0}";
},
{
name = top;
position = "{298, 760}";
},
{
name = topleft;
position = "{-23, 740}";
}
);
background = {
paths = (
{
closed = 1;
nodes = (
"394 0 LINE",
"394 385 LINE",
"354 230 LINE",
"623 740 LINE",
"436 740 LINE",
"280 435 LINE",
"325 435 LINE",
"166 740 LINE",
"-39 740 LINE",
"238 230 LINE",
"198 388 LINE",
"198 0 LINE"
);
}
);
};
color = -1;
layerId = "C8FFBC04-9D7C-494A-A42D-BACB8E26599D";
paths = (
{
closed = 1;
nodes = (
"395 0 LINE",
"395 385 LINE",
"355 230 LINE",
"626 740 LINE",
"438 740 LINE",
"278 435 LINE",
"328 435 LINE",
"169 740 LINE",
"-36 740 LINE",
"239 230 LINE",
"199 388 LINE",
"199 0 LINE"
);
}
);
width = 593;
},
{
anchors = (
{
name = bottom;
position = "{308, 0}";
},
{
name = top;
position = "{308, 760}";
},
{
name = topleft;
position = "{5, 740}";
}
);
background = {
anchors = (
{
name = bottom;
position = "{308, 0}";
},
{
name = top;
position = "{308, 760}";
},
{
name = topleft;
position = "{5, 740}";
}
);
paths = (
{
closed = 1;
nodes = (
"325 0 LINE",
"325 353 LINE",
"315 326 LINE",
"625 740 LINE",
"583 740 LINE",
"299 358 LINE",
"319 358 LINE",
"35 740 LINE",
"-9 740 LINE",
"301 326 LINE",
"291 353 LINE",
"291 0 LINE"
);
}
);
};
color = -1;
layerId = "E28BEEB5-BD92-4E7A-B4EA-FC5E5BBBF580";
paths = (
{
closed = 1;
nodes = (
"325 0 LINE",
"325 353 LINE",
"315 326 LINE",
"623 740 LINE",
"581 740 LINE",
"299 358 LINE",
"319 358 LINE",
"33 740 LINE",
"-11 740 LINE",
"301 326 LINE",
"291 353 LINE",
"291 0 LINE"
);
}
);
width = 616;
},
{
anchors = (
{
name = bottom;
position = "{381, 0}";
},
{
name = top;
position = "{381, 760}";
},
{
name = topleft;
position = "{5, 740}";
}
);
background = {
paths = (
{
closed = 1;
nodes = (
"503 0 LINE",
"503 388 LINE",
"455 233 LINE",
"783 740 LINE",
"553 740 LINE",
"357 436 LINE",
"419 436 LINE",
"218 740 LINE",
"-29 740 LINE",
"313 233 LINE",
"265 391 LINE",
"265 0 LINE"
);
}
);
};
color = -1;
layerId = "1E90A949-97C4-49F5-AA9A-AF35B6FD63CF";
paths = (
{
closed = 1;
nodes = (
"503 0 LINE",
"503 388 LINE",
"457 233 LINE",
"785 740 LINE",
"551 740 LINE",
"355 436 LINE",
"421 436 LINE",
"220 740 LINE",
"-31 740 LINE",
"311 233 LINE",
"265 391 LINE",
"265 0 LINE"
);
}
);
width = 764;
}
);
leftKerningGroup = KERN_Y;
rightKerningGroup = KERN_Y;
unicode = 0059;
userData = {
com.typemytype.robofont.layerData = {
};
};
},
{
glyphname = Z;
lastChange = "2016-12-08 16:06:02 +0000";
layers = (
{
anchors = (
{
name = bottom;
position = "{237, 0}";
},
{
name = top;
position = "{237, 760}";
}
);
background = {
paths = (
{
closed = 1;
nodes = (
"416 0 LINE",
"416 32 LINE",
"56 32 LINE",
"64 19 LINE",
"411 720 LINE",
"411 740 LINE",
"32 740 LINE",
"32 708 LINE",
"382 708 LINE",
"374 721 LINE",
"27 20 LINE",
"27 0 LINE"
);
}
);
};
color = -1;
layerId = "ECFF4977-BDCC-4836-B4AC-1801CF0EB460";
paths = (
{
closed = 1;
nodes = (
"446 0 LINE",
"446 32 LINE",
"56 32 LINE",
"64 19 LINE",
"441 720 LINE",
"441 740 LINE",
"32 740 LINE",
"32 708 LINE",
"412 708 LINE",
"404 721 LINE",
"27 20 LINE",
"27 0 LINE"
);
}
);
width = 475;
},
{
anchors = (
{
name = bottom;
position = "{275, 0}";
},
{
name = top;
position = "{279, 760}";
}
);
background = {
paths = (
{
closed = 1;
nodes = (
"539 0 LINE",
"539 169 LINE",
"250 169 LINE",
"250 140 LINE",
"534 630 LINE",
"534 740 LINE",
"20 740 LINE",
"20 571 LINE",
"299 571 LINE",
"299 600 LINE",
"15 110 LINE",
"15 0 LINE"
);
}
);
};
color = -1;
layerId = "C8FFBC04-9D7C-494A-A42D-BACB8E26599D";
paths = (
{
closed = 1;
nodes = (
"540 0 LINE",
"540 173 LINE",
"251 173 LINE",
"251 140 LINE",
"535 630 LINE",
"535 740 LINE",
"21 740 LINE",
"21 567 LINE",
"300 567 LINE",
"300 600 LINE",
"16 110 LINE",
"16 0 LINE"
);
}
);
width = 556;
},
{
anchors = (
{
name = bottom;
position = "{311, 0}";
},
{
name = top;
position = "{311, 760}";
}
);
background = {
anchors = (
{
name = bottom;
position = "{286, 0}";
},
{
name = top;
position = "{286, 760}";
}
);
paths = (
{
closed = 1;
nodes = (
"540 0 LINE",
"540 32 LINE",
"67 32 LINE",
"73 20 LINE",
"533 720 LINE",
"533 740 LINE",
"39 740 LINE",
"39 708 LINE",
"498 708 LINE",
"492 720 LINE",
"32 20 LINE",
"32 0 LINE"
);
}
);
};
color = -1;
layerId = "E28BEEB5-BD92-4E7A-B4EA-FC5E5BBBF580";
paths = (
{
closed = 1;
nodes = (
"590 0 LINE",
"590 32 LINE",
"67 32 LINE",
"73 20 LINE",
"583 720 LINE",
"583 740 LINE",
"39 740 LINE",
"39 708 LINE",
"548 708 LINE",
"542 720 LINE",
"32 20 LINE",
"32 0 LINE"
);
}
);
width = 622;
},
{
anchors = (
{
name = bottom;
position = "{370, 0}";
},
{
name = top;
position = "{370, 760}";
}
);
background = {
paths = (
{
closed = 1;
nodes = (
"698 0 LINE",
"698 180 LINE",
"313 180 LINE",
"313 140 LINE",
"693 613 LINE",
"693 740 LINE",
"46 740 LINE",
"46 560 LINE",
"421 560 LINE",
"421 600 LINE",
"41 127 LINE",
"41 0 LINE"
);
}
);
};
color = -1;
layerId = "1E90A949-97C4-49F5-AA9A-AF35B6FD63CF";
paths = (
{
closed = 1;
nodes = (
"698 0 LINE",
"698 184 LINE",
"313 184 LINE",
"313 140 LINE",
"693 613 LINE",
"693 740 LINE",
"46 740 LINE",
"46 556 LINE",
"421 556 LINE",
"421 600 LINE",
"41 127 LINE",
"41 0 LINE"
);
}
);
width = 739;
}
);
leftKerningGroup = KERN_Z_2ND;
rightKerningGroup = KERN_Z_1ST;
unicode = 005A;
userData = {
com.typemytype.robofont.layerData = {
};
};
},
{
glyphname = a;
lastChange = "2016-12-08 20:38:37 +0000";
layers = (
{
anchors = (
{
name = bottom;
position = "{212, 0}";
},
{
name = ogonek;
position = "{359, 0}";
},
{
name = top;
position = "{210, 600}";
}
);
background = {
paths = (
{
closed = 1;
nodes = (
"740 -8 OFFCURVE",
"789 15 OFFCURVE",
"822 61 CURVE",
"826 61 LINE",
"829 0 LINE",
"859 0 LINE",
"859 380 LINE SMOOTH",
"859 506 OFFCURVE",
"800 548 OFFCURVE",
"695 548 CURVE SMOOTH",
"655 548 OFFCURVE",
"604 540 OFFCURVE",
"568 526 CURVE",
"568 492 LINE",
"613 508 OFFCURVE",
"659 515 OFFCURVE",
"694 515 CURVE SMOOTH",
"778 515 OFFCURVE",
"825 486 OFFCURVE",
"825 381 CURVE SMOOTH",
"825 111 LINE",
"786 45 OFFCURVE",
"732 25 OFFCURVE",
"686 25 CURVE SMOOTH",
"617 25 OFFCURVE",
"578 60 OFFCURVE",
"578 137 CURVE SMOOTH",
"578 207 OFFCURVE",
"617 245 OFFCURVE",
"704 255 CURVE SMOOTH",
"848 271 LINE",
"843 304 LINE",
"705 288 LINE SMOOTH",
"594 275 OFFCURVE",
"541 225 OFFCURVE",
"541 133 CURVE SMOOTH",
"541 41 OFFCURVE",
"599 -8 OFFCURVE",
"683 -8 CURVE SMOOTH"
);
},
{
closed = 1;
nodes = (
"67 0 LINE",
"67 425 LINE",
"101 487 OFFCURVE",
"162 515 OFFCURVE",
"216 515 CURVE SMOOTH",
"281 515 OFFCURVE",
"325 484 OFFCURVE",
"325 387 CURVE SMOOTH",
"325 0 LINE",
"359 0 LINE",
"359 388 LINE SMOOTH",
"359 510 OFFCURVE",
"298 548 OFFCURVE",
"218 548 CURVE SMOOTH",
"159 548 OFFCURVE",
"107 522 OFFCURVE",
"70 478 CURVE",
"66 478 LINE",
"63 540 LINE",
"33 540 LINE",
"33 0 LINE"
);
}
);
};
color = -1;
guideLines = (
{
angle = 90;
position = "{71, 165}";
}
);
layerId = "ECFF4977-BDCC-4836-B4AC-1801CF0EB460";
paths = (
{
closed = 1;
nodes = (
"240 -8 OFFCURVE",
"289 15 OFFCURVE",
"322 61 CURVE",
"326 61 LINE",
"329 0 LINE",
"359 0 LINE",
"359 377 LINE SMOOTH",
"359 506 OFFCURVE",
"300 548 OFFCURVE",
"195 548 CURVE SMOOTH",
"155 548 OFFCURVE",
"104 540 OFFCURVE",
"68 526 CURVE",
"68 492 LINE",
"113 508 OFFCURVE",
"159 515 OFFCURVE",
"194 515 CURVE SMOOTH",
"278 515 OFFCURVE",
"325 486 OFFCURVE",
"325 378 CURVE SMOOTH",
"325 111 LINE",
"286 45 OFFCURVE",
"232 25 OFFCURVE",
"186 25 CURVE SMOOTH",
"117 25 OFFCURVE",
"78 60 OFFCURVE",
"78 137 CURVE SMOOTH",
"78 207 OFFCURVE",
"117 246 OFFCURVE",
"204 255 CURVE SMOOTH",
"348 271 LINE",
"343 304 LINE",
"205 288 LINE SMOOTH",
"94 276 OFFCURVE",
"41 225 OFFCURVE",
"41 133 CURVE SMOOTH",
"41 41 OFFCURVE",
"99 -8 OFFCURVE",
"183 -8 CURVE SMOOTH"
);
}
);
width = 426;
},
{
anchors = (
{
name = bottom;
position = "{249, 0}";
},
{
name = ogonek;
position = "{465, 0}";
},
{
name = top;
position = "{249, 600}";
}
);
background = {
paths = (
{
closed = 1;
nodes = (
"221 -11 OFFCURVE",
"264 7 OFFCURVE",
"287 56 CURVE",
"295 56 LINE",
"309 0 LINE",
"465 0 LINE",
"465 323 LINE SMOOTH",
"465 490 OFFCURVE",
"389 559 OFFCURVE",
"224 559 CURVE SMOOTH",
"165 559 OFFCURVE",
"115 554 OFFCURVE",
"56 540 CURVE",
"56 388 LINE",
"98 400 OFFCURVE",
"146 406 OFFCURVE",
"185 406 CURVE SMOOTH",
"252 406 OFFCURVE",
"278 387 OFFCURVE",
"278 332 CURVE SMOOTH",
"278 144 LINE",
"266 135 OFFCURVE",
"253 132 OFFCURVE",
"241 132 CURVE SMOOTH",
"217 132 OFFCURVE",
"200 147 OFFCURVE",
"200 177 CURVE SMOOTH",
"200 209 OFFCURVE",
"219 228 OFFCURVE",
"255 230 CURVE SMOOTH",
"323 234 LINE",
"297 338 LINE",
"231 334 LINE SMOOTH",
"74 324 OFFCURVE",
"13 262 OFFCURVE",
"13 153 CURVE SMOOTH",
"13 55 OFFCURVE",
"77 -11 OFFCURVE",
"170 -11 CURVE SMOOTH"
);
}
);
};
color = -1;
layerId = "C8FFBC04-9D7C-494A-A42D-BACB8E26599D";
paths = (
{
closed = 1;
nodes = (
"221 -11 OFFCURVE",
"264 7 OFFCURVE",
"287 56 CURVE",
"295 56 LINE",
"309 0 LINE",
"465 0 LINE",
"465 323 LINE SMOOTH",
"465 498 OFFCURVE",
"393 559 OFFCURVE",
"224 559 CURVE SMOOTH",
"170 559 OFFCURVE",
"106 552 OFFCURVE",
"56 540 CURVE",
"56 388 LINE",
"98 400 OFFCURVE",
"146 406 OFFCURVE",
"185 406 CURVE SMOOTH",
"258 406 OFFCURVE",
"278 386 OFFCURVE",
"278 332 CURVE SMOOTH",
"278 144 LINE",
"266 135 OFFCURVE",
"253 132 OFFCURVE",
"241 132 CURVE SMOOTH",
"217 132 OFFCURVE",
"200 147 OFFCURVE",
"200 177 CURVE SMOOTH",
"200 209 OFFCURVE",
"219 228 OFFCURVE",
"255 230 CURVE SMOOTH",
"323 234 LINE",
"297 338 LINE",
"231 334 LINE SMOOTH",
"74 324 OFFCURVE",
"13 262 OFFCURVE",
"13 153 CURVE SMOOTH",
"13 55 OFFCURVE",
"77 -11 OFFCURVE",
"170 -11 CURVE SMOOTH"
);
}
);
width = 502;
},
{
anchors = (
{
name = bottom;
position = "{284, 0}";
},
{
name = ogonek;
position = "{461, 0}";
},
{
name = top;
position = "{272, 600}";
}
);
background = {
paths = (
{
closed = 1;
nodes = (
"311 -8 OFFCURVE",
"383 23 OFFCURVE",
"424 66 CURVE",
"428 66 LINE",
"431 0 LINE",
"461 0 LINE",
"461 369 LINE SMOOTH",
"461 506 OFFCURVE",
"386 548 OFFCURVE",
"259 548 CURVE SMOOTH",
"204 548 OFFCURVE",
"142 539 OFFCURVE",
"95 521 CURVE",
"95 487 LINE",
"154 508 OFFCURVE",
"213 515 OFFCURVE",
"260 515 CURVE SMOOTH",
"366 515 OFFCURVE",
"427 486 OFFCURVE",
"427 368 CURVE SMOOTH",
"427 109 LINE",
"375 53 OFFCURVE",
"307 25 OFFCURVE",
"236 25 CURVE SMOOTH",
"143 25 OFFCURVE",
"101 67 OFFCURVE",
"101 136 CURVE SMOOTH",
"101 203 OFFCURVE",
"145 239 OFFCURVE",
"249 252 CURVE SMOOTH",
"443 276 LINE",
"448 309 LINE",
"249 285 LINE SMOOTH",
"120 269 OFFCURVE",
"64 222 OFFCURVE",
"64 134 CURVE SMOOTH",
"64 45 OFFCURVE",
"127 -8 OFFCURVE",
"236 -8 CURVE SMOOTH"
);
}
);
};
color = 4;
guideLines = (
{
angle = 90;
position = "{105, 165}";
}
);
layerId = "E28BEEB5-BD92-4E7A-B4EA-FC5E5BBBF580";
paths = (
{
closed = 1;
nodes = (
"311 -8 OFFCURVE",
"383 23 OFFCURVE",
"424 67 CURVE",
"428 67 LINE",
"431 0 LINE",
"461 0 LINE",
"461 369 LINE SMOOTH",
"461 506 OFFCURVE",
"386 548 OFFCURVE",
"259 548 CURVE SMOOTH",
"204 548 OFFCURVE",
"142 539 OFFCURVE",
"95 521 CURVE",
"95 487 LINE",
"154 508 OFFCURVE",
"213 515 OFFCURVE",
"260 515 CURVE SMOOTH",
"366 515 OFFCURVE",
"427 486 OFFCURVE",
"427 368 CURVE SMOOTH",
"427 109 LINE",
"375 53 OFFCURVE",
"307 25 OFFCURVE",
"236 25 CURVE SMOOTH",
"143 25 OFFCURVE",
"101 67 OFFCURVE",
"101 136 CURVE SMOOTH",
"101 203 OFFCURVE",
"144 239 OFFCURVE",
"258 253 CURVE SMOOTH",
"446 276 LINE",
"448 309 LINE",
"259 286 LINE SMOOTH",
"120 269 OFFCURVE",
"64 222 OFFCURVE",
"64 134 CURVE SMOOTH",
"64 45 OFFCURVE",
"127 -8 OFFCURVE",
"236 -8 CURVE SMOOTH"
);
}
);
width = 547;
},
{
anchors = (
{
name = bottom;
position = "{333, 0}";
},
{
name = ogonek;
position = "{617, 0}";
},
{
name = top;
position = "{333, 600}";
}
);
background = {
paths = (
{
closed = 1;
nodes = (
"305 -11 OFFCURVE",
"361 5 OFFCURVE",
"400 45 CURVE",
"410 45 LINE",
"425 0 LINE",
"617 0 LINE",
"617 292 LINE SMOOTH",
"617 482 OFFCURVE",
"511 559 OFFCURVE",
"297 559 CURVE SMOOTH",
"235 559 OFFCURVE",
"153 551 OFFCURVE",
"85 533 CURVE",
"85 372 LINE",
"139 387 OFFCURVE",
"208 395 OFFCURVE",
"255 395 CURVE SMOOTH",
"359 395 OFFCURVE",
"390 371 OFFCURVE",
"390 297 CURVE SMOOTH",
"390 152 LINE",
"368 141 OFFCURVE",
"341 138 OFFCURVE",
"319 138 CURVE SMOOTH",
"277 138 OFFCURVE",
"257 154 OFFCURVE",
"257 177 CURVE SMOOTH",
"257 202 OFFCURVE",
"274 219 OFFCURVE",
"325 222 CURVE SMOOTH",
"450 229 LINE",
"428 341 LINE",
"305 334 LINE SMOOTH",
"112 323 OFFCURVE",
"28 263 OFFCURVE",
"28 156 CURVE SMOOTH",
"28 62 OFFCURVE",
"99 -11 OFFCURVE",
"243 -11 CURVE SMOOTH"
);
}
);
};
color = 4;
layerId = "1E90A949-97C4-49F5-AA9A-AF35B6FD63CF";
paths = (
{
closed = 1;
nodes = (
"305 -11 OFFCURVE",
"361 5 OFFCURVE",
"400 45 CURVE",
"410 45 LINE",
"425 0 LINE",
"617 0 LINE",
"617 287 LINE SMOOTH",
"617 492 OFFCURVE",
"525 559 OFFCURVE",
"297 559 CURVE SMOOTH",
"235 559 OFFCURVE",
"153 551 OFFCURVE",
"85 533 CURVE",
"85 372 LINE",
"139 387 OFFCURVE",
"208 395 OFFCURVE",
"255 395 CURVE SMOOTH",
"359 395 OFFCURVE",
"390 371 OFFCURVE",
"390 307 CURVE SMOOTH",
"390 152 LINE",
"368 141 OFFCURVE",
"341 138 OFFCURVE",
"319 138 CURVE SMOOTH",
"277 138 OFFCURVE",
"257 154 OFFCURVE",
"257 177 CURVE SMOOTH",
"257 202 OFFCURVE",
"274 219 OFFCURVE",
"325 222 CURVE SMOOTH",
"450 229 LINE",
"428 341 LINE",
"305 334 LINE SMOOTH",
"112 323 OFFCURVE",
"28 263 OFFCURVE",
"28 156 CURVE SMOOTH",
"28 62 OFFCURVE",
"99 -11 OFFCURVE",
"243 -11 CURVE SMOOTH"
);
}
);
width = 670;
}
);
leftKerningGroup = KERN_a_2ND;
rightKerningGroup = KERN_a_1ST;
unicode = 0061;
userData = {
com.typemytype.robofont.layerData = {
};
};
},
{
glyphname = o;
lastChange = "2016-12-08 16:06:02 +0000";
layers = (
{
anchors = (
{
name = bottom;
position = "{228, 0}";
},
{
name = center;
position = "{228, 270}";
},
{
name = ogonek;
position = "{289, 0}";
},
{
name = top;
position = "{228, 600}";
},
{
name = topright;
position = "{285, 540}";
}
);
background = {
paths = (
{
closed = 1;
nodes = (
"940 -9 OFFCURVE",
"1012 66 OFFCURVE",
"1012 270 CURVE SMOOTH",
"1012 474 OFFCURVE",
"938 548 OFFCURVE",
"828 548 CURVE SMOOTH",
"716 548 OFFCURVE",
"644 474 OFFCURVE",
"644 270 CURVE SMOOTH",
"644 66 OFFCURVE",
"718 -9 OFFCURVE",
"828 -9 CURVE SMOOTH"
);
},
{
closed = 1;
nodes = (
"738 24 OFFCURVE",
"680 80 OFFCURVE",
"680 272 CURVE SMOOTH",
"680 460 OFFCURVE",
"738 515 OFFCURVE",
"828 515 CURVE SMOOTH",
"918 515 OFFCURVE",
"976 460 OFFCURVE",
"976 268 CURVE SMOOTH",
"976 80 OFFCURVE",
"918 24 OFFCURVE",
"828 24 CURVE SMOOTH"
);
},
{
closed = 1;
nodes = (
"280 -9 OFFCURVE",
"324 20 OFFCURVE",
"348 53 CURVE",
"352 53 LINE",
"355 0 LINE",
"385 0 LINE",
"385 808 LINE",
"351 808 LINE",
"351 543 LINE",
"327 546 OFFCURVE",
"298 548 OFFCURVE",
"274 548 CURVE SMOOTH",
"128 548 OFFCURVE",
"44 462 OFFCURVE",
"44 259 CURVE SMOOTH",
"44 51 OFFCURVE",
"127 -9 OFFCURVE",
"223 -9 CURVE SMOOTH"
);
},
{
closed = 1;
nodes = (
"144 24 OFFCURVE",
"80 68 OFFCURVE",
"80 263 CURVE SMOOTH",
"80 446 OFFCURVE",
"149 515 OFFCURVE",
"273 515 CURVE SMOOTH",
"298 515 OFFCURVE",
"331 512 OFFCURVE",
"351 508 CURVE",
"351 104 LINE",
"325 51 OFFCURVE",
"273 24 OFFCURVE",
"224 24 CURVE SMOOTH"
);
}
);
};
color = -1;
layerId = "ECFF4977-BDCC-4836-B4AC-1801CF0EB460";
paths = (
{
closed = 1;
nodes = (
"340 -9 OFFCURVE",
"412 66 OFFCURVE",
"412 270 CURVE SMOOTH",
"412 474 OFFCURVE",
"338 548 OFFCURVE",
"228 548 CURVE SMOOTH",
"116 548 OFFCURVE",
"44 474 OFFCURVE",
"44 270 CURVE SMOOTH",
"44 66 OFFCURVE",
"118 -9 OFFCURVE",
"228 -9 CURVE SMOOTH"
);
},
{
closed = 1;
nodes = (
"138 24 OFFCURVE",
"80 80 OFFCURVE",
"80 272 CURVE SMOOTH",
"80 460 OFFCURVE",
"138 515 OFFCURVE",
"228 515 CURVE SMOOTH",
"318 515 OFFCURVE",
"376 460 OFFCURVE",
"376 268 CURVE SMOOTH",
"376 80 OFFCURVE",
"318 24 OFFCURVE",
"228 24 CURVE SMOOTH"
);
}
);
width = 456;
},
{
anchors = (
{
name = bottom;
position = "{267, 0}";
},
{
name = center;
position = "{267, 275}";
},
{
name = ogonek;
position = "{353, 0}";
},
{
name = top;
position = "{267, 600}";
},
{
name = topright;
position = "{267, 550}";
}
);
background = {
anchors = (
{
name = bottom;
position = "{264, 0}";
},
{
name = center;
position = "{264, 275}";
},
{
name = ogonek;
position = "{386, 0}";
},
{
name = top;
position = "{270, 600}";
},
{
name = topright;
position = "{463, 550}";
}
);
paths = (
{
closed = 1;
nodes = (
"1025 -11 OFFCURVE",
"1114 79 OFFCURVE",
"1114 273 CURVE SMOOTH",
"1114 463 OFFCURVE",
"1025 559 OFFCURVE",
"867 559 CURVE SMOOTH",
"709 559 OFFCURVE",
"620 468 OFFCURVE",
"620 271 CURVE SMOOTH",
"620 79 OFFCURVE",
"709 -11 OFFCURVE",
"867 -11 CURVE SMOOTH"
);
},
{
closed = 1;
nodes = (
"833 131 OFFCURVE",
"817 151 OFFCURVE",
"817 273 CURVE SMOOTH",
"817 395 OFFCURVE",
"835 417 OFFCURVE",
"867 417 CURVE SMOOTH",
"899 417 OFFCURVE",
"917 395 OFFCURVE",
"917 271 CURVE SMOOTH",
"917 151 OFFCURVE",
"901 131 OFFCURVE",
"867 131 CURVE SMOOTH"
);
},
{
closed = 1;
nodes = (
"224 0 LINE",
"224 368 LINE",
"235 380 OFFCURVE",
"253 388 OFFCURVE",
"272 388 CURVE SMOOTH",
"295 388 OFFCURVE",
"311 377 OFFCURVE",
"311 339 CURVE SMOOTH",
"311 0 LINE",
"504 0 LINE",
"504 354 LINE SMOOTH",
"504 504 OFFCURVE",
"435 559 OFFCURVE",
"345 559 CURVE SMOOTH",
"289 559 OFFCURVE",
"245 537 OFFCURVE",
"213 494 CURVE",
"205 494 LINE",
"191 550 LINE",
"31 550 LINE",
"31 0 LINE"
);
}
);
};
color = -1;
layerId = "C8FFBC04-9D7C-494A-A42D-BACB8E26599D";
paths = (
{
closed = 1;
nodes = (
"425 -11 OFFCURVE",
"514 79 OFFCURVE",
"514 273 CURVE SMOOTH",
"514 463 OFFCURVE",
"425 559 OFFCURVE",
"267 559 CURVE SMOOTH",
"109 559 OFFCURVE",
"20 468 OFFCURVE",
"20 271 CURVE SMOOTH",
"20 79 OFFCURVE",
"109 -11 OFFCURVE",
"267 -11 CURVE SMOOTH"
);
},
{
closed = 1;
nodes = (
"233 131 OFFCURVE",
"217 151 OFFCURVE",
"217 273 CURVE SMOOTH",
"217 395 OFFCURVE",
"235 417 OFFCURVE",
"267 417 CURVE SMOOTH",
"299 417 OFFCURVE",
"317 395 OFFCURVE",
"317 271 CURVE SMOOTH",
"317 151 OFFCURVE",
"301 131 OFFCURVE",
"267 131 CURVE SMOOTH"
);
}
);
width = 534;
},
{
anchors = (
{
name = bottom;
position = "{298, 0}";
},
{
name = center;
position = "{298, 270}";
},
{
name = ogonek;
position = "{371, 0}";
},
{
name = top;
position = "{298, 600}";
},
{
name = topright;
position = "{367, 540}";
}
);
background = {
anchors = (
{
name = bottom;
position = "{298, 0}";
},
{
name = center;
position = "{298, 270}";
},
{
name = ogonek;
position = "{371, 0}";
},
{
name = top;
position = "{298, 600}";
},
{
name = topright;
position = "{367, 540}";
}
);
paths = (
{
closed = 1;
nodes = (
"1038 -9 OFFCURVE",
"1135 77 OFFCURVE",
"1135 270 CURVE SMOOTH",
"1135 467 OFFCURVE",
"1040 548 OFFCURVE",
"898 548 CURVE SMOOTH",
"758 548 OFFCURVE",
"661 463 OFFCURVE",
"661 270 CURVE SMOOTH",
"661 73 OFFCURVE",
"756 -9 OFFCURVE",
"898 -9 CURVE SMOOTH"
);
},
{
closed = 1;
nodes = (
"776 24 OFFCURVE",
"697 92 OFFCURVE",
"697 271 CURVE SMOOTH",
"697 448 OFFCURVE",
"776 515 OFFCURVE",
"898 515 CURVE SMOOTH",
"1020 515 OFFCURVE",
"1099 448 OFFCURVE",
"1099 269 CURVE SMOOTH",
"1099 92 OFFCURVE",
"1020 24 OFFCURVE",
"898 24 CURVE SMOOTH"
);
},
{
closed = 1;
nodes = (
"115 0 LINE",
"115 428 LINE",
"174 492 OFFCURVE",
"256 515 OFFCURVE",
"322 515 CURVE SMOOTH",
"421 515 OFFCURVE",
"482 471 OFFCURVE",
"482 351 CURVE SMOOTH",
"482 0 LINE",
"516 0 LINE",
"516 350 LINE SMOOTH",
"516 493 OFFCURVE",
"439 548 OFFCURVE",
"322 548 CURVE SMOOTH",
"247 548 OFFCURVE",
"174 522 OFFCURVE",
"118 473 CURVE",
"114 473 LINE",
"111 540 LINE",
"81 540 LINE",
"81 0 LINE"
);
}
);
};
color = -1;
layerId = "E28BEEB5-BD92-4E7A-B4EA-FC5E5BBBF580";
paths = (
{
closed = 1;
nodes = (
"438 -9 OFFCURVE",
"535 77 OFFCURVE",
"535 270 CURVE SMOOTH",
"535 467 OFFCURVE",
"440 548 OFFCURVE",
"298 548 CURVE SMOOTH",
"158 548 OFFCURVE",
"61 463 OFFCURVE",
"61 270 CURVE SMOOTH",
"61 73 OFFCURVE",
"156 -9 OFFCURVE",
"298 -9 CURVE SMOOTH"
);
},
{
closed = 1;
nodes = (
"176 24 OFFCURVE",
"97 92 OFFCURVE",
"97 271 CURVE SMOOTH",
"97 448 OFFCURVE",
"176 515 OFFCURVE",
"298 515 CURVE SMOOTH",
"420 515 OFFCURVE",
"499 448 OFFCURVE",
"499 269 CURVE SMOOTH",
"499 92 OFFCURVE",
"420 24 OFFCURVE",
"298 24 CURVE SMOOTH"
);
}
);
width = 596;
},
{
anchors = (
{
name = bottom;
position = "{365, 0}";
},
{
name = center;
position = "{365, 275}";
},
{
name = ogonek;
position = "{470, 0}";
},
{
name = top;
position = "{365, 600}";
},
{
name = topright;
position = "{366, 550}";
}
);
background = {
paths = (
{
closed = 1;
nodes = (
"566 -11 OFFCURVE",
"698 95 OFFCURVE",
"698 275 CURVE SMOOTH",
"698 455 OFFCURVE",
"577 559 OFFCURVE",
"365 559 CURVE SMOOTH",
"153 559 OFFCURVE",
"32 455 OFFCURVE",
"32 275 CURVE SMOOTH",
"32 95 OFFCURVE",
"164 -11 OFFCURVE",
"365 -11 CURVE SMOOTH"
);
},
{
closed = 1;
nodes = (
"297 163 OFFCURVE",
"261 202 OFFCURVE",
"261 275 CURVE SMOOTH",
"261 350 OFFCURVE",
"297 385 OFFCURVE",
"365 385 CURVE SMOOTH",
"433 385 OFFCURVE",
"469 350 OFFCURVE",
"469 275 CURVE SMOOTH",
"469 202 OFFCURVE",
"433 163 OFFCURVE",
"365 163 CURVE SMOOTH"
);
}
);
};
color = -1;
layerId = "1E90A949-97C4-49F5-AA9A-AF35B6FD63CF";
paths = (
{
closed = 1;
nodes = (
"566 -11 OFFCURVE",
"698 97 OFFCURVE",
"698 275 CURVE SMOOTH",
"698 453 OFFCURVE",
"577 559 OFFCURVE",
"365 559 CURVE SMOOTH",
"153 559 OFFCURVE",
"32 453 OFFCURVE",
"32 275 CURVE SMOOTH",
"32 97 OFFCURVE",
"164 -11 OFFCURVE",
"365 -11 CURVE SMOOTH"
);
},
{
closed = 1;
nodes = (
"297 163 OFFCURVE",
"261 198 OFFCURVE",
"261 275 CURVE SMOOTH",
"261 352 OFFCURVE",
"297 385 OFFCURVE",
"365 385 CURVE SMOOTH",
"433 385 OFFCURVE",
"469 352 OFFCURVE",
"469 275 CURVE SMOOTH",
"469 198 OFFCURVE",
"433 163 OFFCURVE",
"365 163 CURVE SMOOTH"
);
}
);
width = 730;
}
);
leftKerningGroup = KERN_o_2ND;
rightKerningGroup = KERN_o_1ST;
unicode = 006F;
userData = {
com.typemytype.robofont.layerData = {
};
};
},
{
glyphname = zero.tf;
lastChange = "2016-12-08 16:06:27 +0000";
layers = (
{
background = {
paths = (
{
closed = 1;
nodes = (
"239 -10 CURVE SMOOTH",
"363 -10 OFFCURVE",
"427 120 OFFCURVE",
"427 369 CURVE SMOOTH",
"427 619 OFFCURVE",
"363 750 OFFCURVE",
"239 750 CURVE SMOOTH",
"116 750 OFFCURVE",
"52 619 OFFCURVE",
"52 369 CURVE SMOOTH",
"52 119 OFFCURVE",
"116 -10 OFFCURVE"
);
},
{
closed = 1;
nodes = (
"239 24 CURVE SMOOTH",
"137 24 OFFCURVE",
"86 140 OFFCURVE",
"86 369 CURVE SMOOTH",
"86 595 OFFCURVE",
"140 716 OFFCURVE",
"239 716 CURVE SMOOTH",
"339 716 OFFCURVE",
"393 595 OFFCURVE",
"393 369 CURVE SMOOTH",
"393 142 OFFCURVE",
"341 24 OFFCURVE"
);
}
);
};
color = -1;
layerId = "ECFF4977-BDCC-4836-B4AC-1801CF0EB460";
paths = (
{
closed = 1;
nodes = (
"369 -9 OFFCURVE",
"445 87 OFFCURVE",
"445 370 CURVE SMOOTH",
"445 653 OFFCURVE",
"370 749 OFFCURVE",
"250 749 CURVE SMOOTH",
"130 749 OFFCURVE",
"55 653 OFFCURVE",
"55 370 CURVE SMOOTH",
"55 87 OFFCURVE",
"131 -9 OFFCURVE",
"250 -9 CURVE SMOOTH"
);
},
{
closed = 1;
nodes = (
"154 24 OFFCURVE",
"91 103 OFFCURVE",
"91 372 CURVE SMOOTH",
"91 637 OFFCURVE",
"154 716 OFFCURVE",
"250 716 CURVE SMOOTH",
"346 716 OFFCURVE",
"409 637 OFFCURVE",
"409 368 CURVE SMOOTH",
"409 103 OFFCURVE",
"346 24 OFFCURVE",
"250 24 CURVE SMOOTH"
);
}
);
width = 500;
},
{
background = {
paths = (
{
closed = 1;
nodes = (
"474 -10 OFFCURVE",
"568 105 OFFCURVE",
"568 370 CURVE SMOOTH",
"568 635 OFFCURVE",
"474 750 OFFCURVE",
"300 750 CURVE SMOOTH",
"126 750 OFFCURVE",
"32 635 OFFCURVE",
"32 370 CURVE SMOOTH",
"32 105 OFFCURVE",
"126 -10 OFFCURVE",
"300 -10 CURVE SMOOTH"
);
},
{
closed = 1;
nodes = (
"248 152 OFFCURVE",
"225 203 OFFCURVE",
"225 370 CURVE SMOOTH",
"225 537 OFFCURVE",
"248 588 OFFCURVE",
"300 588 CURVE SMOOTH",
"353 588 OFFCURVE",
"375 537 OFFCURVE",
"375 370 CURVE SMOOTH",
"375 203 OFFCURVE",
"353 152 OFFCURVE",
"300 152 CURVE SMOOTH"
);
}
);
};
color = -1;
layerId = "C8FFBC04-9D7C-494A-A42D-BACB8E26599D";
paths = (
{
closed = 1;
nodes = (
"474 -10 OFFCURVE",
"568 105 OFFCURVE",
"568 370 CURVE SMOOTH",
"568 635 OFFCURVE",
"474 750 OFFCURVE",
"300 750 CURVE SMOOTH",
"126 750 OFFCURVE",
"32 635 OFFCURVE",
"32 370 CURVE SMOOTH",
"32 105 OFFCURVE",
"126 -10 OFFCURVE",
"300 -10 CURVE SMOOTH"
);
},
{
closed = 1;
nodes = (
"246 152 OFFCURVE",
"223 199 OFFCURVE",
"223 370 CURVE SMOOTH",
"223 541 OFFCURVE",
"246 588 OFFCURVE",
"300 588 CURVE SMOOTH",
"355 588 OFFCURVE",
"377 541 OFFCURVE",
"377 370 CURVE SMOOTH",
"377 199 OFFCURVE",
"355 152 OFFCURVE",
"300 152 CURVE SMOOTH"
);
}
);
width = 600;
},
{
background = {
paths = (
{
closed = 1;
nodes = (
"445 -9 OFFCURVE",
"541 91 OFFCURVE",
"541 370 CURVE SMOOTH",
"541 649 OFFCURVE",
"448 749 OFFCURVE",
"300 749 CURVE SMOOTH",
"152 749 OFFCURVE",
"59 649 OFFCURVE",
"59 370 CURVE SMOOTH",
"59 91 OFFCURVE",
"155 -9 OFFCURVE",
"300 -9 CURVE SMOOTH"
);
},
{
closed = 1;
nodes = (
"177 24 OFFCURVE",
"95 103 OFFCURVE",
"95 372 CURVE SMOOTH",
"95 637 OFFCURVE",
"177 716 OFFCURVE",
"300 716 CURVE SMOOTH",
"423 716 OFFCURVE",
"505 637 OFFCURVE",
"505 368 CURVE SMOOTH",
"505 103 OFFCURVE",
"423 24 OFFCURVE",
"300 24 CURVE SMOOTH"
);
}
);
};
color = -1;
layerId = "E28BEEB5-BD92-4E7A-B4EA-FC5E5BBBF580";
paths = (
{
closed = 1;
nodes = (
"445 -9 OFFCURVE",
"541 91 OFFCURVE",
"541 370 CURVE SMOOTH",
"541 649 OFFCURVE",
"448 749 OFFCURVE",
"300 749 CURVE SMOOTH",
"152 749 OFFCURVE",
"59 649 OFFCURVE",
"59 370 CURVE SMOOTH",
"59 91 OFFCURVE",
"155 -9 OFFCURVE",
"300 -9 CURVE SMOOTH"
);
},
{
closed = 1;
nodes = (
"177 24 OFFCURVE",
"95 103 OFFCURVE",
"95 372 CURVE SMOOTH",
"95 637 OFFCURVE",
"177 716 OFFCURVE",
"300 716 CURVE SMOOTH",
"423 716 OFFCURVE",
"505 637 OFFCURVE",
"505 368 CURVE SMOOTH",
"505 103 OFFCURVE",
"423 24 OFFCURVE",
"300 24 CURVE SMOOTH"
);
}
);
width = 600;
},
{
background = {
paths = (
{
closed = 1;
nodes = (
"558 -10 OFFCURVE",
"686 119 OFFCURVE",
"686 370 CURVE SMOOTH",
"686 621 OFFCURVE",
"558 750 OFFCURVE",
"360 750 CURVE SMOOTH",
"161 750 OFFCURVE",
"34 621 OFFCURVE",
"34 370 CURVE SMOOTH",
"34 119 OFFCURVE",
"161 -10 OFFCURVE",
"360 -10 CURVE SMOOTH"
);
},
{
closed = 1;
nodes = (
"300 179 OFFCURVE",
"265 225 OFFCURVE",
"265 370 CURVE SMOOTH",
"265 515 OFFCURVE",
"301 561 OFFCURVE",
"360 561 CURVE SMOOTH",
"419 561 OFFCURVE",
"455 515 OFFCURVE",
"455 370 CURVE SMOOTH",
"455 225 OFFCURVE",
"419 179 OFFCURVE",
"360 179 CURVE SMOOTH"
);
}
);
};
color = -1;
layerId = "1E90A949-97C4-49F5-AA9A-AF35B6FD63CF";
paths = (
{
closed = 1;
nodes = (
"558 -10 OFFCURVE",
"686 119 OFFCURVE",
"686 370 CURVE SMOOTH",
"686 621 OFFCURVE",
"558 750 OFFCURVE",
"360 750 CURVE SMOOTH",
"161 750 OFFCURVE",
"34 621 OFFCURVE",
"34 370 CURVE SMOOTH",
"34 119 OFFCURVE",
"161 -10 OFFCURVE",
"360 -10 CURVE SMOOTH"
);
},
{
closed = 1;
nodes = (
"298 177 OFFCURVE",
"263 220 OFFCURVE",
"263 370 CURVE SMOOTH",
"263 520 OFFCURVE",
"299 563 OFFCURVE",
"360 563 CURVE SMOOTH",
"421 563 OFFCURVE",
"457 520 OFFCURVE",
"457 370 CURVE SMOOTH",
"457 220 OFFCURVE",
"421 177 OFFCURVE",
"360 177 CURVE SMOOTH"
);
}
);
width = 720;
}
);
note = "\012    600\012  ";
},
